<svg xmlns="http://www.w3.org/2000/svg" width="160" height="47" viewBox="0 0 160 47">
    <g fill="none" fill-rule="evenodd">
        <rect width="160" height="46.512" fill="#000" rx="10"/>
        <path fill="#FFF" d="M29.478 15.115c3.016 0 4.945 2.919 4.945 2.919s-2.942 1.597-2.942 5.064c0 4.116 3.696 5.313 3.696 5.313s-2.917 6.923-6.194 6.923c-1.842 0-1.965-1.06-4.413-1.06-2.126 0-2.843 1.06-4.463 1.06-3.09 0-7.084-6.748-7.084-12.236 0-5.7 4.043-7.983 6.577-7.983 2.226 0 3.153 1.31 4.945 1.31 1.509 0 2.696-1.31 4.933-1.31zm-.519-5.813c.445 2.794-2.09 6.25-5.118 6.138-.445-3.556 2.819-5.95 5.118-6.138z"/>
        <text fill="#FFF" font-family="HelveticaNeue, Helvetica Neue" font-size="21">
            <tspan x="45.581" y="30.221">App Store</tspan>
        </text>
    </g>
</svg>
