<svg xmlns="http://www.w3.org/2000/svg" width="208" height="243" viewBox="0 0 208 243">
    <g fill="#F5F6FB" fill-rule="nonzero" opacity=".04">
        <path d="M162.936 188.734L42.089 264.248a9.5 9.5 0 0 1-10.069-16.113l120.847-75.514a9.5 9.5 0 0 1 10.069 16.113M203.252 163.542a11.52 11.52 0 0 1-1.636.798 5.73 5.73 0 0 1-1.837.476 7.43 7.43 0 0 1-1.914.182l-1.809-.214a9.64 9.64 0 0 1-7.148-11.44l.6-1.72a7.43 7.43 0 0 1 1.003-1.64 5.73 5.73 0 0 1 1.233-1.443 9.49 9.49 0 0 1 8.612-2.351c.577.205 1.175.445 1.773.684a10 10 0 0 1 3.016 2.148 10.6 10.6 0 0 1 1.13 1.43c.32.55.6 1.124.836 1.717a5.73 5.73 0 0 1 .432 1.746 7.57 7.57 0 0 1 .176 1.906l-.209 1.817-.608 1.725a7.38 7.38 0 0 1-.995 1.635 5.79 5.79 0 0 1-1.233 1.443 11.4 11.4 0 0 1-1.425 1.115M142.841 66.864L21.961 142.4a9.5 9.5 0 0 1-10.07-16.113l120.882-75.534a9.5 9.5 0 0 1 10.068 16.112M173.046 115.203l-80.564 50.343a9.5 9.5 0 0 1-10.069-16.113l80.565-50.343a9.5 9.5 0 0 1 10.068 16.113M28.005 205.835L11.883 215.91a9.5 9.5 0 0 1-10.068-16.113l16.113-10.068a9.5 9.5 0 0 1 10.068 16.113M72.32 43.718l-120.847 75.514a9.5 9.5 0 0 1-10.069-16.113L62.251 27.605a9.5 9.5 0 0 1 10.068 16.113M112.636 18.526a11.52 11.52 0 0 1-1.636.798 5.73 5.73 0 0 1-1.837.476 7.43 7.43 0 0 1-1.914.182l-1.809-.215a10 10 0 0 1-5.924-4.234 10 10 0 0 1-1.236-7.187l.6-1.719a7.43 7.43 0 0 1 1.003-1.64 5.73 5.73 0 0 1 1.264-1.45 9.49 9.49 0 0 1 8.612-2.352c.577.206 1.175.445 1.773.685a5.5 5.5 0 0 1 1.587.918 5.49 5.49 0 0 1 1.434 1.238 10.6 10.6 0 0 1 1.13 1.43c.32.55.6 1.124.836 1.716a5.73 5.73 0 0 1 .432 1.747 7.57 7.57 0 0 1 .177 1.906l-.21 1.817-.608 1.725a7.38 7.38 0 0 1-.994 1.635 5.79 5.79 0 0 1-1.233 1.443 11.4 11.4 0 0 1-1.426 1.115M60.23 185.698a9.78 9.78 0 0 1-7.186 1.237 9.54 9.54 0 0 1 4.291-18.589 10 10 0 0 1 5.925 4.292c.326.55.606 1.123.837 1.718a5.73 5.73 0 0 1 .432 1.747 7.57 7.57 0 0 1 .177 1.906l-.21 1.816a9.81 9.81 0 0 1-4.265 5.873"/>
    </g>
</svg>
