<svg xmlns="http://www.w3.org/2000/svg" width="164" height="164" viewBox="0 0 164 164">
    <g fill="#F5F6FB" fill-rule="nonzero" opacity=".7">
        <path d="M140.542 106.015l-64.043 55.672a5.657 5.657 0 1 1-7.423-8.54l64.043-55.671a5.657 5.657 0 1 1 7.423 8.539M161.907 87.442a6.86 6.86 0 0 1-.887.622c-.318.207-.668.359-1.036.45a4.425 4.425 0 0 1-1.11.286l-1.083.043a5.74 5.74 0 0 1-5.27-6.063l.193-1.067c.099-.37.246-.726.437-1.059.142-.351.341-.677.59-.963a5.651 5.651 0 0 1 4.847-2.185c.358.067.732.152 1.106.237a5.955 5.955 0 0 1 1.974.983c.287.221.553.467.797.735.24.294.459.606.653.932.19.305.33.638.416.987.14.355.235.726.282 1.105l.046 1.088-.197 1.07a4.395 4.395 0 0 1-.433 1.055 3.448 3.448 0 0 1-.59.964c-.224.282-.47.545-.735.788M117.37 36.208L53.309 91.895a5.657 5.657 0 0 1-7.423-8.54l64.061-55.687a5.657 5.657 0 1 1 7.423 8.54M139.639 61.825L96.943 98.939A5.657 5.657 0 1 1 89.52 90.4l42.696-37.114a5.657 5.657 0 1 1 7.423 8.539M62.773 128.643l-8.543 7.426a5.657 5.657 0 1 1-7.423-8.539l8.54-7.423a5.657 5.657 0 0 1 7.422 8.54M73.736 29.163L9.692 84.835a5.657 5.657 0 1 1-7.422-8.54l64.043-55.67a5.657 5.657 0 0 1 7.423 8.538M95.101 10.59a6.86 6.86 0 0 1-.887.622c-.318.207-.669.36-1.037.451a4.424 4.424 0 0 1-1.109.285l-1.083.043a5.955 5.955 0 0 1-3.879-1.939A5.955 5.955 0 0 1 85.71 5.94l.193-1.067c.1-.37.246-.726.437-1.058.147-.356.353-.684.608-.97A5.651 5.651 0 0 1 91.794.658c.358.067.732.153 1.106.238.36.072.704.205 1.02.392.351.141.676.342.959.595.286.221.552.467.797.735.24.294.458.606.652.932.19.305.33.638.416.987.14.355.235.726.282 1.105l.046 1.088-.197 1.07a4.395 4.395 0 0 1-.433 1.055 3.448 3.448 0 0 1-.59.964c-.224.282-.47.545-.735.788M36.23 106.74a5.955 5.955 0 0 1-4.111 1.397 6.55 6.55 0 0 1-2.126-.63 5.36 5.36 0 0 1-2.82-3.244 6.55 6.55 0 0 1-.328-2.193 5.8 5.8 0 0 1 2.834-4.491 3.448 3.448 0 0 1 1.036-.451 3.21 3.21 0 0 1 1.064-.247 5.86 5.86 0 0 1 1.088-.046 5.67 5.67 0 0 1 5.27 6.063 5.86 5.86 0 0 1-.197 1.07 3.21 3.21 0 0 1-.392 1.02 3.448 3.448 0 0 1-.59.964c-.222.281-.465.545-.727.789M79.852 113.797a5.824 5.824 0 0 1-4.112 1.397 5.681 5.681 0 0 1 .792-11.333 5.955 5.955 0 0 1 3.885 1.972c.242.293.46.604.652.932.19.305.33.639.417.988.14.354.235.725.281 1.104l.047 1.088a5.842 5.842 0 0 1-1.962 3.852"/>
    </g>
</svg>
