<svg xmlns="http://www.w3.org/2000/svg" width="349" height="343" viewBox="0 0 349 343">
    <g fill="none" fill-rule="evenodd">
        <ellipse cx="243" cy="329" fill="#EEEFF6" fill-rule="nonzero" rx="97" ry="14"/>
        <ellipse cx="57" cy="309.5" fill="#EEEFF6" fill-rule="nonzero" rx="45" ry="5.5"/>
        <path fill="#788DDF" fill-rule="nonzero" d="M221.826 22.633a3.024 3.024 0 0 0 1.853.072 17.26 17.26 0 0 0 5.426-3.087c4.643-3.623 11.617-4.518 13.938-2.717 1.354 1.029 2.148 5.289 2.566 8.633.17.858.722 1.588 1.495 1.98a2.783 2.783 0 0 0 2.465.027c1.72-.772 3.431-.813 3.431 2.058 0 4.558-.835 7.398-2.688 8.067a2.715 2.715 0 0 0-1.873 1.997c-.825 4.815-4.358 17.184-19.14 19.304a2.963 2.963 0 0 1-2.525-.824l-1.66-1.718c-2.24-2.326-7.259-20.58-7.615-21.928v-.144c-.408-1.173-5.03-15.157 4.327-11.72z"/>
        <path fill="#272B3F" fill-rule="nonzero" d="M216.125 23.402a4.541 4.541 0 0 0 2.278 1.378c4.142 1.162 8.585-1.028 11.867-3.372 8.471-6.168 11.806-2.652 12.427-.884.621 1.768 1.211 13.55 1.211 13.55a10.497 10.497 0 0 1 3.231-3.743 2.707 2.707 0 0 1 1.316-.38c2.423 0 .735-1.09 3.324.586 2.07 1.326-.601 7.658-3.024 8.83l-.911 2.653s5.177 3.238 5.447-2.056c.269-5.295 13.617-7.66 5.446-15.02-8.17-7.36 5.178-1.768 3.024-8.83-2.154-7.063-16.05-13.848-23.31-13.005-7.259.843-13.017-5.55-16.34-2.056-3.325 3.496-3.511 4.452-3.511 6.168 0 1.717-10.894-.586-10.594 3.239a9.22 9.22 0 0 0 1.792 3.958c1.615 2.6 3.407 5.14 5.23 7.555.338.496.705.973 1.097 1.43z"/>
        <path fill="#788DDF" fill-rule="nonzero" d="M313.9 302l5.1 7.51-6.607 5.49L301 303.726zM209 309.999L206.614 321 198 319.806 200.932 303z"/>
        <path fill="#272B3F" fill-rule="nonzero" d="M277.133 171s2.055 4.832-5.364 18.997c-7.419 14.165-4.82 50.746-4.82 50.746s2.22.886 1.85 2.947c-.37 2.06 9.249 11.805 19.648 28.33a120.201 120.201 0 0 0 24.836 27.732s4.11.587 2.22 3.832c-1.891 3.245-10.749 12.095-14.088 9.447-3.34-2.648.74-3.832-4.11-6.181 0 0-47.208-44.854-52.767-53.703 0 0-1.736-12.98-4.336-38.066a88.012 88.012 0 0 1-8.22 32.461 2.52 2.52 0 0 1 1.555 1.43 2.53 2.53 0 0 1-.076 2.114c-1.11 2.658-5.138 15.051-13.667 36.293-8.529 21.243-7.789 23.602-7.789 23.602s2.97.587 1.11 2.359-10.748 2.946-17.469-.886c-6.72-3.832 1.48-4.12 1.48-4.12s11.118-33.935 14.088-64.624c2.97-30.689 13.091-51.035 16.441-63.14l1.85-6.789s31.67 3.678 47.628-2.781z"/>
        <rect width="12" height="24" x="187" y="39" fill="#515873" fill-rule="nonzero" rx="2.57" transform="rotate(164.291 193 51)"/>
        <path fill="#788DDF" fill-rule="nonzero" d="M223.92 98.793c-.943.411-25.748 21.506-25.748 21.506s-2.715 4.113-5.715-.452c-3.001-4.564-8.194-30.08-9.218-48.143-1.024-18.062 1.372-9.838 4.762-.288 3.39 9.55 6.8 15.914 8.9 27.973 2.1 12.059.349 1.08 17.965-12.573 17.616-13.652 9.054 11.977 9.054 11.977z"/>
        <path fill="#FFF" fill-rule="nonzero" d="M249.282 56.488s16.354-2.656 24.876 4.426c8.522 7.082 5.791 16.212 1.03 15.626-4.76-.587-8.182-4.715-8.182-4.715S269.067 67.4 282 93.647c0 0-8.522-.586-19.425 7.67l8.316-1.329s10.078 31.694 6.678 58.23a3.21 3.21 0 0 1-1.36 2.945c-1.7 1.472 3.091 1.472 1.7 4.426-1.391 2.954-.68 4.715-.68 4.715s6.183 4.117-11.923 6.176c-18.106 2.058-36.12-2.656-36.12-2.656s-2.38-2.944 0-5.6c2.381-2.656 0-64.571-5.152-68.102l-7.41 6.557s-5.152-2.728-9.624-14.812c0 0 14.314-22.996 21.465-26.537 7.152-3.541 15.025-9.429 20.817-8.842z"/>
        <path fill="#788DDF" fill-rule="nonzero" d="M251 35.392s-5.821 8.355-5.209 21.493c.613 13.137-9.804 17.908-9.804 17.01 0-.899 2.758-8.056-.306-15.823-3.064-7.766 4.596-25.964 15.319-22.68z"/>
        <path fill="#F3F5FA" fill-rule="nonzero" d="M248 57.149c.872 0 10.458-1.224 15.398 3.35 4.94 4.574 1.745 5.18-.578 5.49-2.323.308-3.196-5.49-9.88-6.383L248 57.149z"/>
        <path fill="#F3F5FA" fill-rule="nonzero" d="M265.866 62.954s3.15 4.245-1.05 4.039c-4.2-.207-3.613-4.463-10.323-7.253-6.71-2.79 11.373 3.214 11.373 3.214z"/>
        <path fill="#3D4A6E" fill-rule="nonzero" d="M317.915 308.122a11.115 11.115 0 0 1-7.169 6.85s-3.287 12.204-11.959 15.478c-8.671 3.274-3.882 6.237 1.2 7.443 5.082 1.205 18.533-8.036 18.784-13.098l8.18-6.237a2.686 2.686 0 0 0 .355-3.93c-3.255-3.7-9.61-10.259-9.391-6.506zM207.596 317.553a10.958 10.958 0 0 1-9.88 0s-10.764 6.659-19.265 3.046c-8.5-3.613-7.099 1.89-4.255 6.301 2.844 4.412 18.89 6.964 22.585 3.456l10.327 1.05a2.575 2.575 0 0 0 1.975-.641c.541-.482.86-1.17.88-1.9.124-4.874.072-14.232-2.367-11.312z"/>
        <path fill="#FFD194" fill-rule="nonzero" d="M104.871 294.872c-.938-5.186-2.783-15.404-9.279-19.82a9.051 9.051 0 0 0-.835-.739c-11.218-8.923-23.714-4.015-29.632-2.649-5.66 1.314-12.661.38-16.095-.472a12.293 12.293 0 0 1-2.062-1.387 43.816 43.816 0 0 0-6.279-4.477c-1.7-1.53-3.247-2.999-4.124-3.882a87.464 87.464 0 0 1-1.495-1.725v-.41a.662.662 0 0 0-.897-.637c-1.526-1.87-2.526-3.225-2.526-3.225l-.33-.246a1.759 1.759 0 0 0-1.03-1.13v.39l-.475-.318c-.701-.462-1.567-1.027-2.547-1.49a3.103 3.103 0 0 0-1.154-.328 7.099 7.099 0 0 0-5.156.35 10.136 10.136 0 0 0-4.577 1.94c-1.825 1.715-6.6 2.845-9.847 2.937h-.33a20.12 20.12 0 0 1-2.99-.36 1.095 1.095 0 0 0-1.134.494c-.396.6-.74 1.232-1.031 1.89a2.86 2.86 0 0 0-.825 1.95c0 .218.068.43.196.606v.37c0 .123-.825 1.756-.155 2.423.67.668.588 2.054 8.362 3.728.449.1.903.173 1.361.216 2.268.636 4.67 1.212 6.898 1.735a9.326 9.326 0 0 1 2.68 2.526c.347.662.644 1.348.887 2.054l-.227.134a.658.658 0 0 0-.196 1.027 2.919 2.919 0 0 0-.494 1.458c-.124.852-.062 1.571.134 1.602a.114.114 0 0 0 .072 0c.206 0 .464-.647.587-1.5a4.357 4.357 0 0 0 0-1.314.631.631 0 0 0 .464 0c.316 1.2.52 2.428.609 3.666a26.163 26.163 0 0 0 5.155 13.925c.412.616.907 1.294 1.464 2.054.113.277.227.565.33.862a2.857 2.857 0 0 1-.763 3.02c-6.95 3.358-7.888 3.789-7.888 3.789a5.732 5.732 0 0 0-1.453 1.027c-.544.165-1.075.371-1.588.616-2.66 1.273 1.278 2.65 4.526 3.532 3.093.842 3.681-.092 4.124-1.365.383-.251.684-.608.866-1.027.155-.545 5.64-1.428 11.002-3.153 1.876 2.177-.258 5.597-1.764 6.624a7.776 7.776 0 0 1-.65.39c-1.412.38-3.226 1.253-2.99 2.249.3 1.273 5.713 1.468 7.579.883a1.58 1.58 0 0 0 1.119-.606c.27-.35.38-.797.304-1.232.42-.395.806-.824 1.155-1.284 1.814-1.54 3.732-3.532 3.01-4.631a6.361 6.361 0 0 1-1.03-2.783 8.355 8.355 0 0 1 1.123-2.352 35.617 35.617 0 0 0 17.703-3.881 94.38 94.38 0 0 1 6.258-1.592c4.887 1.191 6.63 3.615 7.218 4.683-.01.158-.027.315-.052.472l.196-.205.062.123c.31 1.571 1.423 3.08 4.124 3.378 1.629.914 4.753 3.081 4.547 4.59-.268 2.054-.887 2.26-2.062 2.352-1.176.093-1.083 2.742 1.082 2.742a5.267 5.267 0 0 0 1.578-.236 5.025 5.025 0 0 0 2.907-.852c1.031-.617 3.691-6.521-1.216-9.643a6.89 6.89 0 0 1-1.155-4.056 5.727 5.727 0 0 0 3.402 1.18h.052c1.577 1.027 4.815 3.492 3.763 5.063-1.381 2.054-1.67 1.376-2.268 2.26-.598.883.196 2.053 2.268 2.259.23.015.459-.046.65-.175a5.077 5.077 0 0 0 3.041-.863c1.031-.616 3.691-6.52-1.216-9.642-1.475-2.526-1.196-4.108-1.031-4.621 2.33-1.428 3.722-4.2 3.206-9.109a19.25 19.25 0 0 0-.876-4.108c4.526 6.09 5.093 15.722 5.155 16.831a.277.277 0 0 0 .072.175c.485.575 3.176 1.017 2.433-3.05zm-17.115 12.323v.113-.113z"/>
        <path stroke="#FAAF40" stroke-linecap="round" stroke-width="1.5" d="M207 166s-5.076 6.163-30.022 27.62C152.032 215.079 47.606 265.8 37 261.775"/>
        <path fill="#788DDF" fill-rule="nonzero" d="M271.397 94l-13.437 4.916s-1.975-7.773.785 6.138c2.76 13.91 15.794 20.462 5.168 24.56-9.478 3.644-34.834 24.665-40.312 29.52a17.687 17.687 0 0 1-6.43 1.417c-3.338 0-7.08-1.035-7.235-.559-.527 0-.9 1.44-1.933 2.526-2.429 2.546-.806 3.82-2.832 4.771-2.026.953-1.282 2.205 1.147 1.242 0 0-2.222 2.33.073 2.495.305.545.857.908 1.478.973 0 .341.124.797 1.147.59l.145.155a.62.62 0 0 0 .6.248h.113c1.414-.02 2.814-.29 4.135-.797a20.78 20.78 0 0 0 2.48-1.428c1.902-.9 4.135-1.16 4.848-2.277a7.24 7.24 0 0 1 2.16-2.132l.259-.135s56.85-25.606 57.233-35.842c.383-10.237-9.592-36.381-9.592-36.381z"/>
        <rect width="12" height="24" x="186" y="40" fill="#272B3F" fill-rule="nonzero" rx="2.57" transform="rotate(164.291 192 52)"/>
        <ellipse cx="188" cy="44.5" fill="#515873" fill-rule="nonzero" rx="1" ry="1.5"/>
        <path fill="#788DDF" fill-rule="nonzero" d="M188.808 50.428s2.93-3.34 4.558.195c1.628 3.535-.43 7.944-.105 10.595.294 2.364-2.804 3.72-3.928 7.276-.14.447-.241.904-.304 1.367-.651 4.614-5.86-6.28-5.86-6.28a21.992 21.992 0 0 1 .325-7.357l1.418-6.382 1.302 4.42s1.177-5.992 2.594-3.834z"/>
        <path stroke="#FFF" stroke-linecap="round" d="M235 31.783s-2.292-4.153-5 .217M226 32.292s-2.138-3.333-4 .708"/>
        <path fill="#FFF" fill-rule="nonzero" d="M226.735 46.78c.223.064 2.113 1.889 4.806-.832s3.048 1.054 1.677 3.322c-1.372 2.267-3.201 3.849-5.823 1.74-2.622-2.11-3.445-4.988-.66-4.23zM273.454 94.193c-.289-.1-10.066 1.237-16.424 7.807L256 98.67l1.659-6.57 14.569-.1 1.092.608.68 1.575-.546.01z"/>
        <ellipse cx="247" cy="35.5" fill="#272B3F" fill-rule="nonzero" rx="2" ry="1.5" transform="rotate(-69.08 247 35.5)"/>
        <circle cx="247" cy="37" r="1" fill="#272B3F" fill-rule="nonzero"/>
        <path stroke="#272B3F" d="M247 37s-11.581 14.894-15.975 43.195c-4.395 28.3-10.853 57.041-18.912 44.98-8.06-12.061-8.665-53.89-15.113-62.975M231 59c.006 5.347.32 10.69.94 16"/>
        <path fill="#F4BA64" fill-rule="nonzero" d="M23 252.411c1.108-.632 2.542-.527 3.525.259 1.85 1.342 4.16.726 4.148 2.635-.01 1.909 1.095 3.907-.7 8.283-1.336 3.271-1.61 2.267-1.61 2.267-2.568-.808-4.19-3.112-3.918-5.569.295-4.424.897-8.71-.92-8.143"/>
        <path fill="#F4BA64" fill-rule="nonzero" d="M24.063 252.32a3.133 3.133 0 0 1 3.391.409c1.827 1.332 4.123.706 4.102 2.615-.021 1.91 1.398 4.028-.73 8.295-1.524 3.033-1.608 2.277-1.608 2.277-2.342-.887-3.738-3.192-3.37-5.57.312-4.425 0-8.144-1.848-7.568"/>
        <path stroke="#FFF" stroke-linecap="round" d="M17 259s1.314-4.244 4-.367"/>
        <path fill="#F2B863" fill-rule="nonzero" d="M4 257.987c-.31-.811-1.128-1.197-1.85-.872-.688.298-1.144 1.047-1.147 1.885-.062-.213.89.294 1.21-.649.32-.942.827-.07 1.147-.141.218-.055.432-.13.64-.223z"/>
        <path fill="#F7A226" fill-rule="nonzero" d="M5.985 258.536c.068.137-.056.74-1.327.672-1.27-.068-1.134-.421-2.007.832-.873 1.253-1.61 1.14-1.645.456-.05-.978.2-1.949.715-2.78a2.17 2.17 0 0 1 2.45-.547c.726.308 1.281.376 1.814 1.367z"/>
        <path fill="#788DDF" fill-rule="nonzero" d="M194.546 87.158c-3.574-8.752-4.768-13.33-4.993-15.82a5.373 5.373 0 0 1 .163-2.305c.072-.423.133-.775.184-1.033l-3.9.496L192.024 112l5.697-1.478s4.42-4.722-3.175-23.364z"/>
        <path fill="#788DDF" fill-rule="nonzero" d="M191 66s-1.944 2.787-1.148 8L188 73l.694-4.99L191 66z"/>
        <path fill="#F3F5FA" fill-rule="nonzero" d="M282 94l-11 .733.868 2.267c3.468-.7 6.86-1.704 10.132-3z"/>
        <path fill="#272B3F" fill-rule="nonzero" d="M248 30.413s2.42-.51 3.458 1.188c.412 2.241-.142 4.545-1.537 6.399L255 32.406 251.24 29 248 30.413z"/>
        <path fill="#F4BA64" fill-rule="nonzero" d="M342.953 38s5.145 5.201 5.989 10.548c.473 2.86-2.058 2.756-3.663 1.987A10.78 10.78 0 0 1 340 45.562L342.953 38zM314.654 37s-5.331 4.545-6.546 9.517c-.648 2.668 1.76 2.785 3.417 2.188 2.244-.727 4.178-2.235 5.475-4.268L314.654 37z"/>
        <path fill="#F4BA64" fill-rule="nonzero" d="M310 28s1.025 18.443 9.294 28.34a11.692 11.692 0 0 0 9.488 3.618s12.521.205 13.218-27.08L310 28zM307.48 16.862s17.795 5.828 27.9 7.132c0 0 7.73.418 11.502-5.655 0 0 1.354-3.922-5.105-5.716 0 0-10.664-3.698-16.76-2.312l-14.188 3.84s-5.446 1.315-3.348 2.71z"/>
        <path fill="#F7A226" fill-rule="nonzero" d="M347.128 18s1.578 9.878.489 16.036c.145 2.751-1.66 5.231-4.336 5.955 0 0-6.97 2.407-9.281 1.952l1.15-18.645L347.128 18z"/>
        <path fill="#FFD194" fill-rule="nonzero" d="M307 17l.962 17.071s.334 6.112 3.136 6.488c0 0 17.571 7.13 24.313 3.321 0 0 1.296-.947 1.589-4.655 0 0 0-12.223-.376-14.728L307 17z"/>
        <circle cx="313" cy="29" r="3" fill="#FFF" fill-rule="nonzero" opacity=".29"/>
        <circle cx="325" cy="31" r="3" fill="#FFF" fill-rule="nonzero" opacity=".29"/>
        <circle cx="314.5" cy="29.5" r="2.5" fill="#FFF" fill-rule="nonzero"/>
        <circle cx="324.5" cy="30.5" r="2.5" fill="#FFF" fill-rule="nonzero"/>
        <path fill="#F7A226" fill-rule="nonzero" d="M324.665 45c.086.125-2.881 3.312-3.13 3.629 0 0-2.104 1.872 2.035 2.121l2.343.25s1.873-.077.702-1.92a28.104 28.104 0 0 0-1.95-4.08z"/>
        <path fill="#FFD194" fill-rule="nonzero" d="M321 49.494s1.43-2.152 2.241-3.475c0 0 .64-.495 1.718 3.594 0-.022.726.957-3.959-.119z"/>
        <path stroke="#FFD194" stroke-width=".5" d="M335 25l12-5M335 27l12-5"/>
        <path fill="#F4BA64" fill-rule="nonzero" d="M34.276 260S31.098 273.238 20 275.111c.372.922.606 1.892.696 2.882l.162 1.007S32.43 277.076 37 262.881L34.276 260z"/>
    </g>
</svg>
