<svg xmlns="http://www.w3.org/2000/svg" xmlns:xlink="http://www.w3.org/1999/xlink" width="160" height="47" viewBox="0 0 160 47">
    <defs>
        <linearGradient id="b" x1="19.215%" x2="69.302%" y1="-35.157%" y2="93.537%">
            <stop offset="0%" stop-color="#19A3B4"/>
            <stop offset="34.817%" stop-color="#5BC3AF"/>
            <stop offset="92.234%" stop-color="#C8F7A6"/>
            <stop offset="100%" stop-color="#D7FEA5"/>
        </linearGradient>
        <path id="a" d="M18.902 9.059L2.981.271c-.452-.248-.868-.306-1.206-.2l13.042 13.09 4.085-4.102"/>
        <linearGradient id="c" x1="-14.698%" x2="74.844%" y1="-114.322%" y2="114.156%">
            <stop offset="0%" stop-color="#FC227C"/>
            <stop offset="100%" stop-color="#FEEB7B"/>
        </linearGradient>
        <linearGradient id="e" x1="28.151%" x2="48.188%" y1="-14.814%" y2="82.894%">
            <stop offset="0%" stop-color="#0E4DA0"/>
            <stop offset="100%" stop-color="#6BFED4"/>
        </linearGradient>
        <path id="d" d="M1.775.07C1.29.224.977.716.977 1.46L.98 24.894c0 .736.304 1.22.774 1.382l13.063-13.113L1.775.071"/>
        <linearGradient id="g" x1="132.245%" x2="5.959%" y1="16.466%" y2="126.31%">
            <stop offset="0%" stop-color="#FC472E"/>
            <stop offset=".332%" stop-color="#FC472F"/>
            <stop offset="100%" stop-color="#893CD8"/>
        </linearGradient>
        <path id="f" d="M1.754 26.276c.34.116.764.062 1.227-.193l15.94-8.8-4.104-4.12L1.754 26.276"/>
    </defs>
    <g fill="none" fill-rule="evenodd">
        <g>
            <rect width="160" height="47" fill="#000" rx="10"/>
            <g transform="translate(9.233 10.34)">
                <use fill="url(#b)" xlink:href="#a"/>
                <path fill="url(#c)" d="M18.923 17.283l5.436-3c1.102-.61 1.102-1.604 0-2.213L18.903 9.06l-4.086 4.102 4.106 4.122"/>
                <use fill="url(#e)" xlink:href="#d"/>
                <use fill="url(#g)" xlink:href="#f"/>
            </g>
        </g>
        <path fill="#FFF" d="M105.965 28.133l-1.067 1.03c-.247.138-.492.3-.737.414-.741.344-1.495.43-2.165.43-.713 0-1.83-.047-2.97-.89-1.584-1.14-2.276-3.101-2.276-4.81 0-3.537 2.816-5.272 5.113-5.272.803 0 1.628.206 2.298.639 1.115.754 1.403 1.733 1.563 2.258L100.48 24.1l-1.718.136c.556 2.9 2.475 4.588 4.595 4.588 1.06 0 1.846-.354 2.567-.718 0 0 .145-.077.042.028zm-3.165-5.769l-4.062 1.803c-.022-.41-.067-.82-.067-1.205 0-2.465 1.673-3.175 2.565-3.175 1.203 0 2.212 1.053 2.212 1.965 0 .317-.222.454-.648.612zm-7.803 5.593c0 .886.154 1.024.888 1.094.382.046.763.066 1.14.112l-.826.502h-3.932c.516-.684.604-.752.604-1.208v-.51l-.008-13.564h-1.737l1.672-.824h3.191c-.692.41-.899.66-.987 1.458l-.005 12.94zm-6.1-7.802c.513.43 1.582 1.344 1.582 3.078 0 1.69-.931 2.486-1.871 3.24-.288.296-.626.618-.626 1.116 0 .505.338.779.58.983l.806.636c.98.846 1.874 1.621 1.874 3.197 0 2.146-2.032 4.31-5.87 4.31-3.234 0-4.797-1.575-4.797-3.263 0-.821.4-1.985 1.72-2.782 1.383-.865 3.257-.98 4.261-1.048-.313-.414-.671-.847-.671-1.554 0-.387.114-.618.223-.89-.244.024-.49.049-.713.049-2.367 0-3.705-1.806-3.705-3.584 0-1.05.468-2.214 1.43-3.058 1.272-1.07 2.79-1.255 3.995-1.255h4.598l-1.43.825h-1.385zm-1.58 10.128c-.184-.024-.293-.024-.514-.024-.203 0-1.408.044-2.342.365-.494.184-1.922.73-1.922 2.35 0 1.618 1.542 2.784 3.926 2.784 2.143 0 3.28-1.05 3.28-2.464 0-1.163-.736-1.777-2.429-3.01zm.64-4.335a2.257 2.257 0 0 1-1.513.639c-1.917 0-2.789-2.534-2.789-4.062 0-.593.113-1.21.49-1.685.356-.459.983-.756 1.562-.756 1.855 0 2.812 2.556 2.812 4.197 0 .413-.045 1.14-.561 1.667zM75.063 29.96c-3.547 0-5.445-2.824-5.445-5.381 0-2.988 2.386-5.544 5.78-5.544 3.28 0 5.335 2.626 5.335 5.383 0 2.693-2.03 5.542-5.67 5.542zm2.79-1.846c-.513.73-1.404 1.161-2.277 1.161-2.704 0-3.794-3.718-3.794-5.972 0-.984.155-1.988 1.027-2.786a3.073 3.073 0 0 1 2.012-.774c2.767 0 3.703 3.832 3.703 5.841 0 .889-.13 1.8-.67 2.53zM63.187 29.96c-3.547 0-5.442-2.824-5.442-5.381 0-2.988 2.387-5.544 5.779-5.544 3.279 0 5.331 2.626 5.331 5.383 0 2.693-2.028 5.542-5.668 5.542zm2.792-1.846c-.515.73-1.405 1.161-2.276 1.161-2.7 0-3.794-3.718-3.794-5.972 0-.984.155-1.988 1.027-2.786a3.06 3.06 0 0 1 2.008-.774c2.765 0 3.704 3.832 3.704 5.841 0 .889-.134 1.8-.67 2.53zm-9.652 1.054l-2.992.7c-1.212.196-2.3.368-3.453.368-5.77 0-7.97-4.343-7.97-7.741 0-4.151 3.116-8 8.451-8 1.13 0 2.215.17 3.204.446 1.568.45 2.301 1.006 2.76 1.33l-1.738 1.688-.733.168.523-.851c-.708-.707-2.009-2.01-4.477-2.01-3.3 0-5.79 2.564-5.79 6.31 0 4.021 2.842 7.805 7.402 7.805 1.34 0 2.03-.276 2.656-.533V25.4l-3.16.174 1.675-.92h4.433l-.542.534c-.146.127-.166.17-.207.34-.022.196-.042.815-.042 1.033v2.607zm56.071-.937v5.81h-1.128V19.256h1.128v1.684c.736-1.089 2.08-1.951 3.64-1.951 2.8 0 4.685 2.17 4.685 5.607 0 3.414-1.886 5.63-4.685 5.63-1.473 0-2.793-.777-3.64-1.994zm7.112-3.636c0 2.594-1.32 4.587-3.662 4.587-1.455 0-2.845-1.211-3.45-2.232v-4.733c.605-1.02 1.995-2.187 3.45-2.187 2.341 0 3.662 1.975 3.662 4.565zm2.754-9.423h1.128v14.787h-1.128V15.172zm13.794 17.914c.242.11.654.177.915.177.69 0 1.17-.288 1.603-1.308l.823-1.907-4.446-10.793h1.259l3.814 9.353 3.777-9.353h1.277l-5.423 13.058c-.563 1.345-1.448 1.992-2.664 1.992-.365 0-.847-.066-1.129-.155l.194-1.064zm-3.297-3.16a20.274 20.274 0 0 1-.174-.97 6.66 6.66 0 0 1-.054-.835c-.387.58-.935 1.064-1.635 1.445-.701.383-1.367.571-2.28.571-1.1 0-1.954-.276-2.563-.838-.607-.56-.912-1.32-.912-2.28 0-.96.442-1.738 1.324-2.334.882-.598 2.022-.896 3.433-.896h2.633v-1.33c0-.766-.255-1.368-.765-1.805-.512-.437-1.23-.658-2.161-.658-.851 0-1.542.202-2.067.595-.521.402-.784.9-.784 1.5H125.6l-.024-.058c-.042-.809.32-1.518 1.09-2.13.765-.612 1.768-.92 3.003-.92 1.23 0 2.226.303 2.977.907.75.599 1.126 1.463 1.126 2.594v5.28c0 .38.018.746.064 1.103.048.357.124.714.225 1.06h-1.3zm-4.005-.84c.959 0 1.648-.22 2.352-.653.7-.43 1.176-.992 1.425-1.672v-2.056h-2.645c-1.01 0-1.847.229-2.505.69-.66.46-.993 1.016-.993 1.663 0 .61.211 1.099.632 1.469.422.374.998.559 1.734.559z"/>
    </g>
</svg>
