<svg xmlns="http://www.w3.org/2000/svg" width="1280" height="800" viewBox="0 0 1280 800">
    <g fill="none" fill-rule="nonzero">
        <path fill="#F5F6FB" d="M0 591.63v207.18s193.697-27.31 604.056-12.32c82.97 3 166.74 18.92 249.61 11.57 87.194-7.74 157.234-15.56 234.634-51.89 60.235-28.26 144.953-27 189.703 28v-221.9L0 591.63z" opacity=".55"/>
        <path fill="#F5F6FB" d="M1037.609 633.24l.479.07a569.77 569.77 0 0 1 34.476 4.43c9.475 1.52 18.76 3.59 27.956 6 49.104 9.11 118.815 24 178.621 44.36L1278.323 0H.429l.26 715.08c0 9.1 147.929 34.51 162.426 35.52 128.57 9 259.065 6.61 385.807-18.52 122.489-24.28 237.5-78.65 361.436-96.27a537.147 537.147 0 0 1 127.26-2.56l-.01-.01z"/>
        <g fill="#DDE0E9" opacity=".8" transform="translate(7 6)">
            <circle cx="644.24" cy="8.24" r="1.92" opacity=".31"/>
            <circle cx="628.32" cy="19.9" r="1.18" opacity=".31"/>
            <circle cx="627.24" cy="34.81" r="1" opacity=".31"/>
            <circle cx="693.26" cy="26.78" r="2.93" opacity=".31"/>
            <circle cx="683.18" cy="59.52" r="1.62" opacity=".31"/>
            <circle cx="640.19" cy="62.12" r="1.58" opacity=".31"/>
            <circle cx="659.24" cy="84.2" r="3.1" opacity=".31"/>
            <circle cx="666.69" cy="124.7" r="1.85" opacity=".31"/>
            <circle cx="730.12" cy="158.58" r="2.36" opacity=".31"/>
            <circle cx="779.61" cy="128.1" r="2.63" opacity=".31"/>
            <circle cx="715.75" cy="249.15" r="1.62" opacity=".31"/>
            <circle cx="721.62" cy="276.73" r="5.19" opacity=".31"/>
            <circle cx="635.84" cy="252.32" r="2.23" opacity=".31"/>
            <circle cx="563.65" cy="367.11" r="4.18" opacity=".31"/>
            <circle cx="746.91" cy="362.03" r="2.56" opacity=".31"/>
            <circle cx="798.63" cy="308.96" r="3.3" opacity=".31"/>
            <circle cx="651.22" cy="433.45" r="1.69" opacity=".31"/>
            <circle cx="631.8" cy="439.65" r="1.82" opacity=".31"/>
            <circle cx="684.33" cy="483.96" r="1.75" opacity=".31"/>
            <circle cx="663.69" cy="533.99" r="1.62" opacity=".31"/>
            <circle cx="775.43" cy="561.44" r="2.23" opacity=".31"/>
            <circle cx="629.97" cy="587.67" r="2.02" opacity=".31"/>
            <circle cx="733.62" cy="625.77" r="1.15" opacity=".31"/>
            <circle cx="734.3" cy="617.27" r="2.63" opacity=".31"/>
            <circle cx="785.68" cy="628.33" r="1.82" opacity=".31"/>
            <circle cx="936.13" cy="616.53" r="1.62" opacity=".31"/>
            <circle cx="1140.39" cy="594.08" r="1.62" opacity=".31"/>
            <circle cx="1043.26" cy="576.79" r="2.79" opacity=".31"/>
            <circle cx="1050.99" cy="598.01" r="1.89" opacity=".31"/>
            <circle cx="1191.9" cy="474.98" r="1.89" opacity=".31"/>
            <circle cx="1212.62" cy="143.56" r="1.89" opacity=".31"/>
            <circle cx="925.21" cy="71.06" r="1.89" opacity=".31"/>
            <circle cx="1095.5" cy="552.78" r="1.98" opacity=".31"/>
            <circle cx="1184.15" cy="625.07" r="2.7" opacity=".31"/>
            <circle cx="1215.71" cy="572.48" r="4.41" opacity=".31"/>
            <circle cx="1199.08" cy="532.28" r="2.7" opacity=".31"/>
            <circle cx="1241.16" cy="516.28" r="3.24" opacity=".31"/>
            <circle cx="1262.65" cy="464.04" r="1.89" opacity=".31"/>
            <circle cx="1218.23" cy="449.47" r="2.97" opacity=".31"/>
            <circle cx="1019.52" cy="513.67" r="4.59" opacity=".31"/>
            <circle cx="1221.38" cy="300.67" r="1.62" opacity=".31"/>
            <circle cx="1120.4" cy="318.74" r="2.79" opacity=".31"/>
            <circle cx="1212.66" cy="282.24" r="3.87" opacity=".31"/>
            <circle cx="1256.98" cy="314.16" r="4.32" opacity=".31"/>
            <circle cx="1188.92" cy="262.1" r="1.89" opacity=".31"/>
            <circle cx="1245.56" cy="231.53" r="5.3" opacity=".31"/>
            <circle cx="1096.94" cy="238.63" r="2.88" opacity=".31"/>
            <circle cx="1079.95" cy="284.91" r="1.62" opacity=".31"/>
            <circle cx="823.53" cy="103.42" r="1.62" opacity=".31"/>
            <circle cx="807.03" cy="522.88" r="1.62" opacity=".31"/>
            <circle cx="1141.68" cy="472.39" r="1.62" opacity=".31"/>
            <circle cx="1166.28" cy="103.42" r="1.62" opacity=".31"/>
            <circle cx="1255.61" cy="80.12" r="1.62" opacity=".31"/>
            <circle cx="1095.5" cy="197.27" r="2.34" opacity=".31"/>
            <circle cx="1066.19" cy="196.55" r="1.98" opacity=".31"/>
            <circle cx="1027.07" cy="203.47" r="3.15" opacity=".31"/>
            <circle cx="729.76" cy="450.38" r="3.15" opacity=".31"/>
            <circle cx="1155.47" cy="153.48" r="2.79" opacity=".31"/>
            <circle cx="1243.59" cy="133.16" r="4.23" opacity=".31"/>
            <circle cx="1226.23" cy="58.8" r="1.62" opacity=".31"/>
            <circle cx="1209.87" cy="43.88" r="2.7" opacity=".31"/>
            <circle cx="1125.35" cy="19.78" r="1.98" opacity=".31"/>
            <circle cx="1044.59" cy="29.63" r="1.62" opacity=".31"/>
            <circle cx="966.11" cy="29.4" r="2.79" opacity=".31"/>
            <circle cx="986.34" cy="36.68" r="1.98" opacity=".31"/>
            <circle cx="977.26" cy="60.87" r="1.89" opacity=".31"/>
            <circle cx="1010.76" cy="87.07" r="1.35" opacity=".31"/>
            <circle cx="1013.05" cy="129.2" r="3.15" opacity=".31"/>
            <circle cx="961.17" cy="68.87" r="3.24" opacity=".31"/>
            <circle cx="904.7" cy="1.62" r="1.62" opacity=".31"/>
            <circle cx="854.35" cy="65.1" r="2.7" opacity=".31"/>
            <circle cx="807.39" cy="22.34" r="3.03" opacity=".31"/>
            <circle cx="882.23" cy="149.44" r="2.52" opacity=".31"/>
            <circle cx="947.86" cy="139.36" r="2.16" opacity=".31"/>
            <circle cx="964.23" cy="147.64" r="1.8" opacity=".31"/>
            <circle cx="967.19" cy="184.05" r="1.71" opacity=".31"/>
            <circle cx="884.92" cy="257.87" r="1.44" opacity=".31"/>
            <circle cx="830.44" cy="249.6" r="1.62" opacity=".31"/>
            <circle cx="913.16" cy="261.11" r="1.98" opacity=".31"/>
            <circle cx="919.72" cy="276.3" r="1.35" opacity=".31"/>
            <circle cx="802.83" cy="191.24" r="2.07" opacity=".31"/>
            <circle cx="863.07" cy="406.68" r="1.53" opacity=".31"/>
            <circle cx="908.93" cy="436.35" r="2.25" opacity=".31"/>
            <circle cx="969.44" cy="410" r="2.34" opacity=".31"/>
            <circle cx="842.84" cy="492.36" r="3.24" opacity=".31"/>
            <circle cx="837" cy="503.24" r="2.61" opacity=".31"/>
            <circle cx="846.26" cy="504.23" r="1.62" opacity=".31"/>
            <circle cx="886.63" cy="502.34" r="2.97" opacity=".31"/>
            <path d="M1137.59 260.88c-.23 0 1.64 4.13 1.65 6a1.83 1.83 0 0 1-1 1.67c-2.15 1.33-4.55 2.56-4.45 2.88.1.32 3.38-1.12 5.44-1.25 1.21-.08 1.77.14 2.27.79 1.36 1.77 2.88 5.18 3.4 5 .28-.07-1.15-3.37-1.56-6.13a1.94 1.94 0 0 1 .84-1.93c1.83-1.34 4.9-2.56 4.86-3-.04-.44-3.55 1.08-5.82 1.32a2.82 2.82 0 0 1-2.16-.43c-.88-.8-2.98-4.98-3.47-4.92zM698.46 255.53c-.25.09 2.79 4.1 3.24 6.13a2 2 0 0 1-.64 2.05c-2 2-4.34 3.88-4.16 4.21.18.33 3.42-2 5.63-2.67 1.3-.37 2-.27 2.67.32 1.91 1.6 4.39 5 4.92 4.68.29-.15-2.06-3.39-3.18-6.31a2.17 2.17 0 0 1 .45-2.31c1.68-1.9 4.73-4 4.58-4.45-.15-.45-3.62 2-6 2.84a3.15 3.15 0 0 1-2.46.05c-1.22-.62-4.51-4.73-5.05-4.54zM797 294.11c0 .18 3.38-.45 4.76-.1.512.11.92.496 1.06 1 .58 1.85 1 3.86 1.3 3.85.3-.01-.2-2.73.09-4.28.17-.91.44-1.29 1-1.54 1.57-.68 4.4-1.17 4.39-1.58 0-.22-2.72.22-4.85 0a1.49 1.49 0 0 1-1.28-1c-.65-1.61-1-4.13-1.32-4.18-.32-.05.13 2.85-.12 4.58a2.17 2.17 0 0 1-.73 1.53c-.67.61-4.21 1.35-4.3 1.72zM662.4 211.12c0 .18 3.38-.45 4.76-.1.512.11.92.496 1.06 1 .58 1.85 1 3.86 1.3 3.85.3-.01-.2-2.73.09-4.28.17-.91.44-1.29 1-1.54 1.57-.68 4.4-1.17 4.39-1.58 0-.22-2.72.22-4.85 0a1.49 1.49 0 0 1-1.28-1c-.65-1.61-1-4.13-1.32-4.18-.32-.05.13 2.85-.12 4.58a2.17 2.17 0 0 1-.73 1.53c-.7.6-4.25 1.35-4.3 1.72zM639.7 243.86c0 .18 3.19-1.21 4.61-1.2a1.41 1.41 0 0 1 1.27.75c1 1.66 1.91 3.52 2.16 3.45.25-.07-.82-2.61-.9-4.19 0-.93.13-1.35.63-1.73 1.37-1 4-2.15 3.91-2.55-.05-.21-2.6.84-4.72 1.13a1.49 1.49 0 0 1-1.47-.67c-1-1.42-1.91-3.79-2.25-3.76-.34.03.79 2.74.95 4.48a2.17 2.17 0 0 1-.35 1.65c-.61.7-3.88 2.26-3.84 2.64zM746.07 176.79c.13.13 1.72-2.94 2.85-3.82a1.41 1.41 0 0 1 1.46-.21c1.82.68 3.69 1.55 3.84 1.34.15-.21-2.27-1.52-3.32-2.71-.62-.7-.75-1.14-.59-1.75.43-1.66 1.78-4.19 1.45-4.44-.18-.13-1.5 2.28-3 3.83a1.49 1.49 0 0 1-1.57.4c-1.67-.48-3.86-1.76-4.11-1.53-.25.23 2.33 1.64 3.54 2.91.447.38.721.925.76 1.51-.01.93-1.58 4.2-1.31 4.47zM855.34 229.35c.18 0-.24-3.4.19-4.76a1.41 1.41 0 0 1 1.09-1c1.88-.47 3.92-.8 3.93-1.06.01-.26-2.74 0-4.27-.36-.9-.23-1.26-.52-1.47-1.11-.58-1.61-.9-4.46-1.31-4.48-.22 0 .05 2.73-.29 4.85a1.49 1.49 0 0 1-1.07 1.21c-1.65.55-4.18.72-4.26 1.06-.08.34 2.85 0 4.57.4a2.17 2.17 0 0 1 1.48.82c.49.78 1.07 4.36 1.41 4.43zM911.16 277.83c.14 0-1.27-2.38-1.39-3.5a1.11 1.11 0 0 1 .47-1.07c1.21-.94 2.57-1.84 2.49-2-.08-.16-2 .9-3.2 1.12a1.35 1.35 0 0 1-1.42-.33c-.94-1-2.08-2.93-2.39-2.81-.31.12.92 2 1.35 3.59a1.18 1.18 0 0 1-.38 1.22c-1 .93-2.79 1.87-2.73 2.14.06.27 2.07-.89 3.42-1.18a1.71 1.71 0 0 1 1.33.11c.61.37 2.16 2.78 2.45 2.71zM818.58 542.87c.3.1.44-6 1.53-8.21a2.47 2.47 0 0 1 2.14-1.46c3.38-.34 7-.41 7.08-.85.11-.63-4.75-.64-7.31-1.69-1.5-.62-2.05-1.21-2.28-2.3-.6-2.94-.43-8-1.14-8.1-.38-.08-.6 4.74-1.73 8.33a2.61 2.61 0 0 1-2.15 1.84c-3 .54-7.44.21-7.65.77-.21.56 4.93.79 7.82 1.84a3.8 3.8 0 0 1 2.36 1.79c.65 1.48.75 7.83 1.33 8.04zM983.11 181.08c.19 0-.22-3.67.25-5.13a1.52 1.52 0 0 1 1.19-1.07c2-.49 4.23-.83 4.24-1.11.01-.28-2.95 0-4.6-.42-1-.25-1.35-.57-1.58-1.21-.61-1.74-.93-4.82-1.37-4.85-.24 0 0 2.94-.36 5.22a1.61 1.61 0 0 1-1.16 1.3c-1.79.58-4.52.75-4.6 1.11-.08.36 3.07.07 4.92.47a2.34 2.34 0 0 1 1.59.9c.52.85 1.08 4.71 1.48 4.79zM997.5 370.57c.15.09 1-3.1 1.8-4.15a1.34 1.34 0 0 1 1.31-.51c1.83.23 3.75.62 3.84.4.09-.22-2.43-.91-3.66-1.77-.72-.51-.94-.89-.93-1.49 0-1.63.73-4.26.37-4.42-.19-.09-.89 2.44-1.91 4.2a1.42 1.42 0 0 1-1.36.71c-1.65-.08-4-.78-4.14-.51-.14.27 2.51 1 3.91 1.91.484.26.844.703 1 1.23.2.83-.53 4.22-.23 4.4zM1179.44 402.56c.17 0 .09-3.24.62-4.48a1.34 1.34 0 0 1 1.12-.84c1.82-.27 3.78-.41 3.81-.65.03-.24-2.59-.22-4-.73-.83-.3-1.14-.6-1.29-1.18-.4-1.58-.44-4.3-.83-4.36-.21 0-.2 2.58-.72 4.56a1.42 1.42 0 0 1-1.12 1.05c-1.61.37-4 .31-4.12.62-.12.31 2.69.3 4.28.79a2.06 2.06 0 0 1 1.32.91c.39.75.59 4.21.93 4.31zM881.1 462c.13 0 .07-2.52.48-3.49a1 1 0 0 1 .87-.66c1.41-.21 2.94-.32 3-.5.06-.18-2-.17-3.11-.56-.65-.23-.89-.47-1-.92-.31-1.23-.34-3.34-.64-3.39-.3-.05-.15 2-.56 3.54a1.1 1.1 0 0 1-.87.82c-1.25.29-3.13.24-3.2.48-.07.24 2.09.23 3.33.62a1.6 1.6 0 0 1 1 .71c.28.57.43 3.25.7 3.35zM702.38 485.52c.13 0-.66-2.43-.55-3.48a1 1 0 0 1 .65-.88c1.29-.61 2.72-1.15 2.69-1.34-.03-.19-2 .42-3.14.36-.69 0-1-.19-1.23-.59-.66-1.08-1.3-3.1-1.6-3.06-.3.04.43 2 .49 3.55a1.1 1.1 0 0 1-.6 1c-1.12.64-2.92 1.13-2.93 1.39-.01.26 2.07-.38 3.36-.37a1.6 1.6 0 0 1 1.19.38c.48.52 1.39 3.04 1.67 3.04zM723.59 54.65c.13 0-.66-2.43-.55-3.48a1 1 0 0 1 .65-.88c1.29-.61 2.72-1.15 2.69-1.34-.03-.19-2 .42-3.14.36-.69 0-1-.19-1.23-.59-.66-1.08-1.3-3.1-1.6-3.06-.3.04.43 2 .49 3.55a1.1 1.1 0 0 1-.6 1c-1.12.64-2.92 1.13-2.93 1.39-.01.26 2.07-.38 3.36-.37a1.6 1.6 0 0 1 1.19.38c.48.53 1.39 3.05 1.67 3.04zM639.47 520a20 20 0 0 1 1.48-2.12.76.76 0 0 1 .79-.14 9.3 9.3 0 0 0 2.11.66c.11-.16-1.26-.79-1.85-1.41-.35-.37-.42-.6-.35-.94.21-.91.89-2.3.71-2.43-.18-.13-.77 1.26-1.55 2.13a.81.81 0 0 1-.84.24c-.92-.23-2.13-.89-2.26-.76-.13.13 1.29.85 2 1.52.25.2.41.492.44.81-.03.44-.83 2.29-.68 2.44zM705.16 562.25c.13 0-.59-2.37-.46-3.38a1 1 0 0 1 .64-.84 12.26 12.26 0 0 0 2.66-1.23c0-.26-1.92.36-3.05.28-.66 0-1-.21-1.18-.6-.61-1.06-1.19-3-1.48-3-.29 0 .38 1.92.4 3.45a1.07 1.07 0 0 1-.6 1c-1.1.59-2.86 1-2.87 1.28-.01.28 2-.32 3.27-.29a1.55 1.55 0 0 1 1.14.39c.43.48 1.26 2.94 1.53 2.94zM1178.71 570.27c.13 0-.59-2.37-.46-3.38a1 1 0 0 1 .64-.84 12.26 12.26 0 0 0 2.63-1.24c0-.26-1.92.36-3.05.28-.66 0-1-.21-1.18-.6-.61-1.06-1.19-3-1.48-3-.29 0 .38 1.92.4 3.45a1.07 1.07 0 0 1-.6 1c-1.1.59-2.86 1-2.87 1.28-.01.28 2-.32 3.27-.29a1.55 1.55 0 0 1 1.14.39c.46.49 1.29 2.95 1.56 2.95zM1155.18 107.3c.13 0-.59-2.37-.46-3.38a1 1 0 0 1 .64-.84 12.26 12.26 0 0 0 2.63-1.24c0-.26-1.92.36-3.05.28-.66 0-1-.21-1.18-.6-.61-1.06-1.19-3-1.48-3-.29 0 .38 1.92.4 3.45a1.07 1.07 0 0 1-.6 1c-1.1.59-2.86 1-2.87 1.28-.01.28 2-.32 3.27-.29a1.55 1.55 0 0 1 1.14.39c.46.5 1.29 2.95 1.56 2.95zM771.29 608.52c.08.1 1.52-1.9 2.41-2.41a1 1 0 0 1 1.06 0c.804.547 1.67.997 2.58 1.34.18-.19-1.45-1.31-2.07-2.26a1.23 1.23 0 0 1-.24-1.3c.47-1.13 1.69-2.78 1.48-3-.21-.22-1.29 1.46-2.5 2.41a1.07 1.07 0 0 1-1.15.12c-1.14-.51-2.55-1.64-2.75-1.5-.2.14 1.48 1.4 2.21 2.42.277.316.415.731.38 1.15-.12.66-1.57 2.82-1.41 3.03zM803.7 571.37c.12.06.48-2.39 1-3.25a1 1 0 0 1 .94-.48 12.26 12.26 0 0 0 2.91 0c.08-.25-1.89-.5-2.88-1.06-.58-.33-.77-.59-.81-1-.09-1.22.23-3.25 0-3.34-.23-.09-.48 1.89-1.12 3.29a1.07 1.07 0 0 1-1 .63c-1.24.07-3-.3-3.14-.08-.14.22 2 .57 3.07 1.14.39.155.7.462.86.85.23.61-.08 3.19.17 3.3zM884.51 23.9c.12.06.48-2.39 1-3.25a1 1 0 0 1 .94-.48 12.26 12.26 0 0 0 2.91 0c.08-.25-1.89-.5-2.88-1.06-.58-.33-.77-.59-.81-1-.09-1.22.23-3.25 0-3.34-.23-.09-.48 1.89-1.12 3.29a1.07 1.07 0 0 1-1 .63c-1.24.07-3-.3-3.14-.08-.14.22 2 .57 3.07 1.14.39.155.7.462.86.85.23.6-.08 3.18.17 3.3zM1260.86 458.38c.12.06.48-2.39 1-3.25a1 1 0 0 1 .94-.48 12.26 12.26 0 0 0 2.91 0c.08-.25-1.89-.5-2.88-1.06-.58-.33-.77-.59-.81-1-.09-1.22.23-3.25 0-3.34-.23-.09-.48 1.89-1.12 3.29a1.07 1.07 0 0 1-1 .63c-1.24.07-3-.3-3.14-.08-.14.22 2 .57 3.07 1.14.39.155.7.462.86.85.23.6-.08 3.18.17 3.3zM1147.91 512.54c.15 0-1.48-2.54-1.67-3.76a1.21 1.21 0 0 1 .46-1.19c1.28-1.08 2.73-2.12 2.63-2.33-.1-.21-2.11 1.07-3.44 1.36a1.48 1.48 0 0 1-1.57-.29c-1.07-1-2.4-3.11-2.73-3-.17.08 1.08 2.09 1.63 3.86a1.29 1.29 0 0 1-.36 1.35c-1.07 1.06-3 2.16-2.89 2.45.11.29 2.22-1.06 3.69-1.44a1.87 1.87 0 0 1 1.46.07c.67.44 2.47 3.01 2.79 2.92zM956.11 590.79c.21 0-.77-3.83-.48-5.44a1.61 1.61 0 0 1 1.09-1.29c2.07-.81 4.34-1.49 4.31-1.78-.03-.29-3.11.43-4.91.22-1.06-.13-1.51-.4-1.84-1-.9-1.75-1.68-4.94-2.14-4.91-.25 0 .46 3.1.38 5.55a1.71 1.71 0 0 1-1 1.54c-1.8.87-4.65 1.44-4.68 1.83-.03.39 3.25-.37 5.25-.22a2.49 2.49 0 0 1 1.8.71c.64.77 1.79 4.77 2.22 4.79z" opacity=".31"/>
            <path d="M881.26 462.72c.19.08.58-3.87 1.4-5.28a1.61 1.61 0 0 1 1.47-.84c2.22-.05 4.59.08 4.66-.21.07-.29-3.07-.65-4.69-1.47-1-.48-1.28-.89-1.37-1.61-.25-1.95.11-5.22-.34-5.34-.24-.07-.62 3.07-1.54 5.35a1.71 1.71 0 0 1-1.5 1.09c-2 .2-4.86-.23-5 .13-.14.36 3.18.76 5 1.58a2.49 2.49 0 0 1 1.45 1.28c.34 1 .06 5.15.46 5.32zM906.09 336.5c.17 0-1.33-2.9-1.4-4.23a1.31 1.31 0 0 1 .63-1.23c1.49-1 3.16-2 3.09-2.22-.07-.22-2.38.92-3.85 1.09a1.6 1.6 0 0 1-1.65-.49c-1-1.22-2.25-3.61-2.62-3.49-.2.06.94 2.37 1.34 4.33a1.39 1.39 0 0 1-.53 1.41c-1.26 1-3.42 2-3.37 2.33.05.33 2.51-.9 4.12-1.15a2 2 0 0 1 1.56.23c.67.53 2.33 3.48 2.68 3.42zM726.19 544.53c.17 0-1.33-2.9-1.4-4.23a1.31 1.31 0 0 1 .63-1.23c1.49-1 3.16-2 3.09-2.22-.07-.22-2.38.92-3.85 1.09a1.6 1.6 0 0 1-1.65-.49c-1-1.22-2.25-3.61-2.62-3.49-.2.06.94 2.37 1.34 4.33a1.39 1.39 0 0 1-.53 1.41c-1.26 1-3.42 2-3.37 2.33.05.33 2.51-.9 4.12-1.15a2 2 0 0 1 1.56.23c.68.53 2.34 3.48 2.68 3.42zM887.22 400.33c.13-.05-1.59-2.15-1.87-3.23a1.1 1.1 0 0 1 .3-1.12c1-1.1 2.25-2.18 2.15-2.35-.1-.17-1.8 1.17-3 1.56a1.34 1.34 0 0 1-1.44-.11c-1.06-.82-2.47-2.57-2.75-2.42-.28.15 1.18 1.78 1.84 3.33.184.42.106.908-.2 1.25-.86 1.06-2.46 2.24-2.37 2.49.09.25 1.9-1.17 3.19-1.66a1.7 1.7 0 0 1 1.32-.08c.68.31 2.55 2.45 2.83 2.34zM912.75 352.11a24.13 24.13 0 0 1-2.5-1.86.92.92 0 0 1-.14-1c.389-.8.68-1.642.87-2.51-.19-.14-1 1.49-1.77 2.17-.45.4-.74.49-1.14.39-1.08-.28-2.74-1.16-2.9-.95-.16.21 1.49 1 2.51 1.94a1 1 0 0 1 .26 1c-.31 1.09-1.15 2.52-1 2.69.15.17 1.07-1.52 1.9-2.32a1.42 1.42 0 0 1 1-.5c.6.1 2.74 1.13 2.91.95zM1057.44 584c.15 0-.7-2.69-.57-3.84a1.15 1.15 0 0 1 .72-1c1.43-.66 3-1.24 3-1.45 0-.21-2.19.44-3.47.36-.76 0-1.09-.22-1.35-.67-.71-1.2-1.39-3.44-1.73-3.39-.18 0 .45 2.18.5 3.92a1.21 1.21 0 0 1-.67 1.13c-1.24.69-3.24 1.22-3.25 1.5-.01.28 2.29-.4 3.72-.37.477-.04.95.115 1.31.43.5.59 1.48 3.38 1.79 3.38zM1095.75 649.42c.15 0-.7-2.69-.57-3.84a1.15 1.15 0 0 1 .72-1c1.43-.66 3-1.24 3-1.45 0-.21-2.19.44-3.47.36-.76 0-1.09-.22-1.35-.67-.71-1.2-1.39-3.44-1.73-3.39-.18 0 .45 2.18.5 3.92a1.21 1.21 0 0 1-.67 1.13c-1.24.69-3.24 1.22-3.25 1.5-.01.28 2.29-.4 3.72-.37.477-.04.95.115 1.31.43.5.6 1.48 3.39 1.79 3.38zM1155.61 471.07c.24.18 2.07-5.24 3.68-7a2.32 2.32 0 0 1 2.34-.71c3.13.64 6.42 1.59 6.61 1.21.27-.53-4.1-1.91-6.11-3.57-1.18-1-1.51-1.66-1.41-2.7.28-2.82 1.84-7.29 1.24-7.61-.32-.17-1.87 4.11-3.89 7a2.46 2.46 0 0 1-2.45 1.05c-2.85-.36-6.76-1.9-7.1-1.45-.34.45 4.22 2.09 6.52 3.84a3.58 3.58 0 0 1 1.62 2.27c.17 1.6-1.56 7.31-1.05 7.67zM1048.16 562.48c.29.07-.11-5.63.71-7.84a2.32 2.32 0 0 1 1.88-1.56c3.14-.61 6.53-1 6.57-1.43 0-.6-4.52-.18-7-.94-1.47-.45-2-1-2.34-2-.83-2.71-1.11-7.44-1.78-7.51-.36 0-.14 4.51-.89 8a2.46 2.46 0 0 1-1.86 1.91c-2.77.77-7 .85-7.11 1.4-.11.55 4.7.31 7.5 1a3.58 3.58 0 0 1 2.37 1.47c.73 1.4 1.34 7.36 1.95 7.5zM1207 511.3c.23.11.94-4.62 2-6.27a1.94 1.94 0 0 1 1.82-.93c2.68.07 5.52.37 5.62 0 .1-.37-3.65-1-5.56-2-1.12-.63-1.49-1.15-1.56-2-.18-2.36.45-6.27-.09-6.45-.29-.1-.93 3.65-2.17 6.35a2.06 2.06 0 0 1-1.87 1.22c-2.4.13-5.84-.57-6.06-.15-.22.42 3.78 1.11 5.94 2.21a3 3 0 0 1 1.67 1.63c.34 1.18-.25 6.16.26 6.39zM779.3 489.48c.11-.07-1.86-1.7-2.32-2.65a1 1 0 0 1 .08-1.09c.77-1.21 1.69-2.42 1.56-2.57-.13-.15-1.45 1.41-2.47 2a1.27 1.27 0 0 1-1.35.15c-1.13-.57-2.75-1.93-3-1.74-.25.19 1.41 1.44 2.31 2.75a1.1 1.1 0 0 1 0 1.19c-.61 1.13-1.87 2.52-1.74 2.73.13.21 1.55-1.42 2.65-2.11a1.6 1.6 0 0 1 1.21-.31c.77.17 2.84 1.8 3.07 1.65zM679.26 525.67c.08-.11-2.33-1-3.09-1.68a1 1 0 0 1-.31-1c.3-1.4.74-2.86.58-2.95-.16-.09-.87 1.82-1.63 2.71-.44.52-.75.67-1.22.61-1.26-.14-3.25-.86-3.4-.6-.15.26 1.82.86 3.11 1.77a1.1 1.1 0 0 1 .46 1.1c-.17 1.27-.88 3-.68 3.17.2.17 1-1.87 1.75-2.9a1.6 1.6 0 0 1 1-.71c.71-.1 3.26.7 3.43.48zM1116.43 76.31c.08-.11-2.33-1-3.09-1.68a1 1 0 0 1-.31-1c.3-1.4.74-2.86.58-2.95-.16-.09-.87 1.82-1.63 2.71-.44.52-.75.67-1.22.61-1.26-.14-3.25-.86-3.4-.6-.15.26 1.82.86 3.11 1.77a1.1 1.1 0 0 1 .46 1.1c-.17 1.27-.88 3-.68 3.17.2.17 1-1.87 1.75-2.9a1.6 1.6 0 0 1 1-.71c.71-.1 3.26.7 3.43.48zM939.82 159c-.11.12 2.74 1.45 3.59 2.44.326.357.423.868.25 1.32-.54 1.68-1.26 3.42-1.06 3.55.2.13 1.29-2.13 2.33-3.13.61-.59 1-.73 1.57-.61 1.53.32 3.88 1.45 4.09 1.14.21-.31-2.13-1.27-3.61-2.55a1.36 1.36 0 0 1-.43-1.41c.37-1.54 1.45-3.58 1.22-3.8-.23-.22-1.4 2.18-2.5 3.34a2 2 0 0 1-1.34.75c-.84.03-3.88-1.26-4.11-1.04zM952.75 84c0 .16 3.08-.39 4.34-.07.487.093.877.46 1 .94.52 1.68.94 3.52 1.17 3.51.23-.01-.17-2.48.1-3.9.16-.83.4-1.17.93-1.4 1.43-.61 4-1 4-1.42 0-.2-2.48.19-4.42 0a1.36 1.36 0 0 1-1.16-.91c-.59-1.47-.88-3.76-1.19-3.81-.31-.05.11 2.59-.12 4.17a2 2 0 0 1-.67 1.39c-.73.5-3.94 1.15-3.98 1.5zM804.78 40.49c-.15.16 3.6 2 4.69 3.29.423.48.54 1.157.3 1.75-.77 2.21-1.77 4.47-1.48 4.67.29.2 1.75-2.79 3.14-4.09.81-.76 1.34-.94 2.08-.77 2 .46 5.1 2 5.39 1.59.15-.22-2.8-1.72-4.71-3.44a1.79 1.79 0 0 1-.54-1.87c.52-2 2-4.71 1.69-5-.31-.29-1.9 2.86-3.34 4.38a2.61 2.61 0 0 1-1.79 1c-1.14-.07-5.12-1.84-5.43-1.51zM855.19 71.93c-.11.08 2 1.61 2.51 2.54.212.34.212.77 0 1.11-.71 1.27-1.56 2.56-1.43 2.69.13.13 1.38-1.51 2.38-2.15a1.28 1.28 0 0 1 1.36-.24c1.18.51 2.9 1.79 3.12 1.58.22-.21-1.52-1.37-2.5-2.64a1.12 1.12 0 0 1-.12-1.2c.54-1.18 1.74-2.66 1.6-2.87-.14-.21-1.48 1.54-2.55 2.29a1.62 1.62 0 0 1-1.2.39c-.7-.14-2.94-1.67-3.17-1.5zM656.25 8.32c0 .13 2.55-.18 3.57.15.386.108.677.426.75.82.35 1.41.6 2.94.79 2.94.19 0 0-2 .27-3.2.17-.67.39-.94.83-1.1 1.21-.44 3.34-.67 3.36-1 .02-.33-2 0-3.63-.22a1.12 1.12 0 0 1-.91-.8c-.41-1.24-.54-3.13-.79-3.19-.25-.06 0 2.13-.3 3.42a1.62 1.62 0 0 1-.61 1.11c-.58.38-3.28.75-3.33 1.07zM627.46 38.25c0 .18 3.58 0 5 .59.54.18.93.655 1 1.22.34 2 .53 4.17.8 4.2.27.03.19-2.87.72-4.45.31-.93.64-1.28 1.28-1.46 1.74-.48 4.75-.58 4.8-1 0-.23-2.86-.17-5.05-.7a1.57 1.57 0 0 1-1.19-1.22c-.44-1.78-.42-4.44-.77-4.55-.35-.11-.28 3-.78 4.75a2.28 2.28 0 0 1-1 1.48c-.91.47-4.71.75-4.81 1.14zM669.73 53.37a23.87 23.87 0 0 1 3 .83c.3.17.478.495.46.84a11.07 11.07 0 0 0 .08 2.63c.23.06.39-1.72.86-2.63.28-.53.51-.71.92-.76 1.1-.13 2.94.1 3-.15.06-.25-1.72-.38-3-.91a1 1 0 0 1-.6-.85c-.1-1.12.17-2.74 0-2.84-.17-.1-.45 1.78-.93 2.81a1.4 1.4 0 0 1-.74.81c-.62.19-2.96 0-3.05.22zM779.36 83.09c0 .13 2.55-.09 3.56.27.38.12.659.446.72.84.3 1.42.5 3 .69 3 .19 0 0-2 .38-3.19.19-.67.42-.93.87-1.07 1.22-.39 3.36-.56 3.39-.86.03-.3-2 0-3.62-.35a1.12 1.12 0 0 1-.88-.83c-.37-1.25-.43-3.15-.68-3.21-.25-.06-.11 2.13-.42 3.41a1.62 1.62 0 0 1-.65 1.08c-.61.32-3.3.63-3.36.91zM802.34 209.8c0 .14 2.45-.72 3.51-.63.4.022.754.27.91.64.64 1.3 1.22 2.74 1.41 2.7.19-.04-.46-2-.43-3.18 0-.7.17-1 .57-1.26 1.08-.69 3.12-1.38 3.07-1.68-.05-.3-2 .48-3.59.57a1.12 1.12 0 0 1-1.06-.58c-.67-1.12-1.21-2.94-1.46-2.94s.43 2.09.45 3.4a1.62 1.62 0 0 1-.36 1.21c-.5.49-3.03 1.47-3.02 1.75zM761.58 60.2c.07.12 1.78-1.83 2.75-2.27a1.05 1.05 0 0 1 1.1.11c1.2.81 2.41 1.78 2.56 1.66.15-.12-1.38-1.51-1.93-2.56a1.28 1.28 0 0 1-.12-1.38c.61-1.13 2-2.73 1.85-3-.15-.27-1.5 1.39-2.85 2.26a1.12 1.12 0 0 1-1.21 0c-1.13-.65-2.5-2-2.72-1.84-.22.16 1.4 1.61 2.06 2.74.256.355.357.799.28 1.23-.19.71-1.91 2.85-1.77 3.05zM1161.29 97c.16.12 1.41-3.52 2.5-4.68a1.57 1.57 0 0 1 1.58-.47c2.11.44 4.32 1.09 4.45.84.13-.25-2.75-1.3-4.1-2.42-.79-.66-1-1.13-.94-1.83.2-1.9 1.26-4.9.86-5.12-.21-.12-1.27 2.76-2.64 4.71a1.66 1.66 0 0 1-1.66.7c-1.92-.25-4.54-1.3-4.78-1-.24.3 2.83 1.42 4.38 2.61a2.41 2.41 0 0 1 1.08 1.53c.12 1.04-1.02 4.9-.73 5.13zM958.32 625c.13.06.55-2.71 1.17-3.68a1.14 1.14 0 0 1 1.07-.54c1.57 0 3.23.21 3.29 0 .06-.21-2.14-.57-3.26-1.2-.65-.37-.87-.67-.91-1.18-.11-1.38.26-3.68-.06-3.78-.32-.1-.55 2.14-1.27 3.72a1.21 1.21 0 0 1-1.09.72c-1.41.07-3.42-.33-3.55-.08-.13.25 2.21.65 3.48 1.29.46.178.822.54 1 1 .2.73-.19 3.63.13 3.73zM1227.38 480.27c.13.06.55-2.71 1.17-3.68a1.14 1.14 0 0 1 1.07-.54c1.57 0 3.23.21 3.29 0 .06-.21-2.14-.57-3.26-1.2-.65-.37-.87-.67-.91-1.18-.11-1.38.26-3.68-.06-3.78-.32-.1-.55 2.14-1.27 3.72a1.21 1.21 0 0 1-1.09.72c-1.41.07-3.42-.33-3.55-.08-.13.25 2.21.65 3.48 1.29.46.178.822.54 1 1 .19.68-.15 3.59.13 3.73zM1022.66 392.87c.13.06.55-2.71 1.17-3.68a1.14 1.14 0 0 1 1.07-.54c1.57 0 3.23.21 3.29 0 .06-.21-2.14-.57-3.26-1.2-.65-.37-.87-.67-.91-1.18-.11-1.38.26-3.68-.06-3.78-.32-.1-.55 2.14-1.27 3.72a1.21 1.21 0 0 1-1.09.72c-1.41.07-3.42-.33-3.55-.08-.13.25 2.21.65 3.48 1.29.46.178.822.54 1 1 .2.68-.14 3.6.13 3.73zM1246.59 191.8c.18.05.07-3.56.64-4.94a1.47 1.47 0 0 1 1.23-.94c2-.31 4.16-.48 4.19-.74.03-.26-2.85-.22-4.41-.77-.92-.32-1.26-.65-1.43-1.29-.46-1.73-.52-4.73-.95-4.79-.23 0-.2 2.85-.75 5a1.56 1.56 0 0 1-1.22 1.17c-1.77.42-4.43.37-4.53.71-.1.34 3 .31 4.72.84a2.27 2.27 0 0 1 1.46 1c.46.86.67 4.64 1.05 4.75zM1120.81 44.81c.14 0 .08-2.76.53-3.82a1.14 1.14 0 0 1 1-.72c1.55-.23 3.22-.34 3.25-.55.03-.21-2.21-.19-3.41-.62-.71-.25-1-.51-1.1-1-.34-1.34-.37-3.67-.7-3.71-.18 0-.17 2.2-.62 3.88a1.21 1.21 0 0 1-1 .89c-1.37.31-3.43.26-3.51.52-.08.26 2.29.26 3.65.68.466.093.873.37 1.13.77.33.66.49 3.59.78 3.68zM997.77 22.35c.16 0 0-4.52.54-5.76a1.33 1.33 0 0 1 1.12-.83c1.81-.26 5.08-.35 5.12-.59.04-.24-3.89-.27-5.3-.78-.82-.3-1.13-.61-1.28-1.19-.39-1.57-.43-5.58-.81-5.64-.21 0-.2 3.87-.73 5.83-.15.52-.585.91-1.12 1-1.61.36-5.17.44-5.27.75-.1.31 3.84.16 5.42.65a2 2 0 0 1 1.31.91c.38.83.65 5.55 1 5.65zM1233 107.19c-.37.56 1.55 2.09 2.7 4.12a4.06 4.06 0 0 1 .3 3.69c-.7 2-2.57 4.59-2.16 5.2.41.61 3-2.16 4.32-2.9a4 4 0 0 1 4.25-.14c2.16 1.35 3.65 2.5 4.12 2.16.47-.34-1.82-3.24-2.57-4.39-.75-1.15-1.42-2-.54-3.65.88-1.65 3.51-4.86 3.11-5.47-.4-.61-3.24 2.16-5.27 3.44a3.31 3.31 0 0 1-3.58.27c-1.99-.71-4.42-2.74-4.68-2.33zM991.94 533.32c-.35.37.88 1.77 1.46 3.44a3.08 3.08 0 0 1-.3 2.81c-.79 1.39-2.53 3.08-2.31 3.59.22.51 2.56-1.21 3.61-1.59a3.06 3.06 0 0 1 3.19.47c1.43 1.3 2.39 2.35 2.78 2.16.39-.19-.93-2.66-1.33-3.62s-.8-1.65.09-2.79c.89-1.14 3.27-3.16 3.05-3.67-.22-.51-2.71 1.18-4.39 1.86a2.51 2.51 0 0 1-2.71-.28c-1.35-.81-2.89-2.65-3.14-2.38zM1216 412.48c-.35.37.88 1.77 1.46 3.44a3.08 3.08 0 0 1-.3 2.81c-.79 1.39-2.53 3.08-2.31 3.59.22.51 2.56-1.21 3.61-1.59a3.06 3.06 0 0 1 3.19.47c1.43 1.3 2.39 2.35 2.78 2.16.39-.19-.93-2.66-1.33-3.62s-.8-1.65.09-2.79c.89-1.14 3.27-3.16 3.05-3.67-.22-.51-2.71 1.18-4.39 1.86a2.51 2.51 0 0 1-2.71-.28c-1.35-.81-2.89-2.64-3.14-2.38zM798.13 620.36c.58.26 1.71-1.76 3.42-3.14a3.83 3.83 0 0 1 3.41-.82c2 .35 4.66 1.69 5.16 1.22s-2.47-2.5-3.36-3.58a3.8 3.8 0 0 1-.77-3.94c.93-2.22 1.77-3.77 1.38-4.16-.39-.39-2.74 2.19-3.69 3.05-.95.86-1.61 1.62-3.31 1.06s-5.06-2.53-5.56-2.06c-.5.47 2.5 2.69 4 4.38a3.12 3.12 0 0 1 .79 3.29c-.37 1.94-1.89 4.51-1.47 4.7zM989 322.53c-.42-.33-1.74 1.1-3.41 1.89a3.21 3.21 0 0 1-2.95 0c-1.53-.67-3.48-2.3-4-2-.52.3 1.53 2.53 2 3.58a3.19 3.19 0 0 1-.14 3.37c-1.19 1.63-2.19 2.73-1.95 3.13.24.4 2.67-1.25 3.62-1.77.95-.52 1.63-1 2.91-.21 1.28.79 3.63 3.06 4.14 2.78.51-.28-1.52-2.69-2.41-4.36a2.62 2.62 0 0 1 0-2.84c.78-1.54 2.53-3.34 2.19-3.57zM1163.19 186.54c-.05.49 1.72.83 3.16 1.75a3 3 0 0 1 1.44 2.32c.22 1.54-.1 3.86.37 4.12.47.26 1.24-2.44 1.82-3.36a3 3 0 0 1 2.72-1.54c1.86.14 3.22.38 3.41 0 .19-.38-2.29-1.48-3.17-2-.88-.52-1.59-.79-1.6-2.18-.01-1.39.62-4.36.15-4.61s-1.37 2.51-2.25 4a2.43 2.43 0 0 1-2.23 1.4c-1.51.23-3.79-.26-3.82.1zM1069.78 186.24c.6.36 2.1-1.73 4.15-3a4.23 4.23 0 0 1 3.85-.47c2.11.63 4.91 2.43 5.53 2 .62-.43-2.41-3.05-3.25-4.35a4.2 4.2 0 0 1-.36-4.42c1.29-2.32 2.41-3.93 2-4.4-.41-.47-3.28 2.07-4.44 2.9-1.16.83-2 1.58-3.77.75-1.77-.83-5.24-3.4-5.86-2.95-.62.45 2.42 3.26 3.86 5.3a3.45 3.45 0 0 1 .47 3.71c-.63 2.04-2.62 4.69-2.18 4.93zM1158.88 12.22c.17-.4-1.24-1.14-2.22-2.28a2.62 2.62 0 0 1-.63-2.32c.2-1.35 1.06-3.23.73-3.57-.33-.34-1.66 1.75-2.39 2.38a2.61 2.61 0 0 1-2.68.61c-1.54-.59-2.62-1.14-2.88-.87-.26.27 1.55 1.83 2.19 2.47.64.64 1.14 1.07.79 2.25-.35 1.18-1.63 3.52-1.3 3.85.33.33 1.79-1.77 2.92-2.83a2.14 2.14 0 0 1 2.24-.61c1.35.23 3.1 1.21 3.23.92zM955.43 36.79c-.38.52 1.41 2.06 2.44 4a3.89 3.89 0 0 1 .13 3.56c-.74 1.88-2.62 4.3-2.25 4.9.37.6 3-2 4.24-2.62a3.86 3.86 0 0 1 4.07 0c2 1.37 3.4 2.52 3.86 2.21.46-.31-1.63-3.17-2.3-4.29-.67-1.12-1.29-1.92-.39-3.51.9-1.59 3.53-4.53 3.17-5.12-.36-.59-3.18 2-5.16 3.11a3.17 3.17 0 0 1-3.43.13c-1.81-.72-4.11-2.75-4.38-2.37zM1094.85 32.68c.05-.66-4.44-1.71-6.38-2.89a4 4 0 0 1-2-3c-.35-2 .44-7.23-.2-7.55-.64-.32-2 5.37-2.74 6.62a3.94 3.94 0 0 1-3.57 2.13c-2.49-.13-4.3-.4-4.54.11-.24.51 3.1 1.9 4.27 2.53 1.17.63 2.14 1 2.19 2.86.05 1.86-1.05 8.11-.42 8.44.63.33 2.1-5.68 3.22-7.74a3.23 3.23 0 0 1 2.93-1.93c2.05-.33 7.2.9 7.24.42zM913.09 53.3c-.23-.39-3.14.83-4.69.95a2.71 2.71 0 0 1-2.32-.89c-1-1-2.65-4.17-3.13-4.1-.48.07 1.05 3.74 1.13 4.74a2.69 2.69 0 0 1-1.08 2.62c-1.43.92-2.54 1.49-2.47 1.88.07.39 2.47-.18 3.38-.31.91-.13 1.58-.3 2.36.71.78 1.01 2.66 4.91 3.14 4.84.48-.07-1.11-4-1.31-5.57a2.21 2.21 0 0 1 .85-2.24c.96-.93 4.31-2.35 4.14-2.63zM849.7 66.68c-.38-.54-2.57.94-4.82 1.29a4 4 0 0 1-3.49-1c-1.58-1.33-3.69-4.74-4.38-4.58-.69.16 1.3 4.34 1.54 5.77a3.94 3.94 0 0 1-1.34 3.94c-2 1.51-3.54 2.47-3.39 3 .15.53 3.59-.55 4.9-.83 1.31-.28 2.28-.62 3.52.76 1.24 1.38 3.54 4.52 4.23 4.36.69-.16-1.16-3.35-1.64-5.64a3.23 3.23 0 0 1 1-3.37c1.33-1.55 4.17-3.32 3.87-3.7zM828.37 196.19c.26-.5-1.7-1.58-2.83-3.14a3.36 3.36 0 0 1-.56-3c.4-1.7 2.16-4.61 1.77-5.07-.39-.46-2.75 2.62-3.75 3.34a3.34 3.34 0 0 1-3.49.5c-1.9-.91-3.23-1.72-3.59-1.4-.36.32 1.79 2.5 2.51 3.38.72.88 1.34 1.48.78 3s-2.06 4.41-1.67 4.87c.39.46 2.08-2.16 3.63-3.4a2.74 2.74 0 0 1 2.92-.55c1.68.38 4.1 1.83 4.28 1.47zM988.4 75.76c.19-.22-.67-1-1.05-2a1.78 1.78 0 0 1 .1-1.63c.42-.83 1.69-2.09 1.55-2.38-.14-.29-1.76 1-2.36 1.26a1.76 1.76 0 0 1-1.85-.18c-.86-.71-1.44-1.29-1.66-1.17-.22.12.61 1.51.86 2.05.25.54.5.93 0 1.61s-1.61 2-1.47 2.29c.14.29 1.34-.85 2.29-1.29a1.45 1.45 0 0 1 1.57.09c.82.46 1.88 1.51 2.02 1.35zM805.43 376.62c.12-.09-1.28-2.2-1.58-3.19a1.82 1.82 0 0 1 .25-1.65c.51-.8 3.14-3 2.9-3.2-.24-.2-3 1.79-3.61 2a1.8 1.8 0 0 1-1.87-.37 31 31 0 0 0-2.4-2.39c-.14.22 1.29 2.63 1.5 3.2.21.57.42 1-.13 1.64-.55.64-2.81 2.5-2.73 2.7.08.2 2.45-1.24 3.46-1.6a1.48 1.48 0 0 1 1.59.24c.79.52 2.45 2.75 2.62 2.62zM821.84 414.4c1.12-.94-.14-9.09.28-9.57.42-.48 3.69 9.13 4.7 9.24 1.01.11 8.5-.5 7.55 0-1.4.82-6.7 1.8-7.59 3.5-.89 1.7-1 5.83-1.54 7-.39.94-1.82-5.52-2.58-6-.76-.48-8.07-.93-7.57-1.69.5-.76 5.8-1.69 6.75-2.48z" opacity=".31"/>
            <circle cx="608.8" cy="10.58" r="1.88" opacity=".31"/>
            <circle cx="624.38" cy="22" r="1.16" opacity=".31"/>
            <circle cx="625.44" cy="36.6" r="1" opacity=".31"/>
            <circle cx="560.77" cy="28.74" r="2.87" opacity=".31"/>
            <circle cx="570.65" cy="60.81" r="1.59" opacity=".31"/>
            <circle cx="612.76" cy="63.35" r="1.55" opacity=".31"/>
            <circle cx="594.1" cy="84.99" r="3.04" opacity=".31"/>
            <circle cx="586.8" cy="124.65" r="1.82" opacity=".31"/>
            <circle cx="524.67" cy="157.85" r="2.31" opacity=".31"/>
            <circle cx="476.19" cy="127.99" r="2.58" opacity=".31"/>
            <circle cx="538.74" cy="246.56" r="1.59" opacity=".31"/>
            <circle cx="533" cy="273.57" r="5.09" opacity=".31"/>
            <circle cx="617.02" cy="249.66" r="2.18" opacity=".31"/>
            <circle cx="609.82" cy="325.29" r="4.1" opacity=".31"/>
            <circle cx="508.23" cy="357.13" r="2.51" opacity=".31"/>
            <circle cx="457.56" cy="305.15" r="3.24" opacity=".31"/>
            <circle cx="601.96" cy="427.09" r="1.65" opacity=".31"/>
            <circle cx="620.98" cy="433.16" r="1.78" opacity=".31"/>
            <circle cx="569.53" cy="476.56" r="1.72" opacity=".31"/>
            <circle cx="589.74" cy="525.57" r="1.59" opacity=".31"/>
            <circle cx="480.29" cy="552.46" r="2.18" opacity=".31"/>
            <circle cx="622.77" cy="578.15" r="1.98" opacity=".31"/>
            <circle cx="521.24" cy="615.47" r="1.12" opacity=".31"/>
            <circle cx="520.58" cy="607.15" r="2.58" opacity=".31"/>
            <circle cx="470.25" cy="617.98" r="1.78" opacity=".31"/>
            <circle cx="322.88" cy="606.42" r="1.59" opacity=".31"/>
            <circle cx="122.8" cy="584.43" r="1.59" opacity=".31"/>
            <circle cx="217.94" cy="567.5" r="2.73" opacity=".31"/>
            <circle cx="210.36" cy="588.28" r="1.85" opacity=".31"/>
            <circle cx="72.34" cy="467.76" r="1.85" opacity=".31"/>
            <circle cx="52.05" cy="143.13" r="1.85" opacity=".31"/>
            <circle cx="333.57" cy="72.11" r="1.85" opacity=".31"/>
            <circle cx="166.77" cy="543.98" r="1.94" opacity=".31"/>
            <circle cx="79.93" cy="614.79" r="2.64" opacity=".31"/>
            <circle cx="49.01" cy="563.27" r="4.32" opacity=".31"/>
            <circle cx="65.31" cy="523.9" r="2.64" opacity=".31"/>
            <circle cx="24.09" cy="508.22" r="3.17" opacity=".31"/>
            <circle cx="3.04" cy="457.05" r="1.85" opacity=".31"/>
            <circle cx="46.55" cy="442.78" r="2.91" opacity=".31"/>
            <circle cx="241.19" cy="505.67" r="4.49" opacity=".31"/>
            <circle cx="43.47" cy="297.02" r="1.59" opacity=".31"/>
            <circle cx="142.37" cy="314.73" r="2.73" opacity=".31"/>
            <circle cx="52.01" cy="278.97" r="3.79" opacity=".31"/>
            <circle cx="8.59" cy="310.23" r="4.23" opacity=".31"/>
            <circle cx="75.26" cy="259.24" r="1.85" opacity=".31"/>
            <circle cx="19.77" cy="229.3" r="5.2" opacity=".31"/>
            <circle cx="165.36" cy="236.25" r="2.82" opacity=".31"/>
            <circle cx="182" cy="281.59" r="1.59" opacity=".31"/>
            <circle cx="433.17" cy="103.81" r="1.59" opacity=".31"/>
            <circle cx="449.34" cy="514.68" r="1.59" opacity=".31"/>
            <circle cx="121.53" cy="465.23" r="1.59" opacity=".31"/>
            <circle cx="97.44" cy="103.81" r="1.59" opacity=".31"/>
            <circle cx="9.94" cy="80.99" r="1.59" opacity=".31"/>
            <circle cx="166.77" cy="195.74" r="2.29" opacity=".31"/>
            <circle cx="195.48" cy="195.03" r="1.94" opacity=".31"/>
            <circle cx="233.79" cy="201.82" r="3.08" opacity=".31"/>
            <circle cx="525.02" cy="443.67" r="3.08" opacity=".31"/>
            <circle cx="108.02" cy="152.85" r="2.73" opacity=".31"/>
            <circle cx="21.71" cy="132.94" r="4.14" opacity=".31"/>
            <circle cx="38.71" cy="60.11" r="1.59" opacity=".31"/>
            <circle cx="54.74" cy="45.49" r="2.64" opacity=".31"/>
            <circle cx="137.53" cy="21.88" r="1.94" opacity=".31"/>
            <circle cx="216.64" cy="31.53" r="1.59" opacity=".31"/>
            <circle cx="293.51" cy="31.31" r="2.73" opacity=".31"/>
            <circle cx="273.69" cy="38.44" r="1.94" opacity=".31"/>
            <circle cx="282.58" cy="62.13" r="1.85" opacity=".31"/>
            <circle cx="249.77" cy="87.8" r="1.32" opacity=".31"/>
            <circle cx="247.53" cy="129.07" r="3.08" opacity=".31"/>
            <circle cx="298.35" cy="69.97" r="3.17" opacity=".31"/>
            <circle cx="353.66" cy="4.09" r="1.59" opacity=".31"/>
            <circle cx="402.98" cy="66.27" r="2.64" opacity=".31"/>
            <circle cx="448.98" cy="24.39" r="2.97" opacity=".31"/>
            <circle cx="375.68" cy="148.88" r="2.47" opacity=".31"/>
            <circle cx="311.38" cy="139.02" r="2.11" opacity=".31"/>
            <circle cx="295.35" cy="147.12" r="1.76" opacity=".31"/>
            <circle cx="292.45" cy="182.79" r="1.67" opacity=".31"/>
            <circle cx="373.04" cy="255.1" r="1.41" opacity=".31"/>
            <circle cx="426.41" cy="247" r="1.59" opacity=".31"/>
            <circle cx="345.38" cy="258.27" r="1.94" opacity=".31"/>
            <circle cx="338.95" cy="273.16" r="1.32" opacity=".31"/>
            <circle cx="368.98" cy="192.14" r="2.03" opacity=".31"/>
            <circle cx="394.44" cy="400.86" r="1.5" opacity=".31"/>
            <circle cx="349.52" cy="429.93" r="2.2" opacity=".31"/>
            <circle cx="290.25" cy="404.12" r="2.29" opacity=".31"/>
            <circle cx="414.25" cy="484.79" r="3.17" opacity=".31"/>
            <circle cx="419.98" cy="495.45" r="2.55" opacity=".31"/>
            <circle cx="410.91" cy="496.42" r="1.59" opacity=".31"/>
            <circle cx="371.36" cy="494.57" r="2.91" opacity=".31"/>
            <path d="M125.54 258c.23 0-1.61 4-1.62 5.86a1.8 1.8 0 0 0 .94 1.64c2.1 1.3 4.45 2.5 4.36 2.82-.09.32-3.32-1.1-5.33-1.22-1.18-.07-1.73.14-2.22.78-1.33 1.73-2.83 5.08-3.33 4.94-.27-.07 1.12-3.3 1.53-6A1.9 1.9 0 0 0 119 265c-1.79-1.31-4.8-2.51-4.76-2.95.04-.44 3.48 1.05 5.71 1.29a2.77 2.77 0 0 0 2.11-.42c.94-.79 3-4.92 3.48-4.92zM555.68 252.81c.24.09-2.73 4-3.17 6a2 2 0 0 0 .63 2c2 1.92 4.25 3.8 4.08 4.12-.17.32-3.35-2-5.52-2.62-1.27-.37-1.92-.27-2.61.31-1.87 1.57-4.3 4.86-4.82 4.59-.28-.14 2-3.33 3.11-6.18a2.12 2.12 0 0 0-.44-2.26c-1.64-1.86-4.64-3.89-4.48-4.36.16-.47 3.54 2 5.91 2.78a3.09 3.09 0 0 0 2.41.05c1.15-.59 4.39-4.61 4.9-4.43zM459.12 290.6c0 .18-3.31-.44-4.67-.1a1.38 1.38 0 0 0-1 1c-.57 1.81-1 3.78-1.28 3.78s.19-2.67-.09-4.2c-.17-.89-.43-1.26-1-1.51-1.54-.67-4.31-1.15-4.3-1.55 0-.22 2.66.22 4.76 0a1.46 1.46 0 0 0 1.25-1c.64-1.58 1-4 1.3-4.1.3-.1-.13 2.79.11 4.49a2.12 2.12 0 0 0 .71 1.49c.69.58 4.16 1.33 4.21 1.7zM591 209.31c0 .18-3.31-.44-4.67-.1a1.38 1.38 0 0 0-1 1c-.57 1.81-1 3.78-1.28 3.78s.19-2.67-.09-4.2c-.17-.89-.43-1.26-1-1.51-1.54-.67-4.31-1.15-4.3-1.55 0-.22 2.66.22 4.76 0a1.46 1.46 0 0 0 1.25-1c.64-1.58 1-4 1.3-4.1.3-.1-.13 2.79.11 4.49a2.12 2.12 0 0 0 .71 1.49c.7.58 4.21 1.33 4.21 1.7zM613.24 241.38c0 .18-3.12-1.19-4.52-1.17a1.38 1.38 0 0 0-1.25.74c-1 1.63-1.87 3.45-2.11 3.38-.24-.07.8-2.56.88-4.1 0-.91-.12-1.33-.62-1.7-1.34-1-3.93-2.11-3.83-2.5.05-.21 2.54.82 4.63 1.1a1.46 1.46 0 0 0 1.44-.65c1-1.39 1.87-3.72 2.21-3.69.34.03-.77 2.68-.93 4.39a2.12 2.12 0 0 0 .35 1.62c.59.67 3.79 2.2 3.75 2.58zM509 175.68c-.13.12-1.69-2.88-2.79-3.74a1.38 1.38 0 0 0-1.43-.2c-1.78.66-3.61 1.52-3.76 1.31-.15-.21 2.23-1.49 3.25-2.65.6-.68.73-1.11.58-1.71-.42-1.63-1.74-4.1-1.42-4.35.32-.25 1.47 2.23 2.92 3.76.39.418.988.57 1.53.39 1.64-.47 3.78-1.73 4-1.49.22.24-2.28 1.61-3.47 2.85a2.12 2.12 0 0 0-.74 1.48c.1.88 1.64 4.09 1.33 4.35zM402 227.16c-.17 0 .23-3.33-.19-4.66a1.38 1.38 0 0 0-1.07-1c-1.84-.46-3.84-.79-3.85-1-.01-.21 2.68 0 4.18-.35.88-.22 1.23-.5 1.44-1.09.57-1.58.88-4.37 1.28-4.39.22 0-.05 2.67.29 4.75a1.46 1.46 0 0 0 1 1.19c1.62.54 4.1.71 4.17 1 .07.29-2.79 0-4.47.39a2.12 2.12 0 0 0-1.45.8c-.41.79-.95 4.3-1.33 4.36zM347.34 274.65c-.14 0 1.24-2.33 1.36-3.43a1.09 1.09 0 0 0-.46-1c-1.18-.92-2.52-1.81-2.44-2 .08-.19 1.92.88 3.13 1.09a1.33 1.33 0 0 0 1.39-.32c.92-1 2-2.87 2.34-2.76.34.11-.9 1.91-1.32 3.52-.12.435.024.9.37 1.19 1 .91 2.73 1.83 2.67 2.09-.06.26-2-.87-3.35-1.16-.43-.14-.9-.1-1.3.11-.59.38-2.11 2.74-2.39 2.67zM42.39 529.49c.41 0-1.79 7.52-1.33 10.72a3.19 3.19 0 0 0 2.07 2.64c4 1.74 8.47 3.26 8.39 3.83-.11.81-6.11-1.08-9.68-.78-2.1.17-3 .69-3.71 1.94-1.9 3.39-3.66 9.64-4.58 9.54-.5-.06 1.13-6.08 1.14-10.95a3.38 3.38 0 0 0-1.94-3.11c-3.49-1.84-9.09-3.18-9.12-4-.03-.82 6.39 1 10.36.8a4.91 4.91 0 0 0 3.61-1.28c1.4-1.53 3.93-9.34 4.79-9.35zM385.14 269.49c.41 0-1.94 7.41-1.55 10.59a3.16 3.16 0 0 0 2 2.66c4 1.81 8.32 3.41 8.23 4-.13.8-6-1.2-9.57-1-2.08.13-3 .61-3.72 1.84-2 3.32-3.84 9.47-4.75 9.35-.49-.07 1.25-6 1.37-10.82a3.35 3.35 0 0 0-1.85-3.12c-3.42-1.9-8.93-3.34-9-4.12-.07-.78 6.31 1.09 10.24 1a4.87 4.87 0 0 0 3.6-1.19c1.44-1.51 4.15-9.19 5-9.19zM276.86 179.89c-.19 0 .22-3.59-.25-5a1.49 1.49 0 0 0-1.16-1c-2-.48-4.15-.82-4.16-1.09-.01-.27 2.89 0 4.51-.42.95-.25 1.32-.56 1.55-1.19.6-1.71.91-4.72 1.34-4.75.23 0 0 2.88.35 5.11a1.57 1.57 0 0 0 1.14 1.27c1.75.57 4.43.73 4.5 1.08.07.35-3 .07-4.82.46a2.29 2.29 0 0 0-1.55.88c-.51.76-1.06 4.57-1.45 4.65zM262.76 365.5c-.14.09-.93-3-1.76-4.07a1.31 1.31 0 0 0-1.28-.5c-1.79.22-3.67.61-3.77.39-.1-.22 2.38-.89 3.59-1.74.71-.5.92-.87.91-1.46 0-1.59-.71-4.17-.36-4.33.19-.08.87 2.39 1.87 4.11a1.39 1.39 0 0 0 1.33.7c1.62-.07 3.88-.77 4.05-.5.17.27-2.46 1-3.83 1.87a2 2 0 0 0-1 1.2c-.17.83.55 4.15.25 4.33zM84.54 396.83c-.16 0-.08-3.17-.6-4.39a1.31 1.31 0 0 0-1.1-.83c-1.78-.26-3.7-.4-3.73-.63-.03-.23 2.54-.22 3.92-.71.81-.29 1.12-.59 1.27-1.16.4-1.54.43-4.21.81-4.27.2 0 .19 2.53.7 4.46.143.518.57.907 1.1 1 1.58.36 3.94.3 4 .6.06.3-2.63.29-4.19.77a2 2 0 0 0-1.3.89c-.35.81-.54 4.17-.88 4.27zM376.78 455c-.13 0-.06-2.47-.47-3.42a1 1 0 0 0-.85-.64 12.39 12.39 0 0 1-2.9-.49c0-.26 2-.17 3-.55.63-.23.87-.46 1-.9.31-1.2.34-3.27.63-3.32.29-.05.15 2 .55 3.47.102.41.435.723.85.8 1.23.28 3.06.23 3.14.47.08.24-2 .23-3.26.6a1.57 1.57 0 0 0-1 .69c-.28.62-.47 3.29-.69 3.29zM551.84 478.09c-.13 0 .65-2.38.54-3.4a1 1 0 0 0-.63-.86 12.39 12.39 0 0 1-2.63-1.31c0-.26 1.94.41 3.08.35.67 0 1-.19 1.2-.58.64-1.06 1.27-3 1.56-3 .29 0-.42 1.93-.48 3.48-.016.417.21.807.58 1 1.09.63 2.86 1.11 2.87 1.36.01.25-2-.37-3.29-.37a1.57 1.57 0 0 0-1.16.37c-.48.5-1.37 2.96-1.64 2.96zM531.06 56c-.13 0 .65-2.38.54-3.4a1 1 0 0 0-.63-.86 12.39 12.39 0 0 1-2.63-1.31c0-.26 1.94.41 3.08.35.67 0 1-.19 1.2-.58.64-1.06 1.27-3 1.56-3 .29 0-.42 1.93-.48 3.48-.016.417.21.807.58 1 1.09.63 2.86 1.11 2.87 1.36.01.25-2-.37-3.29-.37a1.57 1.57 0 0 0-1.16.37c-.46.54-1.36 2.96-1.64 2.96zM613.46 511.86a19.64 19.64 0 0 0-1.45-2.08.75.75 0 0 0-.77-.13 9.11 9.11 0 0 1-2.06.65c-.11-.16 1.23-.77 1.81-1.38.34-.36.42-.59.34-.92-.2-.89-.88-2.26-.7-2.38.18-.12.76 1.24 1.52 2.09a.79.79 0 0 0 .83.24c.9-.23 2.08-.87 2.21-.74.13.13-1.26.84-1.93 1.49-.245.194-.4.48-.43.79 0 .51.78 2.23.63 2.37zM549.12 553.25c-.13 0 .58-2.32.45-3.31a1 1 0 0 0-.63-.82 12 12 0 0 1-2.58-1.21c0-.25 1.88.35 3 .27.65 0 .93-.2 1.15-.59.6-1 1.16-3 1.45-2.93.29.07-.37 1.88-.39 3.38a1 1 0 0 0 .59 1c1.07.58 2.8 1 2.81 1.25.01.25-2-.32-3.2-.28a1.52 1.52 0 0 0-1.12.38c-.45.46-1.27 2.86-1.53 2.86zM85.26 561.11c-.13 0 .58-2.32.45-3.31a1 1 0 0 0-.63-.82 12 12 0 0 1-2.58-1.21c0-.25 1.88.35 3 .27.65 0 .93-.2 1.15-.59.6-1 1.16-3 1.45-2.93.29.07-.37 1.88-.39 3.38a1 1 0 0 0 .59 1c1.07.58 2.8 1 2.81 1.25.01.25-2-.32-3.2-.28a1.52 1.52 0 0 0-1.12.38c-.45.45-1.27 2.86-1.53 2.86zM108.31 107.62c-.13 0 .58-2.32.45-3.31a1 1 0 0 0-.63-.82 12 12 0 0 1-2.58-1.21c0-.25 1.88.35 3 .27.65 0 .93-.2 1.15-.59.6-1 1.16-3 1.45-2.93.29.07-.37 1.88-.39 3.38a1 1 0 0 0 .59 1c1.07.58 2.8 1 2.81 1.25.01.25-2-.32-3.2-.28a1.52 1.52 0 0 0-1.12.38c-.45.45-1.27 2.85-1.53 2.86zM484.34 598.58c-.08.1-1.49-1.87-2.36-2.36a1 1 0 0 0-1 0 12 12 0 0 1-2.53 1.32c-.18-.18 1.42-1.28 2-2.21a1.2 1.2 0 0 0 .23-1.27c-.46-1.11-1.65-2.73-1.45-2.93.2-.2 1.27 1.43 2.45 2.36a1 1 0 0 0 1.13.12c1.11-.5 2.5-1.61 2.7-1.47.2.14-1.45 1.37-2.17 2.37a1.52 1.52 0 0 0-.37 1.12c.11.63 1.53 2.74 1.37 2.95zM452.6 562.19c-.11.06-.47-2.34-1-3.18a1 1 0 0 0-.92-.47 12 12 0 0 1-2.85 0c-.07-.24 1.85-.49 2.82-1 .57-.32.75-.58.79-1 .09-1.2-.23-3.18 0-3.27.23-.09.47 1.85 1.1 3.22a1 1 0 0 0 .95.62c1.22.06 3-.29 3.07-.08.07.21-1.92.56-3 1.12a1.52 1.52 0 0 0-.85.83c-.17.57.13 3.09-.11 3.21zM373.44 25.91c-.11.06-.47-2.34-1-3.18a1 1 0 0 0-.92-.47 12 12 0 0 1-2.85 0c-.07-.24 1.85-.49 2.82-1 .57-.32.75-.58.79-1 .09-1.2-.23-3.18 0-3.27.23-.09.47 1.85 1.1 3.22a1 1 0 0 0 .95.62c1.22.06 3-.29 3.07-.08.07.21-1.92.56-3 1.12a1.52 1.52 0 0 0-.85.83c-.17.58.13 3.1-.11 3.21zM4.79 451.51c-.11.06-.47-2.34-1-3.18a1 1 0 0 0-.92-.47 12 12 0 0 1-2.85 0c-.07-.24 1.85-.49 2.82-1 .57-.32.75-.58.79-1 .09-1.2-.23-3.18 0-3.27.23-.09.47 1.85 1.1 3.22a1 1 0 0 0 .95.62c1.22.06 3-.29 3.07-.08.07.21-1.92.56-3 1.12a1.52 1.52 0 0 0-.85.83c-.16.57.1 3.09-.11 3.21zM115.43 504.56c-.15 0 1.45-2.49 1.64-3.68a1.19 1.19 0 0 0-.45-1.17c-1.25-1.06-2.67-2.08-2.58-2.28.09-.2 2.06 1 3.37 1.33a1.45 1.45 0 0 0 1.53-.29c1-1 2.35-3 2.67-2.91.32.09-1.06 2-1.59 3.78a1.26 1.26 0 0 0 .35 1.32c1 1 2.9 2.12 2.83 2.4-.07.28-2.18-1-3.61-1.41a1.83 1.83 0 0 0-1.43.07c-.66.41-2.42 2.93-2.73 2.84zM303.3 581.21c-.2 0 .75-3.75.47-5.33a1.58 1.58 0 0 0-1.07-1.27c-2-.79-4.25-1.46-4.22-1.75.03-.29 3 .42 4.81.21 1-.12 1.48-.39 1.8-1 .88-1.71 1.64-4.84 2.1-4.81.25 0-.45 3-.37 5.44a1.67 1.67 0 0 0 1 1.51c1.76.85 4.56 1.41 4.59 1.79.03.38-3.18-.36-5.14-.21a2.43 2.43 0 0 0-1.76.7c-.66.78-1.79 4.69-2.21 4.72zM352.3 332.12c-.16 0 1.3-2.84 1.37-4.14a1.29 1.29 0 0 0-.61-1.21c-1.46-1-3.1-2-3-2.17.1-.17 2.33.91 3.77 1.07a1.57 1.57 0 0 0 1.62-.48c1-1.19 2.21-3.53 2.56-3.42.19.06-.92 2.32-1.31 4.25a1.36 1.36 0 0 0 .52 1.38c1.24 1 3.35 2 3.3 2.28-.05.28-2.45-.88-4-1.13a2 2 0 0 0-1.53.22c-.72.52-2.35 3.41-2.69 3.35zM528.52 535.89c-.16 0 1.3-2.84 1.37-4.14a1.29 1.29 0 0 0-.61-1.21c-1.46-1-3.1-2-3-2.17.1-.17 2.33.91 3.77 1.07a1.57 1.57 0 0 0 1.62-.48c1-1.19 2.21-3.53 2.56-3.42.19.06-.92 2.32-1.31 4.25a1.36 1.36 0 0 0 .52 1.38c1.24 1 3.35 2 3.3 2.28-.05.28-2.45-.88-4-1.13a2 2 0 0 0-1.53.22c-.73.52-2.35 3.46-2.69 3.35zM370.79 394.65c-.13-.05 1.55-2.1 1.83-3.16a1.08 1.08 0 0 0-.3-1.1c-1-1.08-2.21-2.14-2.11-2.3.1-.16 1.76 1.14 2.91 1.53a1.32 1.32 0 0 0 1.41-.11c1-.8 2.42-2.52 2.69-2.37.27.15-1.16 1.75-1.8 3.26a1.14 1.14 0 0 0 .19 1.23c.84 1 2.41 2.19 2.32 2.44-.09.25-1.86-1.14-3.12-1.62a1.66 1.66 0 0 0-1.29-.08c-.63.29-2.46 2.38-2.73 2.28zM345.78 347.41a23.63 23.63 0 0 0 2.45-1.82.9.9 0 0 0 .13-.94 11 11 0 0 1-.86-2.46c.19-.14 1 1.46 1.73 2.13.44.39.73.48 1.12.38 1.06-.27 2.68-1.14 2.84-.93.16.21-1.46 1-2.45 1.9a1 1 0 0 0-.26 1c.31 1.07 1.13 2.47 1 2.63-.13.16-1.05-1.49-1.86-2.27a1.39 1.39 0 0 0-1-.49c-.62.04-2.67 1.04-2.84.87zM204 574.56c-.14 0 .69-2.63.56-3.76a1.12 1.12 0 0 0-.71-.94c-1.4-.65-3-1.21-2.92-1.42.08-.21 2.14.43 3.4.35.74 0 1.06-.22 1.32-.65.7-1.18 1.37-3.37 1.69-3.32.32.05-.45 2.13-.49 3.84-.017.468.24.902.66 1.11 1.21.68 3.17 1.19 3.18 1.46.01.27-2.24-.39-3.64-.37a1.73 1.73 0 0 0-1.28.42c-.46.55-1.42 3.28-1.77 3.28zM166.52 638.64c-.14 0 .69-2.63.56-3.76a1.12 1.12 0 0 0-.71-.94c-1.4-.65-3-1.21-2.92-1.42.08-.21 2.14.43 3.4.35.74 0 1.06-.22 1.32-.65.7-1.18 1.37-3.37 1.69-3.32.32.05-.45 2.13-.49 3.84-.017.468.24.902.66 1.11 1.21.68 3.17 1.19 3.18 1.46.01.27-2.24-.39-3.64-.37a1.73 1.73 0 0 0-1.28.42c-.5.55-1.47 3.28-1.77 3.28zM107.89 463.94c-.24.17-2-5.13-3.6-6.82a2.28 2.28 0 0 0-2.29-.7c-3.07.63-6.29 1.56-6.48 1.19-.27-.52 4-1.87 6-3.5 1.16-1 1.48-1.63 1.38-2.65-.27-2.76-1.8-7.14-1.22-7.46.31-.17 1.83 4 3.81 6.87a2.41 2.41 0 0 0 2.4 1c2.8-.35 6.62-1.86 7-1.42.38.44-4.13 2.05-6.39 3.76a3.51 3.51 0 0 0-1.59 2.23c-.22 1.56 1.48 7.14.98 7.5zM57.58 503.34c-.22.11-.92-4.52-2-6.14a1.9 1.9 0 0 0-1.78-.91c-2.62.07-5.41.36-5.51 0-.1-.36 3.58-.95 5.44-2 1.09-.62 1.46-1.13 1.52-2 .18-2.31-.44-6.14.09-6.32.28-.09.92 3.58 2.13 6.22a2 2 0 0 0 1.83 1.2c2.35.12 5.72-.56 5.94-.15.22.41-3.7 1.08-5.81 2.16a2.93 2.93 0 0 0-1.63 1.6c-.33 1.24.2 6.12-.22 6.34zM476.5 482c-.11-.07 1.82-1.67 2.27-2.6a1 1 0 0 0-.08-1.07 12.4 12.4 0 0 1-1.53-2.51c.17-.2 1.42 1.38 2.42 1.94a1.24 1.24 0 0 0 1.33.15c1.11-.56 2.69-1.89 2.92-1.7.23.19-1.39 1.41-2.26 2.69a1.08 1.08 0 0 0 0 1.17c.59 1.11 1.83 2.46 1.7 2.68-.13.22-1.52-1.4-2.59-2.06a1.57 1.57 0 0 0-1.18-.31c-.7.14-2.77 1.74-3 1.62zM574.49 517.42c-.08-.11 2.28-.93 3-1.65a1 1 0 0 0 .3-1 12.39 12.39 0 0 1-.57-2.89c.23-.12.86 1.78 1.6 2.66.43.51.74.65 1.19.6 1.23-.14 3.18-.84 3.33-.58.15.26-1.79.84-3.05 1.74a1.08 1.08 0 0 0-.45 1.08c.17 1.25.87 2.95.67 3.1-.2.15-.94-1.83-1.72-2.84a1.57 1.57 0 0 0-1-.7c-.64-.09-3.14.7-3.3.48zM146.27 77.25c-.08-.11 2.28-.93 3-1.65a1 1 0 0 0 .3-1 12.4 12.4 0 0 1-.57-2.89c.23-.12.86 1.78 1.6 2.66.43.51.74.65 1.19.6 1.23-.14 3.18-.84 3.33-.58.15.26-1.79.84-3.05 1.74a1.08 1.08 0 0 0-.45 1.08c.17 1.25.87 2.95.67 3.1-.2.15-.94-1.83-1.72-2.84a1.57 1.57 0 0 0-1-.7c-.64-.09-3.14.7-3.3.48zM151.13 386.09c-.3.07 0-5.75-.83-8a2.38 2.38 0 0 0-1.94-1.56c-3.22-.59-6.69-.94-6.73-1.37-.06-.61 4.61-.24 7.16-1.06 1.49-.48 2.07-1 2.36-2 .81-2.78 1-7.61 1.72-7.69.37 0 .2 4.6 1 8.13a2.51 2.51 0 0 0 1.93 1.93c2.84.75 7.13.78 7.28 1.34.15.56-4.8.38-7.65 1.16a3.66 3.66 0 0 0-2.4 1.54c-.73 1.33-1.28 7.42-1.9 7.58zM319.26 158.29c.11.12-2.69 1.42-3.52 2.39a1.25 1.25 0 0 0-.24 1.3c.53 1.64 1.23 3.35 1 3.47-.23.12-1.27-2.09-2.28-3.07-.6-.58-1-.71-1.53-.59-1.49.32-3.8 1.42-4 1.12-.2-.3 2.09-1.24 3.53-2.5a1.33 1.33 0 0 0 .42-1.38c-.36-1.51-1.42-3.51-1.2-3.72.22-.21 1.37 2.14 2.45 3.27.32.41.793.673 1.31.73.86 0 3.8-1.31 4.06-1.02zM306.6 84.78c0 .16-3-.38-4.25-.07a1.25 1.25 0 0 0-.94.92c-.51 1.65-.92 3.45-1.15 3.44-.23-.01.16-2.43-.1-3.82-.16-.81-.39-1.15-.91-1.37-1.4-.6-3.93-1-3.92-1.39 0-.2 2.43.19 4.33 0a1.33 1.33 0 0 0 1.13-.89c.57-1.44.86-3.69 1.16-3.73.3-.04-.11 2.54.12 4.08a1.93 1.93 0 0 0 .65 1.36c.68.46 3.84 1.14 3.88 1.47zM451.54 42.17c.15.16-3.52 1.93-4.6 3.22a1.66 1.66 0 0 0-.29 1.72c.73 2.16 1.7 4.4 1.45 4.57-.25.17-1.71-2.73-3.07-4-.8-.75-1.31-.92-2-.75-2 .45-5 1.95-5.28 1.56-.15-.21 2.74-1.68 4.62-3.37a1.75 1.75 0 0 0 .52-1.83c-.51-2-1.94-4.61-1.65-4.89.29-.28 1.86 2.8 3.3 4.27a2.55 2.55 0 0 0 1.75.94c1.05-.03 4.95-1.76 5.25-1.44zM402.16 73c.11.08-1.94 1.58-2.45 2.49a1 1 0 0 0 0 1.08 12.57 12.57 0 0 1 1.4 2.64c-.19.19-1.36-1.48-2.33-2.11a1.26 1.26 0 0 0-1.33-.23c-1.16.5-2.84 1.75-3.06 1.55-.22-.2 1.49-1.34 2.45-2.58a1.09 1.09 0 0 0 .12-1.18c-.53-1.16-1.71-2.61-1.56-2.81.15-.2 1.45 1.5 2.5 2.25a1.59 1.59 0 0 0 1.18.38c.66-.18 2.85-1.68 3.08-1.48zM597 10.65c0 .13-2.49-.17-3.49.14a1 1 0 0 0-.73.8 12.57 12.57 0 0 1-.78 2.88c-.27 0 0-2-.26-3.13-.17-.66-.38-.92-.81-1.08-1.18-.43-3.27-.66-3.29-1-.02-.34 2 0 3.55-.22a1.09 1.09 0 0 0 .89-.78c.4-1.21.53-3.07.78-3.12.25-.05 0 2.09.29 3.35.046.426.263.816.6 1.08.6.43 3.25.81 3.25 1.08zM583.83 54.78a23.38 23.38 0 0 0-2.9.82.89.89 0 0 0-.45.82c.075.857.048 1.72-.08 2.57-.22.06-.38-1.69-.85-2.58-.27-.52-.5-.7-.9-.75-1.08-.12-2.88.1-3-.15-.12-.25 1.69-.37 2.94-.89a.94.94 0 0 0 .59-.83c.1-1.1-.17-2.68 0-2.78.17-.1.44 1.75.91 2.75.123.35.383.635.72.79.63.2 2.92.01 3.02.23zM476.44 83.9c0 .13-2.5-.09-3.49.26a1 1 0 0 0-.7.83 12.57 12.57 0 0 1-.68 2.91c-.27 0 0-2-.37-3.12-.19-.65-.41-.91-.85-1.05-1.2-.39-3.29-.54-3.32-.84-.03-.3 2 0 3.54-.34a1.09 1.09 0 0 0 .86-.81c.36-1.22.43-3.09.67-3.15.24-.06.1 2.09.41 3.34.061.425.292.808.64 1.06.59.32 3.23.64 3.29.91zM369.46 210.31c0 .13-2.4-.71-3.44-.61a1 1 0 0 0-.89.62 12.57 12.57 0 0 1-1.38 2.65c-.26 0 .45-2 .42-3.11 0-.68-.17-1-.56-1.23-1.06-.67-3.05-1.35-3-1.64.05-.29 1.95.47 3.52.56a1.09 1.09 0 0 0 1-.57c.66-1.1 1.18-2.88 1.43-2.88s-.42 2-.44 3.33c-.05.428.077.857.35 1.19.53.46 3 1.38 2.99 1.69zM493.85 61.47c-.07.11-1.74-1.79-2.7-2.23a1 1 0 0 0-1.08.11 12.57 12.57 0 0 1-2.5 1.63c-.2-.17 1.36-1.48 1.9-2.51.3-.388.346-.915.12-1.35-.59-1.11-2-2.67-1.81-2.91.19-.24 1.46 1.36 2.79 2.21a1.09 1.09 0 0 0 1.19 0c1.11-.63 2.45-1.93 2.66-1.8.21.13-1.37 1.58-2 2.69a1.59 1.59 0 0 0-.28 1.21c.17.66 1.86 2.72 1.71 2.95zM102.32 97.54c-.16.12-1.38-3.45-2.45-4.58a1.53 1.53 0 0 0-1.54-.46c-2.07.43-4.23 1.07-4.36.82-.13-.25 2.7-1.27 4-2.38.78-.65 1-1.1.92-1.79-.19-1.86-1.23-4.8-.84-5 .21-.12 1.24 2.7 2.58 4.62.357.529.991.8 1.62.69 1.88-.24 4.45-1.27 4.68-1 .23.27-2.78 1.39-4.29 2.55a2.36 2.36 0 0 0-1.06 1.5c-.09 1 1.07 4.78.74 5.03zM301.14 614.75c-.13.06-.53-2.65-1.15-3.6a1.12 1.12 0 0 0-1-.53c-1.54 0-3.17.21-3.23 0-.06-.21 2.1-.55 3.19-1.17.64-.36.85-.66.89-1.16.11-1.35-.25-3.6.06-3.7.31-.1.53 2.1 1.24 3.64a1.18 1.18 0 0 0 1.07.7c1.38.07 3.35-.33 3.48-.08.13.25-2.17.63-3.41 1.26a1.72 1.72 0 0 0-1 .94c-.2.71.13 3.57-.14 3.7zM37.59 472.94c-.13.06-.53-2.65-1.15-3.6a1.12 1.12 0 0 0-1-.53c-1.54 0-3.17.21-3.23 0-.06-.21 2.1-.55 3.19-1.17.64-.36.85-.66.89-1.16.11-1.35-.25-3.6.06-3.7.31-.1.53 2.1 1.24 3.64a1.18 1.18 0 0 0 1.07.7c1.38.07 3.35-.33 3.48-.08.13.25-2.17.63-3.41 1.26a1.72 1.72 0 0 0-1 .94c-.21.76.13 3.57-.14 3.7zM238.11 387.34c-.13.06-.53-2.65-1.15-3.6a1.12 1.12 0 0 0-1-.53c-1.54 0-3.17.21-3.23 0-.06-.21 2.1-.55 3.19-1.17.64-.36.85-.66.89-1.16.11-1.35-.25-3.6.06-3.7.31-.1.53 2.1 1.24 3.64a1.18 1.18 0 0 0 1.07.7c1.38.07 3.35-.33 3.48-.08.13.25-2.17.63-3.41 1.26a1.72 1.72 0 0 0-1 .94c-.2.71.13 3.57-.14 3.7zM18.76 190.38c-.18 0-.07-3.49-.63-4.84a1.44 1.44 0 0 0-1.2-.92c-2-.31-4.07-.47-4.1-.73-.03-.26 2.79-.22 4.32-.75.9-.31 1.24-.64 1.4-1.27.45-1.7.51-4.63.93-4.69.22 0 .19 2.79.74 4.92a1.53 1.53 0 0 0 1.2 1.14c1.74.41 4.34.36 4.44.7.1.34-2.9.3-4.62.82a2.22 2.22 0 0 0-1.43 1c-.44.81-.67 4.52-1.05 4.62zM142 46.4c-.14 0-.07-2.7-.52-3.74a1.12 1.12 0 0 0-.94-.7c-1.52-.22-3.16-.34-3.18-.54-.02-.2 2.16-.19 3.34-.61.69-.25 1-.5 1.08-1 .34-1.32.37-3.59.69-3.64.32-.05.17 2.16.6 3.8.11.45.474.795.93.88 1.35.31 3.36.25 3.44.51.08.26-2.25.25-3.57.66a1.72 1.72 0 0 0-1.1.76c-.35.66-.51 3.53-.77 3.62zM262.5 24.4c-.16 0 0-4.43-.52-5.64a1.3 1.3 0 0 0-1.1-.82c-1.78-.25-5-.34-5-.58 0-.24 3.82-.26 5.19-.76.81-.29 1.11-.59 1.25-1.16.38-1.54.42-5.47.79-5.53.2 0 .2 3.79.72 5.71.14.52.57.91 1.1 1 1.57.35 5.06.43 5.16.73.1.3-3.76.15-5.31.64a2 2 0 0 0-1.28.89c-.39.79-.66 5.43-1 5.52zM32.09 107.5c.37.55-1.52 2.05-2.65 4a4 4 0 0 0-.26 3.64c.69 2 2.51 4.5 2.12 5.09-.39.59-3-2.12-4.23-2.84a4 4 0 0 0-4.17-.13c-2.12 1.32-3.57 2.45-4 2.12-.43-.33 1.79-3.17 2.51-4.3.72-1.13 1.39-1.92.53-3.57-.86-1.65-3.44-4.76-3-5.36.44-.6 3.06 2.14 5.06 3.4a3.24 3.24 0 0 0 3.51.26c1.94-.72 4.32-2.71 4.58-2.31zM351.8 604.22c.46.48-1.13 2.29-1.89 4.44a4 4 0 0 0 .38 3.63c1 1.8 3.27 4 3 4.64-.27.64-3.3-1.56-4.67-2.05a4 4 0 0 0-4.12.61c-1.85 1.68-3.08 3-3.6 2.8-.52-.2 1.2-3.44 1.71-4.68.51-1.24 1-2.13-.11-3.61s-4.23-4.08-3.94-4.73c.29-.65 3.5 1.52 5.67 2.41a3.24 3.24 0 0 0 3.5-.36c1.74-1.07 3.74-3.45 4.07-3.1zM268.21 524.91c.35.36-.86 1.73-1.43 3.37a3 3 0 0 0 .29 2.75c.78 1.37 2.48 3 2.26 3.52-.22.52-2.51-1.18-3.54-1.56a3 3 0 0 0-3.13.46c-1.4 1.27-2.34 2.31-2.73 2.12-.39-.19.91-2.61 1.3-3.55s.78-1.62-.08-2.74-3.21-3.09-3-3.59c.21-.5 2.65 1.15 4.3 1.83a2.46 2.46 0 0 0 2.65-.27c1.35-.8 2.9-2.6 3.11-2.34zM48.74 406.55c.35.36-.86 1.73-1.43 3.37a3 3 0 0 0 .29 2.75c.78 1.37 2.48 3 2.26 3.52-.22.52-2.51-1.18-3.54-1.56a3 3 0 0 0-3.13.46c-1.4 1.27-2.34 2.31-2.73 2.12-.39-.19.91-2.61 1.3-3.55s.78-1.62-.08-2.74-3.21-3.09-3-3.59c.21-.5 2.65 1.15 4.3 1.83a2.46 2.46 0 0 0 2.65-.27c1.37-.8 2.86-2.6 3.11-2.34z" opacity=".31"/>
            <circle cx="391.88" cy="691.7" r="2.91" opacity=".31"/>
            <path d="M429.87 645.74c-.16 0-.08-3.17-.6-4.39a1.31 1.31 0 0 0-1.1-.83c-1.78-.26-3.7-.4-3.73-.63-.03-.23 2.54-.22 3.92-.71.81-.29 1.12-.59 1.27-1.16.4-1.54.43-4.21.81-4.27.2 0 .19 2.53.7 4.46.143.518.57.907 1.1 1 1.58.36 3.94.3 4 .6.06.3-2.63.29-4.19.77a2 2 0 0 0-1.3.89c-.35.81-.54 4.18-.88 4.27zM453.22 712.85c-.24.17-2-5.13-3.6-6.82a2.28 2.28 0 0 0-2.29-.7c-3.07.63-6.29 1.56-6.48 1.19-.27-.52 4-1.87 6-3.5 1.16-1 1.48-1.63 1.38-2.65-.27-2.76-1.8-7.14-1.22-7.46.31-.17 1.83 4 3.81 6.87a2.41 2.41 0 0 0 2.4 1c2.8-.35 6.62-1.86 7-1.42.38.44-4.13 2.05-6.39 3.76a3.51 3.51 0 0 0-1.59 2.23c-.24 1.53 1.48 7.14.98 7.5zM394.07 655.46c.35.36-.86 1.73-1.43 3.37a3 3 0 0 0 .29 2.75c.78 1.37 2.48 3 2.26 3.52-.22.52-2.51-1.18-3.54-1.56a3 3 0 0 0-3.13.46c-1.4 1.27-2.34 2.31-2.73 2.12-.39-.19.91-2.61 1.3-3.55s.78-1.62-.08-2.74-3.21-3.09-3-3.59c.21-.5 2.65 1.15 4.3 1.83a2.46 2.46 0 0 0 2.65-.27c1.35-.8 2.86-2.6 3.11-2.34zM458 610.17c-.57.26-1.68-1.73-3.35-3.07a3.75 3.75 0 0 0-3.34-.8c-1.92.34-4.57 1.65-5.06 1.2-.49-.45 2.42-2.45 3.29-3.51a3.72 3.72 0 0 0 .76-3.86c-.91-2.17-1.73-3.69-1.36-4.07.37-.38 2.68 2.14 3.62 3 .94.86 1.57 1.58 3.24 1 1.67-.58 5-2.48 5.45-2 .45.48-2.45 2.63-3.92 4.29a3.06 3.06 0 0 0-.78 3.22c.45 1.9 1.91 4.43 1.45 4.6zM271.06 318.43c.41-.32 1.71 1.08 3.34 1.85a3.15 3.15 0 0 0 2.89 0c1.5-.66 3.4-2.25 3.9-2s-1.5 2.48-2 3.51a3.13 3.13 0 0 0 .14 3.3c1.17 1.59 2.14 2.68 1.91 3.06-.23.38-2.61-1.22-3.54-1.73-.93-.51-1.6-1-2.85-.21s-3.56 3-4.05 2.72c-.49-.28 1.48-2.63 2.36-4.27a2.57 2.57 0 0 0 0-2.78c-.69-1.45-2.4-3.21-2.1-3.45zM383.73 608.32c.41-.32 1.71 1.08 3.34 1.85a3.15 3.15 0 0 0 2.89 0c1.5-.66 3.4-2.25 3.9-2s-1.5 2.48-2 3.51A3.13 3.13 0 0 0 392 615c1.17 1.59 2.14 2.68 1.91 3.06-.23.38-2.61-1.22-3.54-1.73-.93-.51-1.6-1-2.85-.21s-3.56 3-4.05 2.72c-.49-.28 1.48-2.63 2.36-4.27a2.57 2.57 0 0 0 0-2.78c-.69-1.47-2.4-3.23-2.1-3.47z" opacity=".31"/>
            <circle cx="190.26" cy="695.67" r="1.59" opacity=".31"/>
            <path d="M170.68 670.46c-.2 0 .75-3.75.47-5.33a1.58 1.58 0 0 0-1.07-1.27c-2-.79-4.25-1.46-4.22-1.75.03-.29 3 .42 4.81.21 1-.12 1.48-.39 1.8-1 .88-1.71 1.64-4.84 2.1-4.81.25 0-.45 3-.37 5.44a1.67 1.67 0 0 0 1 1.51c1.76.85 4.56 1.41 4.59 1.79.03.38-3.18-.36-5.14-.21a2.43 2.43 0 0 0-1.76.7c-.66.78-1.78 4.69-2.21 4.72zM168.52 704c-.13.06-.53-2.65-1.15-3.6a1.12 1.12 0 0 0-1-.53c-1.54 0-3.17.21-3.23 0-.06-.21 2.1-.55 3.19-1.17.64-.36.85-.66.89-1.16.11-1.35-.25-3.6.06-3.7.31-.1.53 2.1 1.24 3.64a1.18 1.18 0 0 0 1.07.7c1.38.07 3.35-.33 3.48-.08.13.25-2.17.63-3.41 1.26a1.72 1.72 0 0 0-1 .94c-.2.7.13 3.57-.14 3.7zM219.18 693.47c.46.48-1.13 2.29-1.89 4.44a4 4 0 0 0 .38 3.63c1 1.8 3.27 4 3 4.64-.27.64-3.3-1.56-4.67-2.05a4 4 0 0 0-4.12.61c-1.85 1.68-3.08 3-3.6 2.8-.52-.2 1.2-3.44 1.71-4.68.51-1.24 1-2.13-.11-3.61s-4.23-4.08-3.94-4.73c.29-.65 3.5 1.52 5.67 2.41a3.24 3.24 0 0 0 3.5-.36c1.74-1.07 3.74-3.45 4.07-3.1zM251.11 697.58c.41-.32 1.71 1.08 3.34 1.85a3.15 3.15 0 0 0 2.89 0c1.5-.66 3.4-2.25 3.9-2s-1.5 2.48-2 3.51a3.13 3.13 0 0 0 .14 3.3c1.17 1.59 2.14 2.68 1.91 3.06-.23.38-2.61-1.22-3.54-1.73-.93-.51-1.6-1-2.85-.21s-3.56 3-4.05 2.72c-.49-.28 1.48-2.63 2.36-4.27a2.57 2.57 0 0 0 0-2.78c-.69-1.46-2.4-3.22-2.1-3.45zM100.46 185.23c.05.48-1.69.81-3.1 1.72a2.92 2.92 0 0 0-1.36 2.27c-.22 1.5.1 3.78-.36 4-.46.22-1.21-2.39-1.78-3.29a2.9 2.9 0 0 0-2.66-1.51c-1.83.14-3.16.37-3.34 0-.18-.37 2.24-1.45 3.1-1.93.86-.48 1.56-.77 1.56-2.14s-.61-4.27-.15-4.52c.46-.25 1.34 2.46 2.2 4a2.38 2.38 0 0 0 2.19 1.37c1.44.16 3.67-.32 3.7.03zM104.69 14.48c-.17-.39 1.22-1.11 2.18-2.24a2.57 2.57 0 0 0 .62-2.28c-.2-1.33-1-3.16-.72-3.49.28-.33 1.63 1.71 2.34 2.33a2.55 2.55 0 0 0 2.63.6c1.51-.58 2.57-1.11 2.82-.85.25.26-1.56 1.8-2.13 2.45-.57.65-1.12 1-.78 2.2.34 1.2 1.6 3.45 1.27 3.78-.33.33-1.76-1.73-2.86-2.78a2.1 2.1 0 0 0-2.19-.6c-1.31.2-3.06 1.17-3.18.88zM304 38.54c.37.51-1.38 2-2.39 4a3.81 3.81 0 0 0-.12 3.49c.73 1.84 2.56 4.21 2.21 4.8-.35.59-2.92-1.92-4.15-2.57a3.78 3.78 0 0 0-4 0c-2 1.34-3.33 2.47-3.78 2.17-.45-.3 1.6-3.1 2.25-4.2.65-1.1 1.26-1.88.38-3.44s-3.46-4.43-3.1-5c.36-.57 3.11 1.91 5.06 3a3.1 3.1 0 0 0 3.36.13c1.77-.76 3.98-2.75 4.28-2.38zM167.4 34.52c-.05-.64 4.35-1.67 6.25-2.83a3.88 3.88 0 0 0 2-3c.34-2-.43-7.08.2-7.4.63-.32 2 5.26 2.68 6.48a3.86 3.86 0 0 0 3.5 2.09c2.44-.12 4.21-.39 4.45.11.24.5-3 1.86-4.19 2.48-1.19.62-2.1 1-2.15 2.8-.05 1.8 1 7.95.41 8.27-.59.32-2.11-5.52-3.21-7.52a3.17 3.17 0 0 0-2.87-1.89c-1.98-.33-7.03.89-7.07.41zM345.45 54.71c.23-.38 3.07.81 4.59.93a2.65 2.65 0 0 0 2.27-.87c1-1 2.59-4.09 3.06-4 .47.09-1 3.69-1.11 4.66a2.63 2.63 0 0 0 1.1 2.55c1.4.9 2.49 1.46 2.42 1.84-.07.38-2.42-.18-3.31-.3-.89-.12-1.55-.3-2.31.69s-2.61 4.81-3.08 4.74c-.47-.07 1.08-3.9 1.28-5.46a2.16 2.16 0 0 0-.83-2.19c-.97-.96-4.25-2.3-4.08-2.59zM344 197c-.25-.49 1.66-1.55 2.77-3.08.664-.85.87-1.97.55-3-.39-1.67-2.12-4.51-1.74-5 .38-.49 2.72 2.6 3.68 3.31a3.27 3.27 0 0 0 3.42.49c1.86-.9 3.16-1.69 3.51-1.37.35.32-1.76 2.45-2.46 3.31-.7.86-1.32 1.45-.76 2.89.56 1.44 2 4.32 1.63 4.77-.37.45-2-2.12-3.56-3.33a2.68 2.68 0 0 0-2.86-.54c-1.67.46-4.04 1.88-4.18 1.55zM271.68 76.71c-.19-.22.66-1 1-1.93a1.74 1.74 0 0 0-.09-1.59c-.41-.81-1.66-2-1.52-2.33.14-.33 1.72 1 2.31 1.23a1.73 1.73 0 0 0 1.82-.18c.84-.69 1.41-1.27 1.63-1.15.22.12-.59 1.48-.84 2s-.49.91 0 1.58 1.58 2 1.44 2.24c-.14.24-1.31-.83-2.25-1.26a1.42 1.42 0 0 0-1.54.09c-.79.43-1.83 1.46-1.96 1.3zM450.9 371.42c-.11-.09 1.26-2.15 1.55-3.13a1.78 1.78 0 0 0-.25-1.61c-.5-.78-3.07-3-2.84-3.14.23-.14 2.92 1.75 3.54 1.94a1.77 1.77 0 0 0 1.83-.36 30.4 30.4 0 0 1 2.35-2.34c.14.21-1.26 2.58-1.47 3.14-.21.56-.41 1 .13 1.61.54.61 2.75 2.45 2.67 2.64-.08.19-2.41-1.17-3.41-1.56a1.45 1.45 0 0 0-1.56.24c-.74.51-2.37 2.7-2.54 2.57zM434.82 408.43c-1.1-.92.14-8.9-.28-9.37-.42-.47-3.62 8.94-4.6 9.05-.98.11-8.32-.49-7.4 0 1.37.8 6.57 1.77 7.44 3.43.87 1.66 1 5.71 1.51 6.87.39.92 1.78-5.41 2.53-5.89.75-.48 7.9-.91 7.41-1.65-.49-.74-5.68-1.67-6.61-2.44zM431.67 129.84c-.78.81.88 6.91.6 7.31-.28.4-3.59-6.64-4.37-6.64-.78 0-6.43 1.11-5.76.61 1-.74 5-1.95 5.48-3.31.48-1.36.3-4.53.58-5.47.22-.75 1.85 4 2.48 4.36.63.36 6.22 0 5.91.64-.31.64-4.26 1.82-4.92 2.5z" opacity=".31"/>
        </g>
    </g>
</svg>
