<svg xmlns="http://www.w3.org/2000/svg" width="38" height="34" viewBox="0 0 38 34">
    <g fill="none" fill-rule="evenodd">
        <path fill="#DDE0E9" d="M32.79 4.08c.91 1.57 1.49 2.71 2.2 3.75a4 4 0 0 1 .85 3.11 6.48 6.48 0 0 0 .9 4.22 3 3 0 0 1-.12 3.4 4.8 4.8 0 0 0-.75 2.95 4.57 4.57 0 0 1-1.7 3.6c-1 .85-1.93 1.71-2.88 2.58a7.1 7.1 0 0 0-1.43 1.47 5.65 5.65 0 0 1-3.47 2.49A15 15 0 0 1 22 32.72a9.19 9.19 0 0 0-3.21.89 5.26 5.26 0 0 1-3 .3 13.08 13.08 0 0 0-2.57-.13 5.76 5.76 0 0 1-5.1-2.48 10.67 10.67 0 0 0-1.78-1.82 4.58 4.58 0 0 1-1.45-2.07 10.41 10.41 0 0 0-2.72-4.58A4.36 4.36 0 0 1 .9 19a4 4 0 0 0-.36-2.75c-1-1.53-.44-3 .25-4.4a10.82 10.82 0 0 1 1-1.48c.89-1.24 2.06-2.3 2.32-3.94.06-.36.5-.67.79-1C7.18 3.06 10.13 1.91 13.2 1c2.08.1 4-.6 6.06-.9a7 7 0 0 1 2.56.11 45.82 45.82 0 0 0 5.5 1.25.83.83 0 0 1 .48.16c1.44 1.47 3.52 1.71 4.99 2.46zM10.22 12c.108-.842.161-1.69.16-2.54a1.1 1.1 0 0 0-1.69-.96 4 4 0 0 0-2 4.56 1.21 1.21 0 0 0 2 .67A15.71 15.71 0 0 0 10.22 12zm4.88-6c1.16.26 2 .46 2.8.6a2.86 2.86 0 0 0 1-.06 1.38 1.38 0 0 0 1.15-1.44 1.36 1.36 0 0 0-1.47-1.16A4.45 4.45 0 0 0 15.1 6zm14.3 2.19a1.44 1.44 0 0 0-.54-1.58 1.85 1.85 0 0 0-2 .63 1.39 1.39 0 0 0 2.59.95h-.05zm-16.88 9.52a1.3 1.3 0 0 0 1.64-.71 1.2 1.2 0 0 0-.75-1.41c-.5-.07-1.3.39-1.33.94.058.42.208.824.44 1.18zm6.26-4.34a5.94 5.94 0 0 0 1.17-.89.93.93 0 0 0 0-.88c-.15-.2-.73-.35-.82-.25a3.82 3.82 0 0 0-.71 1.25c-.09.14.16.4.36.77zm-10.05 8.9a.66.66 0 0 0 0-.24 1.4 1.4 0 0 0-1.55-1 .34.34 0 0 0-.22.11.85.85 0 0 0-.17.46 1.3 1.3 0 0 0 1.55.94c.16.02.27-.17.39-.27zm18.42-2.38c-.42.26-.85.39-.89.59-.04.2.22.57.34.85.29-.14.69-.2.83-.43.14-.23-.14-.54-.29-1.01h.01zm-4.39.38c-.3-.36-.45-.71-.68-.77-.23-.06-.76.06-.82.23-.21.54.3.69.68.79.16.05.4-.12.81-.25h.01zm-5.86 5.24c.44-.34.9-.62.87-.7a2.86 2.86 0 0 0-.67-.89s-.51.23-.51.35c.058.423.162.84.31 1.24z"/>
        <path fill="#F5F6FB" d="M10.22 12a15.71 15.71 0 0 1-1.55 1.78 1.21 1.21 0 0 1-2-.67 4 4 0 0 1 2-4.56 1.1 1.1 0 0 1 1.69.92c.007.845-.04 1.69-.14 2.53zm-2 0h.24c.251-.3.485-.613.7-.94 0 0-.17-.29-.26-.29-.51 0-.7.38-.78.8.012.117.043.232.09.34l.01.09zM15.1 6a4.45 4.45 0 0 1 3.49-2.1 1.36 1.36 0 0 1 1.46 1.2 1.38 1.38 0 0 1-1.14 1.48 2.86 2.86 0 0 1-1 .06c-.84-.14-1.66-.35-2.81-.64zM29.4 8.19a1.39 1.39 0 0 1-2.59-.95 1.85 1.85 0 0 1 2-.63c.517.344.755.981.59 1.58zM12.52 17.71a2.89 2.89 0 0 1-.44-1.16c0-.56.83-1 1.33-.94a1.2 1.2 0 0 1 .75 1.39 1.3 1.3 0 0 1-1.64.71zM18.78 13.37c-.2-.37-.45-.63-.4-.77a3.82 3.82 0 0 1 .71-1.25c.09-.1.67.05.82.25a.93.93 0 0 1 0 .88 5.94 5.94 0 0 1-1.13.89zM8.73 22.27c-.12.11-.23.29-.36.3a1.3 1.3 0 0 1-1.55-.94.85.85 0 0 1 .18-.46.34.34 0 0 1 .22-.11 1.4 1.4 0 0 1 1.55 1 .67.67 0 0 1-.04.21zM27.14 19.89c.15.47.39.85.28 1-.11.15-.54.3-.83.43-.13-.29-.39-.6-.34-.85.05-.25.47-.32.89-.58zM22.75 20.27c-.41.14-.64.3-.82.26-.38-.1-.89-.26-.68-.79.07-.17.58-.3.82-.23.24.07.38.4.68.76zM16.9 25.51a5.86 5.86 0 0 1-.31-1.23c0-.12.47-.38.51-.35.28.25.507.552.67.89.03.06-.44.35-.87.69z"/>
        <path fill="#F5F6FB" d="M8.21 11.91a1.17 1.17 0 0 1-.09-.42c.08-.43.27-.8.78-.8.09 0 .28.26.26.29-.215.327-.449.64-.7.94 0 0-.17-.01-.25-.01z"/>
        <path fill="#D7DAE2" d="M35.88 21.5a4.8 4.8 0 0 1 .75-2.95 3 3 0 0 0 .12-3.4 7.83 7.83 0 0 1-.92-2.63c-3.94 12.93-14 21.45-29.15 13a56.79 56.79 0 0 1-5.35-3.72c.197.378.462.717.78 1a10.4 10.4 0 0 1 2.72 4.58 4.58 4.58 0 0 0 1.45 2.07 10.66 10.66 0 0 1 1.78 1.85 5.76 5.76 0 0 0 5.1 2.48 13.09 13.09 0 0 1 2.57.13 5.26 5.26 0 0 0 3-.3 9.18 9.18 0 0 1 3.27-.89 15 15 0 0 0 4.44-1.08 5.65 5.65 0 0 0 3.47-2.49 7.1 7.1 0 0 1 1.43-1.47c.95-.87 1.91-1.73 2.88-2.58a4.57 4.57 0 0 0 1.66-3.6z"/>
    </g>
</svg>
