<svg xmlns="http://www.w3.org/2000/svg" width="65" height="62" viewBox="0 0 65 62">
    <g fill="none" fill-rule="evenodd">
        <path fill="#DDE0E9" d="M64.77 37.42a32.46 32.46 0 0 1-2.54 3.3 7.07 7.07 0 0 0-2.18 4.53 19.19 19.19 0 0 1-.41 2.55 6.83 6.83 0 0 1-1.91 3.68 7.2 7.2 0 0 0-7.52 3.31 4.85 4.85 0 0 1-2.13 1.32 14.78 14.78 0 0 1-2.13.58 6.13 6.13 0 0 0-4.15 2.78c-1 1.77-2.65 2-4.47 1.76a9.35 9.35 0 0 1-1.08-.23 10.27 10.27 0 0 0-7.85.6 4.37 4.37 0 0 1-2.48.19c-1.2-.17-2.36-.64-3.57-.84-2.13-.36-4.12-1.49-6.45-.81a3.64 3.64 0 0 1-2.75-.79c-2-1.56-4.27-3-4.2-6.06a4 4 0 0 0-.79-2c-.52-.83-1.2-1.56-1.79-2.34-1-1.31-1.76-2.65-1.22-4.41A2.56 2.56 0 0 0 4 41.65c-1-.76-2-1.5-3.13-2.37 0-1.76.12-3.59 0-5.4-.12-1.81-1.29-3.48-.7-5.69.4-.27 1-.65 1.58-1.07 1.16-.84 2-1.79 1.33-3.4A2.43 2.43 0 0 1 3.8 21l2.59-2.7c-.24-4.46 2.71-7.5 5.4-10.66a2.14 2.14 0 0 1 .95-.54c3.54-1.17 6.51-3.41 9.7-5.22A7.61 7.61 0 0 1 27.33.65a8.71 8.71 0 0 0 2.54-.26c2.81-.48 5.59-.74 8.27.65a5 5 0 0 0 1.78.39c2.55.25 5.1.51 7.66.68a4.2 4.2 0 0 1 3.21 1.51 10.12 10.12 0 0 0 5.49 3.51 3.07 3.07 0 0 1 2.35 2.13c.79 2.69 2.06 5.26 2.15 8.12.07 2.2 1.13 4 2.22 5.75.32.52.77 1 1.09 1.48a3.82 3.82 0 0 1 .35 3.86 28.15 28.15 0 0 1-1.32 2.61 3.28 3.28 0 0 0 .16 4.09c.44.58.81 1.22 1.49 2.25z"/>
        <path fill="#D7DAE2" d="M1.51 39.23a8.46 8.46 0 0 1-1.05-1.74v1.69l2.59 2c-.5-.68-1.05-1.3-1.54-1.95zM62.68 31A28.16 28.16 0 0 0 64 28.36a3.82 3.82 0 0 0-.35-3.86c-.32-.52-.77-1-1.09-1.48-1.09-1.78-2.14-3.55-2.22-5.75-.09-2.86-1.36-5.43-2.15-8.12A3.06 3.06 0 0 0 55.88 7c0 .22 0 .44.05.66.07 2.2 1.13 4 2.22 5.75.32.52.77 1 1.09 1.48a3.82 3.82 0 0 1 .35 3.86 28.17 28.17 0 0 1-1.32 2.61 3.28 3.28 0 0 0 .16 4.09c.44.58.81 1.22 1.5 2.25a32.58 32.58 0 0 1-2.55 3.3 7.06 7.06 0 0 0-2.18 4.53 19.19 19.19 0 0 1-.41 2.55 6.84 6.84 0 0 1-1.92 3.68 7.2 7.2 0 0 0-7.52 3.31 4.85 4.85 0 0 1-2.13 1.32 14.78 14.78 0 0 1-2.13.58 6.13 6.13 0 0 0-4.15 2.78c-1 1.77-2.65 2-4.47 1.76a9.57 9.57 0 0 1-1.07-.27 10.27 10.27 0 0 0-7.85.6 4.37 4.37 0 0 1-2.48.19c-1.2-.17-2.36-.64-3.57-.84-2.13-.36-4.12-1.49-6.46-.81a3.64 3.64 0 0 1-2.75-.79c-1.43-1.12-3-2.18-3.74-3.82a5.84 5.84 0 0 0 1.38 3c.59.79 1.27 1.51 1.79 2.34a4 4 0 0 1 .79 2c-.07 3.07 2.21 4.5 4.2 6.06a3.64 3.64 0 0 0 2.75.79c2.34-.69 4.33.45 6.46.81 1.2.2 2.36.67 3.57.84a4.37 4.37 0 0 0 2.51-.16 10.27 10.27 0 0 1 7.85-.6c.351.11.708.2 1.07.27 1.82.27 3.48 0 4.47-1.76a6.13 6.13 0 0 1 4.15-2.78 14.78 14.78 0 0 0 2.1-.58 4.85 4.85 0 0 0 2.13-1.32 7.2 7.2 0 0 1 7.52-3.31 6.84 6.84 0 0 0 1.91-3.68c.194-.84.33-1.692.41-2.55a7.06 7.06 0 0 1 2.18-4.53 32.59 32.59 0 0 0 2.54-3.3c-.68-1-1.05-1.67-1.5-2.25a3.28 3.28 0 0 1-.15-4.06z"/>
        <path fill="#F5F6FB" fill-rule="nonzero" d="M20.21 7.62c-.34.23-.66.49-1 .74l-.29.23c.4-.31-.08 0-.16.1a1.82 1.82 0 0 0-.64 2.45 1.8 1.8 0 0 0 2.45.64c.34-.23.66-.49 1-.74l.29-.23c-.4.31.08 0 .16-.1a1.82 1.82 0 0 0 .64-2.45 1.8 1.8 0 0 0-2.45-.64zM11.64 17.38v.75a1.25 1.25 0 0 0 2.5 0v-.75a1.25 1.25 0 0 0-2.5 0zM26.13 15.65c-.41-.49-.16-.17-.08 0 .164.274.359.53.58.76a2.51 2.51 0 0 0 3.54 0 2.55 2.55 0 0 0 0-3.54c.41.49.16.17.08 0a4.23 4.23 0 0 0-.58-.76 2.51 2.51 0 0 0-3.54 0 2.55 2.55 0 0 0 0 3.54zM35.56 8a1.06 1.06 0 0 1-1-1 1.41 1.41 0 1 0 2.82 0 1.83 1.83 0 0 0-1.84-1.84 1.41 1.41 0 1 0 0 2.82l.02.02zM29 29.34l.43.43a2.17 2.17 0 1 0 3.07-3.07l-.43-.43A2.17 2.17 0 1 0 29 29.34zM12.64 27.69c0 .53.12 1 .13 1.57a1.31 1.31 0 0 0 2.62 0c0-.53-.12-1-.13-1.57a1.31 1.31 0 1 0-2.62 0zM9.39 40c-.147-.2-.177-.237-.09-.11l.31.39c.234.24.533.407.86.48a1.71 1.71 0 0 0 2.06-1.17 1.68 1.68 0 0 0-1.17-2.06c.733.667.98.84.74.52a5.12 5.12 0 0 0-.33-.42 1.68 1.68 0 0 0-2.37 0 1.71 1.71 0 0 0 0 2.37h-.01zM23.93 45.13a1.25 1.25 0 1 0 0-2.5 1.25 1.25 0 0 0 0 2.5zM40.64 43.88h.5a2.5 2.5 0 1 0 0-5h-.5a2.5 2.5 0 0 0 0 5zM40.59 27.78h.29c-.52 0-.07 0 0 0l.26.08c.43.14-.39-.19 0 0a2 2 0 0 0 2.67-.7 2 2 0 0 0-.7-2.67 6.12 6.12 0 0 0-2.54-.66 1.95 1.95 0 1 0 0 3.9l.02.05zM47.73 17l.2.22c-.33-.38-.07-.07 0 0s.2.36.29.54a2 2 0 0 0 2.73.71 2 2 0 0 0 .71-2.73 6.47 6.47 0 0 0-1.11-1.6A2.008 2.008 0 1 0 47.73 17zM51.62 26.24a26 26 0 0 0-2.18 2.69 2.07 2.07 0 0 0 .74 2.82A2.11 2.11 0 0 0 53 31l.41-.55c.14-.19.14-.18 0 0l.21-.26c.292-.37.602-.723.93-1.06a2.065 2.065 0 0 0-2.92-2.92l-.01.03zM41.54 13.46c-.26 1.19-.74 2.31-1 3.5-.17.79 1 1.12 1.2.33.26-1.19.74-2.31 1-3.5.17-.79-1-1.12-1.2-.33zM23.52 22.63a5 5 0 0 0 .33 2.07c.33.74 1.4.1 1.08-.63a3.61 3.61 0 0 1-.16-1.43.63.63 0 0 0-1.25 0v-.01zM23.7 34.82c.23.2.52.31.75.5.61.52 1.5-.36.88-.88-.23-.2-.52-.31-.75-.5-.61-.52-1.5.36-.88.88zM15.52 47.63a5.29 5.29 0 0 0 .58 2.07c.35.73 1.43.09 1.08-.63a3.75 3.75 0 0 1-.41-1.43c0-.8-1.28-.81-1.25 0v-.01zM36.45 39.44l-.75.75a.63.63 0 0 0 .88.88l.75-.75a.63.63 0 0 0-.88-.88zM33.27 48.88v.5a.63.63 0 0 0 1.25 0v-.5a.63.63 0 0 0-1.25 0zM49.39 45.25a.63.63 0 0 0 0-1.25.63.63 0 0 0 0 1.25zM56.64 42.75a.63.63 0 0 0 0-1.25.63.63 0 0 0 0 1.25z"/>
    </g>
</svg>
