<svg xmlns="http://www.w3.org/2000/svg" width="52" height="37" viewBox="0 0 52 37">
    <g fill="none" fill-rule="evenodd">
        <path fill="#DDE0E9" fill-rule="nonzero" d="M31.44 34.31S47 29.75 45.91 13.56c0 0-8.74-20.24-29.22-11.26-20.48 8.98-5.51 43.47 14.75 32.01zm2.42-17.11a2.68 2.68 0 0 1 4 .28c1.6 2.13-2.14 3.34-2.14 3.34-3.39.6-1.86-3.62-1.86-3.62zM15.77 9.87a3.37 3.37 0 0 1 5 .35c2 2.67-2.69 4.2-2.69 4.2-4.23.75-2.31-4.55-2.31-4.55z"/>
        <path stroke="#CFD4E2" d="M43.75 9.94s12.81 1.67 4.64 6c0 0-21.68 12.64-41.69 12.48 0 0-14.7 1.13 1.15-6.4"/>
    </g>
</svg>
