<svg xmlns="http://www.w3.org/2000/svg" width="540" height="427" viewBox="0 0 540 427">
    <g fill="none" fill-rule="evenodd" transform="translate(0 1)">
        <path fill="#FFF" fill-rule="nonzero" d="M337.233 246l-61.465 4.719-28.472 52.258s-13.191 18.114-9.72 42.152v51.56a6.318 6.318 0 0 1-2.432 5.923l-17.32 14.986s-10.415 9.062 3.13 8.364c0 0 23.617-3.14 30.56-9.407 0 0 5.905-.344 4.512-17.77l6.944-62.779a25.737 25.737 0 0 1 6.248-13.862l37.152-43.54 17.016 40.411s4.865 21.143 17.017 28.858l7.327 6.217 16.29 13.812 16.704 14.175c1.867 1.59 3.704 3.23 5.631 4.74 1.645 1.285 3.513 2.338 4.885 3.938 1.756 2.025.545 4.78.06 7.088-.251 1.205-.484 2.41-.736 3.625l-2.24 11.077-1.01 4.86c-.06.304-.575 1.702-.404 2.026 0 0 3.472 5.923 15.281-7.321 0 0 19.449-21.952 10.416-28.919l-54.865-56.085-6.247-6.268a29.574 29.574 0 0 1-5.208-13.933L337.233 246z"/>
        <path fill="#515872" fill-rule="nonzero" d="M337 214.864s12.1 1.306 13.416-4.18L358 158.456 347.52 142l-8.42 27.941-2.1 44.923z"/>
        <path fill="#DDE0E9" fill-rule="nonzero" d="M272 243.04s33.912 13.944 66.37-1.04l.63 5.896s.172 3.598-7.523 4.846c0 0-28.33 7.33-54.384 0 0 0-5.286-1.674-5.083-5.667l-.01-4.035z"/>
        <path fill="#35C4C4" fill-rule="nonzero" d="M385.967 250.03L373.45 248l-3.447 9.132s-2.257 3.836 0 4.709a4.96 4.96 0 0 0 4.858-3.318s-1.562 8.026.695 12.39c2.943 5.692 8.728 2.688 10.149-2.355a37.569 37.569 0 0 0 .262-18.529z"/>
        <path fill="#DDE0E9" fill-rule="nonzero" d="M387 245.349l-.694 3.882s-7.679 2.67-12.306-1.94l.159-4.291s4.022 5.484 12.841 2.349z"/>
        <path fill="#FFF" fill-rule="nonzero" d="M256.021 119.803l25.747-10.277 32.179-.526 33.746 8.009s13.045 2.086 21.399 18.113l22.794 46.859s7.483 13.233 2.265 32.916l-6.816 31.054s-9.051 3.827-13.743-2.44l4.176-46.859s-.344-1.397-3.307-6.622l-20.063-31.752c-1.133-1.782-4.713-10.702-6.654-9.021-1.366 1.185-2.225 6.46-2.468 8.05-.556 3.523-.91 7.087-1.406 10.61-.96 6.855-1.77 13.73-2.851 20.574l-2.225 14.054s2.265 29.433 3.479 35.184c0 0 .525 5.225-6.26 7.837 0 0-32.877 10.62-58.28-1.013 0 0-8.697-.87-7.483-10.975l-1.012-34.314-10.962-45.147s-.526-3.31-4.52.526l-24.18 17.588s-5.572 5.578-18.617 3.138l-64.024-14.975s-7.827-9.234 2.083-16.726l59.665 8.707c3.101.314 6.233.004 9.213-.91a22.773 22.773 0 0 0 7.756-3.777c3.934-3.038 6.918-7.938 10.184-11.705l6.947-7.999a25.378 25.378 0 0 1 13.238-8.18z"/>
        <path fill="#FFF" fill-rule="nonzero" d="M276.513 111S230.09 99.242 237.88 44.892c0 0 9.184-52.189 66.455-44.025 0 0 43.495 6.518 40.518 62.788 0 0-4.592 39.496-27.016 45.568L276.513 111z" opacity=".6"/>
        <path stroke="#272B3F" stroke-width=".5" d="M345 63.722s-4.596 39.432-27.04 45.494L276.548 111s-46.464-11.738-38.666-66M244 27.52c8.005-14.257 25.118-31.593 60.207-26.663 0 0 39.374 5.826 40.793 54.143M240 37a66.508 66.508 0 0 1 2-5"/>
        <path fill="#35C4C4" fill-rule="nonzero" d="M263.013 46.863c-.06 5.057.1 10.044.351 15.04.231 4.704.573 9.397 1.075 14.08s.642 9.286 2.31 13.655c2.862 7.526 9.48 11.127 17.293 10.226 0 0 16.59-1.83 24.223-19.805 0 0 16.16-2.498 6.84-17.518L314.692 44l-51.68 2.863z"/>
        <path fill="#272B3F" fill-rule="nonzero" d="M270.36 18.648a24.058 24.058 0 0 1 6.47-3.148 8.988 8.988 0 0 1 4.734-.323 4.087 4.087 0 0 1 3.14 3.249c.17 1.594-.859 3.026-1.666 4.418-.808 1.392-1.373 3.238-.394 4.51a3.493 3.493 0 0 0 2.019 1.13c3.401.806 6.792-1.01 10.093-2.31a36.675 36.675 0 0 1 10.73-2.523 17.662 17.662 0 0 1 9.234 1.332 11.822 11.822 0 0 1 6.329 11.248c-.192 2.4-1.13 4.882-.303 7.152.616 1.675 2.08 2.875 3.028 4.378a8.157 8.157 0 0 1 .303 8.07c-2.857 5.337-10.8 6.164-13.788 11.43-.746 1.311-1.12 2.824-2.018 4.035-.898 1.21-2.534 2.149-3.886 1.483-1.353-.666-1.625-2.149-1.575-3.51.182-4.873 4.32-9.08 3.846-13.972-.474-4.893-5.622-8.161-10.517-8.565-4.895-.403-9.69 1.241-14.494 2.27a30.548 30.548 0 0 1-11.345.615 15.687 15.687 0 0 1-9.76-5.316c-6.783-8.554 1.231-19.923 9.82-25.653z"/>
        <path fill="#35C4C4" fill-rule="nonzero" d="M287 95.346s5.67 8.862 5.823 13.654H307s-5.519-9.924-4.476-25L287 95.346z"/>
        <path fill="#DDE0E9" fill-rule="nonzero" d="M281.797 108.015h34.564c.918.047 1.754.573 2.233 1.403.479.83.538 1.858.157 2.743-.8 1.95-3.413 1.886-4.913 1.811l-23.299-.278c-2.633 0-5.186.096-7.79.289-1.874.14-3.748-.568-3.748-3.215a2.757 2.757 0 0 1 .806-2.05 2.447 2.447 0 0 1 1.99-.703z"/>
        <path fill="#CFD4E2" fill-rule="nonzero" d="M280.705 113h35.318s2.917 0 2.948 2.256c0 0 .74 3.132-5.218 2.704H281.84c-1.402-.172-2.539-1.173-2.836-2.5 0 0-.142-2.013 1.702-2.46z"/>
        <path fill="#F5F6FB" fill-rule="nonzero" d="M234.805 138c-.813 9.108 4.493 17.702 13.195 21.372L241.356 164S229.02 158.365 229 144.971l5.805-6.971z"/>
        <path fill="#DDE0E9" fill-rule="nonzero" d="M249 123.266c1.591 3.005 5.06 4.433 8.258 3.4 0 0 6.526-1.71 4.266-8.666l-8.106 3.04a28.122 28.122 0 0 0-4.418 2.226z" opacity=".5"/>
        <path fill="#F5F6FB" fill-rule="nonzero" d="M305.481 119.01L295 119l4.11 57.995 3.345 47.405 1.777 25.6H314l-2.303-28.033-2.85-45.154z"/>
        <path fill="#DDE0E9" fill-rule="nonzero" d="M290.92 145.132h23.411s6.392-1.905 6.392 8.772v21.548s2.76 9.944-9.151 10.515H293.66s-6.121 1.019-6.342-8.243l-1.254-23.82s-.994-7.54 4.857-8.772z"/>
        <path fill="#F5F6FB" fill-rule="nonzero" d="M291.599 153h22.299s2.91-.086 3.074 2.376c0 0 .533 2.624-3.074 2.624h-21.592c-1.433-.275-2.42-1.505-2.296-2.862-.01-.954.627-1.81 1.589-2.138zM292.599 162h22.299s2.91-.086 3.074 2.376c0 0 .533 2.624-3.074 2.624h-21.592c-1.433-.275-2.42-1.505-2.296-2.862-.01-.954.627-1.81 1.589-2.138zM293.92 174.063c.902-.17 1.84.007 2.599.49.757.482 1.27 1.228 1.418 2.067 0 0 .892 3.294-4.017 3.38-1.587-.32-2.768-1.552-2.916-3.045a2.627 2.627 0 0 1 .794-2.016 3.096 3.096 0 0 1 2.122-.876zM360 166.211s12.15.745 18.54-12.211l3.46 7.158s-5.22 9.322-18.37 10.842l-3.63-5.789z"/>
        <path fill="#DDE0E9" fill-rule="nonzero" d="M244.626 307s6.905 10.537 3.364 20.003c-1.668 5.124-5.859 8.936-10.99 9.997 0 0 0-16.304 7.626-30zM324 321.185s10.4-1.955 15.42 6.848c0 0 4.161 10.828-1.023 17.967 0-.01-8.845-5.655-14.397-24.815z"/>
        <path fill="#F5F6FB" fill-rule="nonzero" d="M237 369s12.905 3.153 22 1.13l-.494 4.254s-12.072 2.033-21.506-1.289V369z"/>
        <path fill="#DDE0E9" fill-rule="nonzero" d="M246.706 404.02s3.584-.426 4.255 2.683c0 0 .618 2.74-3.07 3.289 0 0-3.616.302-3.888-2.74-.064-1.52 1.066-2.87 2.703-3.232z"/>
        <path fill="#F5F6FB" fill-rule="nonzero" d="M380 381.149s11.536-5.892 14.556-16.149l3.444 3.525S396.382 378.85 383.355 384L380 381.149z"/>
        <path fill="#DDE0E9" fill-rule="nonzero" d="M403.91 386.284a3.538 3.538 0 0 1 2.985.096c.94.472 1.659 1.338 1.988 2.396.467 2.022-.478 4.824-2.596 5.177-1.072.178-2.163-.156-2.986-.915-.824-.758-1.3-1.865-1.301-3.032.003-1.51.723-2.914 1.91-3.722zM104 38.92l6.216-.92 17.65 122.562 17.853 115L149 297.54s-2.884 2.537-6.216.92l-14.052-94.022-15.061-100.806L104 38.92z"/>
        <path fill="#FFF" fill-rule="nonzero" d="M104.544 44.278s-26.106-4.17-49.035 19.798c0 0-25.954 21.44-51.152 3.354 0 0-7.059-5.237-3.207 7.422 0 0 13.965 40.644 14.974 56.485l1.784 9.809s1.09 5.126 18.412 3.555c0 0 26.479-2.266 41.443-19.698 0 0 17.877-17.855 37.237-10.141l-10.456-70.584z"/>
        <path fill="#35C4C4" fill-rule="nonzero" d="M114.464 154.794s-4.554-10.718 2.401-9.73c0 0 5.822 1 8.109 6.084 0 0 3.119 5.863-1.518 8.1 0 0-3.93 3.457-8.992-4.454z"/>
        <path fill="#35C4C4" fill-rule="nonzero" d="M145 143.616l-9.416-1.988-9.456-5.487c-1.716-.995-6.383 3.578-7.792 4.523-.593.397-.276 1.988 0 2.465 1.675 3.052 8.343-.487 7.986 4.155 0 0-.827 10.657 6.965 11.303 0 0 7.301 1.61 9.374-1.53l2.339-13.44z"/>
        <path fill="#FFF" fill-rule="nonzero" d="M274.73 85.553c-.794-1.788-1.456-4.882.927-4.742a5.4 5.4 0 0 1 1.763.563 6.239 6.239 0 0 0 3.789.603 12.301 12.301 0 0 0 2.76-1.286 4.733 4.733 0 0 1 4.197-.362c1.64.834 2.15 3.014 1.65 4.762a6.883 6.883 0 0 1-4.206 4.37c-2.004.719-4.2.719-6.204 0a8.522 8.522 0 0 1-4.136-2.944 5.503 5.503 0 0 1-.54-.964z"/>
        <path fill="#DDE0E9" fill-rule="nonzero" d="M349.667 124.98c.354.323.735.613 1.139.865 1.061.51 2.175.89 3.32 1.133 2.405.15 4.799-.456 6.874-1.74-7.327-7.301-13.612-8.238-13.612-8.238-1.296 3.851.962 6.713 2.279 7.98z" opacity=".5"/>
        <path fill="#E1709A" fill-rule="nonzero" d="M324.834 133.528s1.75-2.601 5.349-1.016c0 0 2.756 1.545 1.48 5.284 0 0-1.21 3.83-6.104 1.392-.02.01-2.95-2.55-.725-5.66z"/>
        <path fill="#DDE0E9" fill-rule="nonzero" d="M148 144.999l-4.602-.999c-3.29 4.086-4.262 9.42-2.604 14.3l5.102.7c-6.027-8.01 2.104-14.001 2.104-14.001z"/>
        <path fill="#FFF" fill-rule="nonzero" d="M348.27 199l-.266 1.25c-.024.127.07.25.228.298l1.522.452.24-1.144c.028-.123-.054-.244-.202-.298L348.27 199zM348.27 203l-.266 1.25c-.024.127.07.25.228.298l1.522.452.24-1.144c.028-.123-.054-.244-.202-.298L348.27 203zM348.27 207l-.266 1.25c-.024.127.07.25.228.298l1.522.452.24-1.144c.028-.123-.054-.244-.202-.298L348.27 207z" opacity=".5"/>
        <path stroke="#FFF" stroke-linecap="round" stroke-linejoin="round" stroke-width="1.2" d="M269 65s3.835-4.5 8 0M285 65s3.835-4.5 8 0"/>
        <path fill="#75EFD2" fill-rule="nonzero" d="M42.215 87.817c-.19.244-.26.564-.187.867l2.234 7.128a.993.993 0 0 0 .64.595l7.135 1.582a.97.97 0 0 0 .827-.272l4.921-5.545c.19-.243.26-.563.187-.866l-2.234-7.128a.993.993 0 0 0-.64-.595l-7.175-1.572a.97.97 0 0 0-.826.272l-4.882 5.534z"/>
        <path fill="#54C9F7" fill-rule="nonzero" d="M59.215 82.817c-.19.244-.26.564-.187.867l2.234 7.128a.993.993 0 0 0 .64.595l7.135 1.582a.97.97 0 0 0 .827-.272l4.921-5.545c.19-.243.26-.563.187-.866L72.7 79.188a.993.993 0 0 0-.64-.595l-7.136-1.582a.97.97 0 0 0-.826.272l-4.882 5.534z"/>
        <path fill="#A188ED" fill-rule="nonzero" d="M48.215 105.846c-.19.243-.259.562-.187.863l2.153 7.101a.991.991 0 0 0 .639.593l7.225 1.586a.97.97 0 0 0 .825-.27l4.915-5.525c.19-.242.259-.561.187-.863l-2.231-7.1a.991.991 0 0 0-.64-.593l-7.195-1.627a.97.97 0 0 0-.826.27l-4.865 5.565z"/>
        <path fill="#FCDC7A" fill-rule="nonzero" d="M65.215 100.85c-.19.242-.26.562-.187.864l2.234 7.105a.992.992 0 0 0 .64.593l7.135 1.577a.971.971 0 0 0 .827-.271l4.921-5.527c.19-.243.26-.562.187-.864l-2.234-7.146a.992.992 0 0 0-.64-.593l-7.135-1.577a.971.971 0 0 0-.827.271l-4.921 5.567z"/>
        <path fill="#F5F6FB" fill-rule="nonzero" d="M51.357 88.69a.52.52 0 0 0-.333.65l7.534 23.693c.115.297.355.528.655.63l8.33 2.317c.298.066.61-.035.815-.264l5.439-6.78c.185-.257.248-.585.17-.894L66.435 84.36a.513.513 0 0 0-.644-.336L51.357 88.69z"/>
        <rect width="13" height="22" x="56" y="89" fill="#627384" fill-rule="nonzero" rx=".94" transform="rotate(-17.79 62.5 100)"/>
        <path stroke="#272B3F" stroke-width=".5" d="M501 317.102c8.168-6.984 18.773-13.997 28.888-9.874 11.764 4.79 9.986 18.474 6.501 28.499 0 0-16.476 32.178 0 41.273M438 347.833a18.395 18.395 0 0 0 14.005 4.018C468.61 350.214 478.949 337.794 490 327M377 289c15.53 8.769 32.684 15.854 43.103 30.472 4.879 6.842 8.42 16.574 13.897 23.528M369 285a98.473 98.473 0 0 0 4 3M344.707 212a128.26 128.26 0 0 0 .862 33.45c2.233 14.007 8.668 28.015 20.431 36.55"/>
    </g>
</svg>
