<svg xmlns="http://www.w3.org/2000/svg" xmlns:xlink="http://www.w3.org/1999/xlink" width="861" height="287" viewBox="0 0 861 287">
    <defs>
        <path id="a" d="M0 0h904v326H0z"/>
    </defs>
    <g fill="none" fill-rule="evenodd" transform="translate(-30 -39)">
        <mask id="b" fill="#fff">
            <use xlink:href="#a"/>
        </mask>
        <g mask="url(#b)" opacity=".2">
            <g fill="#DCDFE8" fill-rule="nonzero">
                <path d="M842.765 324.818h-66.938V220.595h66.938zM231.045 239.996h51.638v92.7h-51.638zM653.534 147.753h44.303v181.103h-44.303zM482.512 274.458h62.332v62.104h-62.332z" opacity=".64"/>
                <path d="M555.812 131.196v49.656h-15.313v54.853h-7.494v95.743h74.598V131.196z" opacity=".956"/>
            </g>
            <g transform="translate(259 39)">
                <path fill="#DCDFE8" fill-rule="nonzero" d="M86.391 107.426l-24.987 17.505v25.145h-4.698v-21.23l-26.494 17.88v37.435H.146v109.522l122.318-.185V107.796s-35.507 0-36.073-.37z"/>
                <path fill="#DCDFE8" fill-rule="nonzero" d="M44.216 82.001h1.119v54.481h-1.119zM46.167 115.806h3.07v31.29h-3.07zM33.613 120.556h3.07v31.29h-3.07zM37.522 122.231h5.854v31.29h-5.854z"/>
                <path fill="#DCDFE8" fill-rule="nonzero" d="M38.635 139.557h-1v-76.27h1z"/>
                <rect width="98.945" height="24.782" x="168.015" y="61.287" fill="#DCDFE8" fill-rule="nonzero" rx="12.391"/>
                <path fill="#DCDFE8" fill-rule="nonzero" d="M181.529 74.608h2.606v32.602h-2.606z"/>
                <path fill="#DCDFE8" fill-rule="nonzero" d="M210.73 80.199l-29.163 20.408v29.341h-5.492v-24.757l-30.912 20.886v43.687h-35.081v127.797l142.748-.198V80.632s-41.438 0-42.1-.433z"/>
                <path fill="#DCDFE8" fill-rule="nonzero" d="M195.03 85.414h13.018v7.036H195.03z"/>
                <rect width="85.946" height="47.699" x="417.775" y="18.319" fill="#DCDFE8" fill-rule="nonzero" rx="23.85"/>
                <rect width="20.976" height="7.38" x="447.708" y="14.391" fill="#DCDFE8" fill-rule="nonzero" rx="3.69"/>
                <path fill="#DCDFE8" fill-rule="nonzero" d="M458.374 15.161V4.4l1.951 1.955v3.916h1.952V0l1.462 2.935v4.4l1.468 2.446v4.61z"/>
                <path stroke="#F3F5FA" d="M417.336 36.734s29.577-12.009 86.22-.815M424.563 60.447s25.134-5.693 72.82 0"/>
                <path fill="#DCDFE8" fill-rule="nonzero" d="M535.783 54.97a.825.825 0 0 1 1.411.587v5.125c0 .05.04.09.09.09h5.085a2.545 2.545 0 0 1 2.542 2.547v.229c0 .05.04.089.09.089h5.79c8.688.028 15.723 7.076 15.751 15.779v2.91c-.052 8.69-7.088 15.713-15.764 15.734h-5.39a.09.09 0 0 0-.09.089v3.356c0 .049-.039.089-.088.089h-2.644a.09.09 0 0 0-.09.089v19.968c0 .05.04.09.09.09h3.35c.049 0 .088.04.088.089v18.198c0 .05.04.09.09.09h5.816c.049 0 .089.04.089.088V273.27a.09.09 0 0 1-.051.082L514.8 291.696h-17.493a.09.09 0 0 1-.089-.089V193.91a.09.09 0 0 1 .038-.07l16.235-12.22a.09.09 0 0 0 .038-.07v-45.559a.09.09 0 0 0-.089-.089h-3.649a.09.09 0 0 1-.089-.09v-10.187l.7-4.54a.09.09 0 0 1 .057-.07l3.674-1.478a.09.09 0 0 0 .057-.082v-7.54a.083.083 0 0 1 0-.07c.636-.528 11.315-9.086 11.366-9.87 0-.477-.14-2.4-.185-3.82a.09.09 0 0 0-.089-.082h-5.085c-8.688-.028-15.723-7.076-15.751-15.78v-2.91c.031-8.69 7.05-15.73 15.726-15.771h9.477a.09.09 0 0 0 .09-.09v-.229a2.545 2.545 0 0 1 2.542-2.547" opacity=".855"/>
                <path fill="#F3F5FA" fill-rule="nonzero" d="M469.854 66.362h-1.952v14.346h1.735V69.406h.865v-3.044zM468.023 82.67v3.476l1.71 1.955v-5.215z"/>
                <path fill="#DCDFE8" fill-rule="nonzero" d="M398.807 5.87h-31.732l-7.322 15.646h-15.625v32.767h-58.092v6.845h10.743l9.274 9.297h19.527l20.506 26.406v12.226H326.56v183.88h73.227V5.872z"/>
                <path stroke="#FFF" d="M359.778 20.866l-16.247 32.768V20.866z"/>
                <path fill="#DCDFE8" fill-rule="nonzero" d="M163.788 89.979h3.579v36.518h-3.579zM155.34 100.174h3.579v36.518h-3.579z"/>
                <path fill="#DCDFE8" fill-rule="nonzero" d="M157.641 96.347h6.833v36.518h-6.833zM513.682 292.938v-94.386l-22.566-16.982v-63.223h5.327v-14.18l-.98-6.368-5.224-2.102V85.096s-15.7-12.57-15.77-13.69c-.07-1.121.635-7.98 0-7.336l-27.334.49v6.368h3.903v27.877h-4.875v25.432h-8.295v168.739l75.814-.038z"/>
            </g>
            <g fill="#DCDFE8" fill-rule="nonzero">
                <path d="M890.492 324.7h-75.165v-60.456h75.165zM193 279h57.989v53.77H193z"/>
                <path d="M30 309.885h191.989v21.88H30z"/>
            </g>
        </g>
    </g>
</svg>
