<svg xmlns="http://www.w3.org/2000/svg" width="94" height="69" viewBox="0 0 94 69">
    <g fill="none" fill-rule="evenodd" transform="translate(0 -1)">
        <path stroke="#F7A226" stroke-width="3" d="M12.74 31.86s1.93 11.69 13.52 23.91"/>
        <path fill="#F4BA64" fill-rule="nonzero" d="M5.49 18s.93 9.37 6.23 7c0 0 4.83-1.94 1.6-10l5.27-1.25s6.05 14.74-5.22 18.81c0 0-11.24 2.71-13.37-14A42.15 42.15 0 0 1 5.49 18z"/>
        <path stroke="#FFF" stroke-linecap="round" stroke-linejoin="round" stroke-width=".37" d="M11.57 33.76s1 .73 3-.35M12.19 36.18s1 .47 3.2-.56M13 38.69a5.32 5.32 0 0 0 3-.82M14.23 41.13s.81.5 3.24-.82M15.77 43.9a4.87 4.87 0 0 0 3.11-1M17 46.28s.79.2 3.11-1.09M18.56 48.68a6.77 6.77 0 0 0 2.77-1.27M20.16 50.85a4 4 0 0 0 2.84-1.4"/>
        <path stroke="#F7A226" stroke-width="3" d="M80.74 30s-2.46 11.3-14.36 22.61"/>
        <path fill="#F4BA64" fill-rule="nonzero" d="M88.5 16.89s-1.38 9.11-6.41 6.48c0 0-4.61-2.14-1-9.81L76 12.07s-6.64 14 4.12 18.57c0 0 10.8 3.21 13.72-12.94a41.07 41.07 0 0 0-5.34-.81z"/>
        <path stroke="#FFF" stroke-linecap="round" stroke-linejoin="round" stroke-width=".37" d="M81.79 31.93s-1 .66-2.93-.49M81.05 34.26s-1 .4-3.09-.71M80.17 36.66a5.18 5.18 0 0 1-2.88-.95M78.82 39s-.81.45-3.11-1M77.18 41.59a4.75 4.75 0 0 1-3-1.11M75.89 43.84s-.78.16-3-1.22M74.22 46.1a6.59 6.59 0 0 1-2.63-1.37M72.56 48.13a3.86 3.86 0 0 1-2.66-1.51"/>
        <ellipse cx="46.329" cy="46.023" fill="#F7A226" fill-rule="nonzero" rx="25.37" ry="23.64" transform="rotate(-.28 46.33 46.023)"/>
        <ellipse cx="41.92" cy="46.045" fill="#F4BA64" fill-rule="nonzero" rx="22.96" ry="23.64" transform="rotate(-.28 41.92 46.045)"/>
        <path fill="#F4BA64" fill-rule="nonzero" d="M43.7 8.58l-3.33-.79-.35 17.22 4.78-.22z"/>
        <circle cx="41.963" cy="5.845" r="4.84" fill="#F7A226" fill-rule="nonzero" transform="rotate(-.28 41.963 5.845)"/>
        <ellipse cx="31.565" cy="45.065" fill="#F7A226" fill-rule="nonzero" rx="8.75" ry="9" transform="rotate(-.28 31.565 45.065)"/>
        <ellipse cx="30.11" cy="46.5" fill="#FFF" fill-rule="nonzero" rx="7.83" ry="8.05"/>
        <path stroke="#F7A226" stroke-linecap="round" stroke-linejoin="round" d="M33.33 47.1a3.29 3.29 0 0 0-6.58 0"/>
        <ellipse cx="52.212" cy="44.604" fill="#F7A226" fill-rule="nonzero" rx="8.75" ry="9" transform="rotate(-.28 52.212 44.604)"/>
        <ellipse cx="50.959" cy="45.88" fill="#FFF" fill-rule="nonzero" rx="7.83" ry="8.05" transform="rotate(-.28 50.959 45.88)"/>
        <path stroke="#F7A226" stroke-linecap="round" stroke-linejoin="round" d="M54 46.63a3.29 3.29 0 0 0-6.58 0"/>
        <ellipse cx="42.343" cy="16.123" stroke="#F4BA64" stroke-width=".56" rx="10.93" ry="2.94" transform="rotate(-.28 42.343 16.123)"/>
    </g>
</svg>
