<svg xmlns="http://www.w3.org/2000/svg" width="483" height="475" viewBox="0 0 483 475">
    <g fill="none" fill-rule="evenodd">
        <ellipse cx="241.5" cy="426.5" fill="#F5F6FB" fill-rule="nonzero" rx="122.5" ry="6.5"/>
        <ellipse cx="176.5" cy="432.5" fill="#F5F6FB" fill-rule="nonzero" rx="70.5" ry="9.5"/>
        <path fill="#F5F6FB" fill-rule="nonzero" d="M59 412l394-5.077L430.124 379l-348.406 1.328s-9.886 4.92-5.931 3.456c3.954-1.464 29.52-.137 29.52-.137"/>
        <path fill="#F5F6FB" fill-rule="nonzero" d="M428.324 384c1.329 1.994 34.584 1.356 32.59 9.491-1.994 8.135-35.914 7.497-35.914 7.497L428.324 384z"/>
        <path fill="#FFF" fill-rule="nonzero" d="M458.728 387.73s18.86-8.571 20.205-2.637c1.346 5.934 10.765 12.527-4.71 10.549-15.475-1.978-22.223-2.637-22.223-2.637l6.728-5.275z"/>
        <path fill="#DCDFE8" fill-rule="nonzero" d="M78 147v-30.087c0-4.923 3.921-8.913 8.759-8.913h1.482c4.838 0 8.759 3.99 8.759 8.913V147H78zM95 153.33a3.818 3.818 0 0 1-.3 1.261 8.508 8.508 0 0 0 .22-1.591c.04.106.068.217.08.33zm-1 2.56v.11-.11z"/>
        <path fill="#CFD4E2" fill-rule="nonzero" d="M20 143h361v37H20z"/>
        <path fill="#CFD4E2" fill-rule="nonzero" d="M52 144v135H41V144z"/>
        <path fill="#CFD4E2" fill-rule="nonzero" d="M51.5 278.5v132.897c0 2.818-2.27 5.103-5.07 5.103h-.86c-2.8 0-5.07-2.285-5.07-5.103V278.5h11zM363 275v133.896c0 2.819-2.27 5.104-5.07 5.104h-.86c-2.8 0-5.07-2.285-5.07-5.104V275h11z"/>
        <path fill="#CFD4E2" fill-rule="nonzero" d="M363 144v135h-11V144z"/>
        <path fill="#CFD4E2" fill-rule="nonzero" d="M20 192h361v37H20zM381 267H12l5.67-14.417L374.362 252z"/>
        <path fill="#CFD4E2" fill-rule="nonzero" d="M386 280l-380-.464L12.315 265H380.87z"/>
        <path fill="#CFD4E2" fill-rule="nonzero" d="M393 291.92L0 293l6.264-13.46L387.17 279z"/>
        <path fill="#CFD4E2" fill-rule="nonzero" d="M0 291h392v3H0z"/>
        <path fill="#272B3F" fill-rule="nonzero" d="M130 448v14.623a60.496 60.496 0 0 0 43.366 12.003s7.297-2.3-8.948-13.143l-15.25-10.182L130 448zM200 426v14.045c11.849 9.108 26.678 13.257 41.442 11.596 0 0 6.967-2.227-8.564-12.72l-14.584-9.851L200 426z"/>
        <path fill="#515873" fill-rule="nonzero" d="M220.615 395.801a1569.176 1569.176 0 0 1-.67-83.23c.098-5.835.197-11.868-2.148-17.208a37.915 37.915 0 0 0-8.866-11.353 374.41 374.41 0 0 0-54.043-43.672c-9.102-6.053-18.52-11.75-26.814-18.87-3.35-2.887-6.719-6.092-11.014-7.12-4.984-1.187-10.127.87-14.757 3.046a215.303 215.303 0 0 0-45.314 28.66c-2.818 2.314-7.763 5.261-9.457 8.564-1.517 2.967.551 6.547 1.97 9.237a52.227 52.227 0 0 0 15.762 17.623 91.734 91.734 0 0 0 12.313 7.674c13.634 7.16 28.549 12.165 40.685 21.757a29.857 29.857 0 0 1 9.595 11.413c1.97 4.668 1.97 9.89 1.97 14.973v111.099a9.586 9.586 0 0 0 .907 5.004 6.665 6.665 0 0 0 3.014 2.492c4.69 2.136 10.147.772 15.112-.613a5.234 5.234 0 0 0 3.637-1.893 5.275 5.275 0 0 0 1.17-3.942 4311.281 4311.281 0 0 0 7.88-91.973c.868-11.53 1.675-23.24-.689-34.554-3.783-17.544-14.658-32.477-25.258-46.797l38.951 24.625c2.404 1.523 4.965 3.244 5.91 5.934a8.268 8.268 0 0 0 1.084 2.986c.749.89 1.97 1.128 2.975 1.74 2.246 1.405 2.72 4.431 2.995 7.082l11.27 115.233 15.21 1.562a8.99 8.99 0 0 0 4.492-.296c3.35-1.444 3.664-5.934 3.467-9.672-.59-9.824-1.037-19.66-1.34-29.51z"/>
        <path fill="#788DDF" fill-rule="nonzero" d="M187.211 260.919c-2.46-5.201-7.457-7.218-11.097-8.682l-.61-.257c-14.364-19.479-15.741-44.356-24.95-66.169a185.37 185.37 0 0 1-11.334-43.763v-.514l-.511-.237c-5.51-3.085-9.838-5.537-12.632-3.62-2.283 1.563-2.854 5.736-1.81 13.547.235 1.82.55 3.659.924 5.478a6.305 6.305 0 0 1-2.676.217l-1.515-.356.905 3.58c0 1.147 6.611 23.869 8.638 30.85.157.435 15.407 43.209 30.558 62.826.53.692 1.042 1.325 1.534 1.978.236.91.433 1.74.61 2.492a31.003 31.003 0 0 0 1.85 5.932 50.1 50.1 0 0 1 1.574 3.955c.492 1.286.708 1.879 1.436 1.978.728.099 1.102-.376 1.456-.811l.138-.178a9.673 9.673 0 0 0 .964-5.32v-.395h.177c3.483 2.076 4.093 1.977 5.903 5.933a7.406 7.406 0 0 0 7.28 3.56c2.913-.871 4.113-5.4 3.936-8.247a6.315 6.315 0 0 0-.748-3.777z"/>
        <path fill="#FAFAFC" fill-rule="nonzero" d="M101.851 78.024c-.727.218-19.555-2.69-38.128 19.072-18.572 21.763-21.717 104.856-18.336 119.575 0 0-.492 1.563 1.965 2.473 2.457.91-4.343 1.8-1.965 5.6 2.378 3.798 4.107 1.127.963 6.053-3.145 4.926-2.87 6.113-.727 12.78 2.142 6.668-5.798 24.909 11.792 23.326 17.59-1.583 35.71-11.87 46.343-18.162 10.632-6.291 35.238-16.144 25.824-28.034-9.414-11.89-20.734-34.78-16.155-50.489 4.58-15.708 24.135-45.503 18.592-59.669-5.542-14.165-20.282-25.976-20.282-25.976l-9.886-6.549z"/>
        <path fill="#788DDF" fill-rule="nonzero" d="M128.82 60.196s-12.408 15.39-23.702 18.066c-11.294 2.676 11.724 29.007 11.724 29.007s5.139 3.818 3.771-6.002c-1.368-9.82 1.778-15.625 12.193-18.518 10.414-2.893 3.107-25.052-3.986-22.553z"/>
        <path fill="#FAFAFC" fill-rule="nonzero" d="M131.611 108s5.956 7.334 6.865 21.786C139.385 144.24 141 148.69 141 148.69c-2.676 3.655-6.548 6.323-10.984 7.57-7.107 1.784-5.492-.216-5.492-.216L122 145.14 131.611 108z"/>
        <rect width="21" height="40" x="159" y="118" fill="#272B3F" fill-rule="nonzero" rx=".8" transform="rotate(8.92 169.5 138)"/>
        <rect width="1.84" height="40" x="158.001" y="116.988" fill="#515873" fill-rule="nonzero" rx=".24" transform="rotate(8.92 158.92 136.988)"/>
        <path fill="#5EC6CC" fill-rule="nonzero" d="M148 157.411c.178-.852 4.547-3.213 6.564-14.499 2.016-11.286 2.49-12.912 3.36-11.464.484 1.448.686 2.977.594 4.502a19.282 19.282 0 0 1-.238 3.57s5.714-7.596 9.747-7.418c4.033.179 10.26.853 8.738 6.922-1.522 6.07-7.077 5.217-12.554 12.14-5.476 6.922-13.285 14.836-13.285 14.836L148 157.411z"/>
        <circle cx="171" cy="125" r="2" fill="#FFF" fill-rule="nonzero"/>
        <path fill="#272B3F" fill-rule="nonzero" d="M283 428v11.963h-4.42v-3.368l-18.616 16.622c-1.051.94-4.362 2.37-5.67 1.527-3.807-2.408 1.863-10.748 3.25-13.176.952-1.684 5.492-13.392 6.206-13.392L283 428zM344 426v11.963h-4.42v-3.368l-18.616 16.622c-1.051.94-4.362 2.37-5.67 1.527-3.807-2.408 1.863-10.748 3.25-13.176.952-1.684 5.492-13.392 6.206-13.392L344 426z"/>
        <path fill="#3D4A6E" fill-rule="nonzero" d="M339.587 317.382c-8.531-32.323 35.547-56.245 18.425-88.154-14.239-26.392-42.933-3.163-52.432 5.655l-2.468-3.855s-45.895 42.485-50.18 62.789c-4.286 20.303 7.583 75.283 8.057 102.072.07 9.088.597 18.167 1.58 27.203-.257 11.21 13.31 14.214 20.715 6.979 0 0 2.133-74.81-3.08-100.214-2.587-12.653-1.679-18.07-2.113-20.343.217-.474.434-.93.671-1.384.612-.217 1.402-.969 1.817-3.222a20.829 20.829 0 0 1 5.115-5.516 63.224 63.224 0 0 0 14.06-13.444 143.69 143.69 0 0 0 8.591 30.07c2.784 6.425 5.135 17.398 7.07 30.05 1.027 7.79 2.073 16.133 3.1 24.298 3.12 28.943 4.503 57.332 4.503 57.332s13.824 6.465 21.466.455c0 0-.75-24.436-.987-45.688 1.165-18.88 1.62-44.107-3.91-65.083z"/>
        <path fill="#788DDF" fill-rule="nonzero" d="M276.23 170.453l.785-6.36-16.328-5.413-.57 24.157a264.603 264.603 0 0 1-16.407-44.422c-2.633-11.851-4.716-12.325-7.172-13.214-2.456-.89-7.349 1.461-7.349 1.461-5.836 2.193-10.08 5.728-11.16 5.728 0 0-.354 1.818 1.434 1.442 1.788-.375 5.895-1.659 9.589-2.943a33.36 33.36 0 0 1-2.28 2.529c-4.48 4.523-.294 7.09-.294 7.09a39.213 39.213 0 0 0 6.582 7.743 2.979 2.979 0 0 0 2.28.929v.118c1.336.217 10.689 47.938 15.149 61.231a35.949 35.949 0 0 0 9.608 14.933c2.358 2.153 5.895 5.254 8.862 2.37.26-.279.46-.608.59-.968 5.894-13.826 7.368-29.174 8.862-44.146.216-2.152.412-4.305.589-6.458l-2.77-5.807z"/>
        <path fill="#788DDF" fill-rule="nonzero" stroke="#788DDF" d="M177.958 126.687c-4.236-2.226-10.954 1.556-14.067 2.896-2.088.886-4.275 3.94-5.91 5.91l.926-4.59s1.123-2.68-2.226-1.793c-3.35.887-2.227 12.293-6.482 21.67-4.256 9.378-30.596 31.522-34.851 33.965a57.389 57.389 0 0 0-4.926 3.645c-1.556-.434-2.817-2.227-2.896-6.994-.216-12.294-8.707-31.521-8.707-32.388l-1.34-.453a22.696 22.696 0 0 0-8.432-1.163 10.993 10.993 0 0 0-3.074.375A20.39 20.39 0 0 0 75 154.169v.276c1.418 4.295 18.814 56.344 26.734 62.057l.158.197a1.3 1.3 0 0 0 .946.296h.216a2.7 2.7 0 0 0 1.635-.571 26.478 26.478 0 0 0 4.748-3.152c8.669-3.192 25.395-22.124 35.068-35.935 10.62-14.992 22.223-29.964 30.261-34.89 8.038-4.925 7.388-13.613 3.192-15.76z"/>
        <path fill="#FAFAFC" fill-rule="nonzero" d="M139 150.493s-7.746 9.156-18.454 8.47c-10.708-.685-2.614-21.963-2.614-21.963L139 150.493z"/>
        <rect width="11" height="15" x="365" y="29" fill="#F7A226" fill-rule="nonzero" rx="2.58"/>
        <rect width="11" height="15" x="404" y="28" fill="#F7A226" fill-rule="nonzero" rx="2.58"/>
        <ellipse cx="390" cy="35.5" fill="#F4BA64" fill-rule="nonzero" rx="22" ry="21.5" transform="rotate(-87.41 390 35.5)"/>
        <ellipse cx="387.5" cy="36" fill="#F7A226" fill-rule="nonzero" rx="9.5" ry="10" transform="rotate(-.573 387.5 36)"/>
        <ellipse cx="385.5" cy="37" fill="#FFF" fill-rule="nonzero" rx="8.5" ry="9" transform="rotate(-.62 385.5 37)"/>
        <path fill="#F7A226" fill-rule="nonzero" d="M380.852 40c-.462 0-.84-.332-.852-.748.021-1.167.565-2.276 1.509-3.076.944-.8 2.206-1.223 3.501-1.172 1.334.005 2.617.46 3.597 1.272.87.75 1.372 1.78 1.393 2.863 0 .417-.369.757-.832.767-.462 0-.84-.332-.852-.748.007-.705-.309-1.382-.873-1.871a3.627 3.627 0 0 0-2.433-.767c-1.714-.042-3.145 1.17-3.201 2.713 0 .416-.37.757-.832.767h-.125z"/>
        <path fill="#F4BA64" fill-rule="nonzero" d="M372.32 60.295a57.584 57.584 0 0 1 25.07-1.591 27.315 27.315 0 0 1 11.578 4.871c3.56 2.888 1.643 8.565.254 12.08-3.578 9.036-15.234 19.977-25.677 16.776-8.312-2.554-15.508-18.013-15.508-26.302-.325-2.774 1.548-5.325 4.282-5.834z"/>
        <path fill="#F4BA64" fill-rule="nonzero" d="M410.404 65s5.523 8.224 6.588 15.517c0 0 .355 3.88-3.728 1.94A25.927 25.927 0 0 1 405 73.05l5.404-8.05zM371.235 61s-9.057 4.595-13.686 10.534c0 0-2.254 3.213 2.375 3.466A27.32 27.32 0 0 0 372 70.6l-.765-9.6zM389 2h1.62v16H389z"/>
        <path fill="#F4BA64" fill-rule="nonzero" d="M389.5 11c-2.776 0-7.5-.525-7.5-2.5s4.705-2.5 7.5-2.5 7.5.525 7.5 2.5-4.724 2.5-7.5 2.5zm0-3.514c-3.72 0-5.709.778-5.906 1.105a13.697 13.697 0 0 0 5.906.942 11.871 11.871 0 0 0 5.906-1.033 11.875 11.875 0 0 0-5.906-1.014z"/>
        <circle cx="389" cy="2" r="2" fill="#F7A226" fill-rule="nonzero"/>
        <path fill="#FFF" fill-rule="nonzero" d="M393.72 70.12c.58-.9.14-1.62-.98-1.64h-9.76c-1.12 0-1.56.72-1 1.62l4.78 7.62a1.14 1.14 0 0 0 2 0l4.96-7.6z" opacity=".29"/>
        <path fill="#FFF" fill-rule="nonzero" d="M392.83 71.172c.427-.634 0-1.153-.714-1.172h-7.198c-.815 0-1.162.519-.733 1.153l3.445 5.378a.84.84 0 0 0 .765.469.84.84 0 0 0 .764-.47l3.67-5.358z"/>
        <path fill="#788DDF" fill-rule="nonzero" d="M382.735 251.666a18.812 18.812 0 0 1-4.614-9.68c-1.689-11.7-3.142-36.764-5.89-48.86-3.201-14.194-16.73-46.642-17.3-48.008l-.883-2.118-1.767 1.445a22.79 22.79 0 0 1-4.85 3.089l-1.453.415a21.566 21.566 0 0 1-8.66.713L334 147.83l1.394 3.208c.412.97 10.27 23.618 14.864 28.864 3.142 3.583 1.335 6.236 5.184 21.321 1.217 4.811 2.513 9.899 3.927 14.967 4.084 15.184 7.972 24.667 8.934 29.18-.254.86-.61 1.684-1.06 2.456l-1.14 1.148c-1.766 1.762-2.944 8.275-4.26 10.69a2.233 2.233 0 0 0 0 2.257c.38.465.884.809 1.453.99 2.474 1.03 3.633-5.939 5.557-4.098 2.474 2.475 5.792 5.187 10.033 5.187.487.001.972-.032 1.454-.099 3.71-.535 5.89-1.802 6.499-3.96.864-2.95-1.924-6.137-4.104-8.275zM312.939 137.173c-5.864-9.869-9.74-37.975-9.74-37.975-.221-10.106.321-18.198.321-18.198s-22.592 5.23-16.467 22.836a128.966 128.966 0 0 1 7.069 39.021c.482 8.586 31.549 2.408 18.817-5.684z"/>
        <path fill="#FAFAFC" fill-rule="nonzero" d="M361.007 230.986c0-.828-5.67-59.74-13.658-72.417 0 0 8.662 1.657 16.651-8.26 0 0-20.12-40.182-30.527-39.295-4.757.415-9.535.651-14.292.888-3.489.177-6.997.177-10.486.473-1.23.098-3.033-.276-3.965.887-.931 1.163.298 2.997-.971 4.18a7.186 7.186 0 0 1-4.976 1.203c-9-.276-8.563-1.972-8.563-1.972s-22.737.887-25.77 9.7c-3.032 8.813-2.656 26.715-4.32 34.7-1.666 7.985 13.32 7.887 13.32 7.887-.515 0 .852 3.943.951 4.16a14.388 14.388 0 0 0 4.996 5.146 26.386 26.386 0 0 0 3.171 1.754c4.381 1.972 3.41 7.887 4.104 11.653.812 4.534 1.506 9.108 1.982 13.683a104.859 104.859 0 0 1 .436 24.447 142.2 142.2 0 0 0-.753 7.73c-1.447 2.917-4.262 9.344-2.082 11.06.826.768 1.745 1.43 2.736 1.971a46.415 46.415 0 0 0 14.094 3.293c3.806.453 7.612.71 11.438.887 2.418.105 4.836.171 7.255.197a66.655 66.655 0 0 0 24.996-3.746 40.98 40.98 0 0 0 7.592-3.805 36.047 36.047 0 0 0 5.035-3.923c.357-.336 1.05-1.36 1.507-1.499a2.63 2.63 0 0 0 1.968-1.808 2.612 2.612 0 0 0-.64-2.588 7.97 7.97 0 0 1-1.23-6.586z"/>
        <path fill="#788DDF" fill-rule="nonzero" d="M133.544 34.943s-6.77 2.466-3.532 16.409c0 0-.726 9.726-12.914 22.037 0 0-1.55 9.945 7.654 13.346a69.33 69.33 0 0 0 5.436-5.33c-.49.616 2.866 4.117 3.18 4.435 4.612 4.436 15.7 6.544 21.685 4.177 5.103-1.989 5.888-4.952 10.068-8.513a64.753 64.753 0 0 0 13.07-15.474 83.675 83.675 0 0 0 5.888-11.556 103.045 103.045 0 0 0 2.59-6.882c.295-.875 2.787-7.16 2.257-7.677L169.576 21l-36.032 13.943z"/>
        <path fill="#272B3F" fill-rule="nonzero" d="M139.28 50.111l4.094.889s2.145-21.41 20.403-19.396c0 0 7.828 2.47 10.45 4.78 0 0 16.888 11.85 25.828-7.762 0 0 1.987-5.195.199-7.13 0 0-.398-.87-4.311 1.007 0 0-16.232-8.552-24.398-12.246 0 0-34.926-18.388-40.112 7.9a28.074 28.074 0 0 0 1.987 16.315s7.311-2.29 8.285 4.899L139.28 50.11z"/>
        <path stroke="#FFF" stroke-linecap="round" stroke-linejoin="round" stroke-width="1.5" d="M154 52.226s7.351-4.131 9 2.774M169 58.76s6.443-3.106 7 3.24"/>
        <path fill="#FFF" fill-rule="nonzero" d="M162.993 75.25c.01-.12.01-.24 0-.361-.421-2.57-4.33-1.485-5.9-2.798-.939-.78-1.322-2.094-2.356-2.74a2.964 2.964 0 0 0-3.563.59 4.738 4.738 0 0 0-1.15 3.597 7.068 7.068 0 0 0 4.617 6.09 6.965 6.965 0 0 0 7.394-1.903 3.793 3.793 0 0 0 .958-2.474z"/>
        <path fill="#788DDF" fill-rule="nonzero" d="M256.372 61.787s.783 22.128 9.358 35.467c0 0 7.832 13.261 20.401 2.936 0 0 7.303 11.822 6.206 23.113 0 0 5.972 6.069 11.473 0 0 0-1.096-14.857-.92-16.867l5.11-49.26-13.294-17.97L257.723 37 256 55.246l.372 6.541z"/>
        <path fill="#FAFAFC" fill-rule="nonzero" d="M268.441 88.288a3.87 3.87 0 0 1-.27-.74c-.484-1.901 0-4.068 2.244-4.258 0 0 5.418.608 6.888-.836 1.264-1.58 3.56-1.922 5.244-.78 0 0 4.256 4.353-1.8 7.888a12.78 12.78 0 0 1-9.52.912 4.513 4.513 0 0 1-2.786-2.186zM292.57 118.161s10.085 1.257 12.41-3.161l6.02 10.348-3.694 3.652-19.544-.609-.762-8.227 5.57-2.003z"/>
        <path stroke="#FFF" stroke-linecap="round" stroke-linejoin="round" stroke-width="1.5" d="M261 70c.722-1.075 1.925-1.795 3.28-1.963 1.355-.167 2.72.236 3.72 1.098M274 68s4.336-5.775 9-1.3"/>
        <path fill="#272B3F" fill-rule="nonzero" d="M312.491 126.684c.243.179.53.288.83.316a12.741 12.741 0 0 0 3.75-6.352c1.776-6.095 8.467-10.77 7.894-17.614-.454-5.484-4.362-8.127-7.618-11.993-6.316-7.496-3.85-15.209.315-22.921 3.316-6.135 6.1-12.763 6.257-19.726.158-6.963-2.783-14.32-8.763-17.91-3.296-1.973-7.244-2.723-10.402-4.893-1.974-1.321-3.474-3.136-5.29-4.615a23.4 23.4 0 0 0-18.514-4.616 31.981 31.981 0 0 0-17.073 9.133c-2.349 2.347-4.421 4.99-6.987 7.081a48.549 48.549 0 0 0-6.08 4.971 11.928 11.928 0 0 0-1.203 13.67 22.879 22.879 0 0 1 2.151 3.57c.592 1.558.474 3.314 1.027 4.872.552 1.559 2.25 3.018 3.77 2.348-.534-4.833-.81-9.863 1.085-14.36 1.895-4.498 6.632-8.088 11.408-7.18 3.237.61 5.922 3.136 9.238 3.412 2.487.197 5.053-.927 7.44-.178 3.692 1.184 4.6 5.918 5.093 9.725a107.523 107.523 0 0 0 2.665 13.808c2.487-1.618 2.94-5.01 2.98-7.89 0-.848 0-1.854.849-2.249a1.975 1.975 0 0 1 2.171.612 8.36 8.36 0 0 1 2.151 9.31c-.513 1.223-1.322 2.288-1.815 3.511a13.327 13.327 0 0 0-.77 3.274c-1.402 10.534.612 21.205 2.645 31.561a12.011 12.011 0 0 0 4.776 8.443 12.326 12.326 0 0 1 5.23 9.705c-.059 1.144-.118 2.485.79 3.175z"/>
    </g>
</svg>
