<svg xmlns="http://www.w3.org/2000/svg" width="50" height="50" viewBox="0 0 50 50">
    <g fill="none" fill-rule="evenodd" opacity=".8">
        <path stroke="#E0E3F3" d="M49.5 49.5V.5H2A1.5 1.5 0 0 0 .5 2v46A1.5 1.5 0 0 0 2 49.5h47.5z"/>
        <path fill="#FFF" d="M31.88 20.371a3.772 3.772 0 0 0 1.622-2.094 7.28 7.28 0 0 1-2.345.919A3.639 3.639 0 0 0 28.462 18c-2.04 0-3.692 1.695-3.692 3.786 0 .297.03.586.094.863-3.068-.159-5.788-1.664-7.611-3.957a3.85 3.85 0 0 0-.5 1.905c0 1.313.652 2.472 1.643 3.152a3.636 3.636 0 0 1-1.673-.473v.046c0 1.836 1.272 3.366 2.963 3.713a3.53 3.53 0 0 1-.974.133c-.238 0-.47-.022-.694-.067.47 1.504 1.833 2.6 3.45 2.63A7.293 7.293 0 0 1 16 31.298 10.272 10.272 0 0 0 21.66 33c6.794 0 10.507-5.77 10.507-10.774 0-.165-.002-.328-.01-.49A7.587 7.587 0 0 0 34 19.776a7.232 7.232 0 0 1-2.12.595z"/>
    </g>
</svg>
